<?xml version="1.0" encoding="UTF-8"?>
<svg id="Layer_2" data-name="Layer 2" xmlns="http://www.w3.org/2000/svg" viewBox="0 0 217.11 29.46">
  <defs>
    <style>
      .cls-1 {
        fill: #1d262d;
        stroke-width: 0px;
      }
    </style>
  </defs>
  <g id="OBJECTS">
    <g>
      <path class="cls-1" d="M199.31,2.06c.36.43.62.73.86,1.04.85,1.15.9,2.55.12,3.62-.79,1.09-2.26,1.52-3.6,1-1.43-.55-2.24-1.62-2.4-3.12-.15-1.46.43-2.62,1.7-3.39,2.02-1.22,4.11-1.65,6.37-.63,2.56,1.16,3.82,3.14,3.87,5.9.03,1.54-.37,3.01-1.13,4.36-.67,1.22-1.7,2.04-2.91,2.69-2.51,1.33-5.21,1.8-8.01,1.89-2.81.09-5.62.16-8.44.25-5.4.17-10.8.38-16.2.51-8.62.21-17.23.5-25.86.23-1.47-.05-2.95-.15-4.42-.15-3.3,0-6.61.06-9.91.1-.58,0-1.16.03-1.74.03-4.6,0-9.2,0-13.8,0-.49,0-.99,0-1.46-.11-.61-.13-.95-.58-.96-1.13-.01-.55.31-.99.92-1.16.34-.09.7-.12,1.06-.13,2.19-.1,4.37-.25,6.56-.25,2.23,0,4.47.07,6.69.27,3.07.27,6.14.36,9.23.33,6.83-.08,13.67.03,20.5.07,6.75.04,13.49-.09,20.23-.42,5.44-.27,10.89-.39,16.33-.63,1.56-.07,3.11-.26,4.65-.53,1.42-.25,2.73-.86,3.91-1.69,1.87-1.3,2.74-3.14,2.69-5.39-.04-1.93-1.65-3.59-3.55-3.75-.38-.03-.77.1-1.3.18Z"/>
      <path class="cls-1" d="M17.71,2.22c-.35-.34-.73-.39-1.14-.35-1.84.14-3.48,1.73-3.58,3.58-.13,2.36.78,4.28,2.75,5.62,1.54,1.04,3.27,1.66,5.1,1.91,1.1.15,2.22.23,3.34.27,3.97.16,7.95.23,11.92.44,10.22.53,20.44.72,30.67.56,4.06-.06,8.13-.15,12.19-.06,4.38.1,8.75.05,13.11-.4,2.45-.25,4.9-.25,7.36-.03,1.33.12,2.68.08,4.02.11.36,0,.72,0,1.07.05.77.13,1.21.58,1.23,1.2.01.61-.44,1.1-1.19,1.23-.31.05-.62.05-.93.06-.85,0-1.7,0-2.55,0-3.57,0-7.15,0-10.72,0-.63,0-1.25.03-1.88-.01-5.58-.33-11.16-.02-16.74.04-5.8.07-11.61,0-17.42-.1-5.31-.09-10.63-.29-15.94-.44-5.13-.15-10.27-.3-15.4-.46-2.7-.08-5.33-.52-7.78-1.75-3.33-1.68-4.99-5.39-4.08-9C12.03,1.09,16.41-.79,19.15.31c.74.3,1.5.6,2.17,1.03,1.29.82,1.79,2.23,1.44,3.74-.34,1.45-1.5,2.57-2.91,2.81-1.26.21-2.5-.32-3.12-1.36-.66-1.12-.56-2.22.14-3.28.24-.36.56-.68.85-1.03Z"/>
      <path class="cls-1" d="M5.21,24.12c.26.23.46.4.65.58.83.78,1.11,1.72.75,2.8-.38,1.12-1.22,1.75-2.38,1.9-1.48.19-2.63-.43-3.43-1.63-.94-1.4-1.01-2.93-.45-4.49.55-1.55,1.62-2.65,3.05-3.42,1.47-.8,3.06-1.29,4.7-1.48,2.08-.25,4.18-.44,6.27-.51,9.73-.35,19.47-.39,29.2-.12,6.7.18,13.39.4,20.09.58,4.73.12,9.47.17,14.2.3,7.77.22,15.53.47,23.3.71.94.03,1.87.07,2.81.13.53.03,1.07.07,1.47.65-.23.16-.41.39-.63.43-.61.12-1.23.23-1.85.23-4.24,0-8.48-.02-12.72-.07-5.36-.06-10.72-.14-16.07-.25-5.49-.11-10.98-.25-16.47-.42-12.41-.37-24.82-.71-37.23-.27-2.67.09-5.35.24-7.99.75-2.03.39-3.95,1.09-5.74,2.14-.57.34-1.15.68-1.5,1.46Z"/>
      <path class="cls-1" d="M211.91,24.06c-.33-.74-.95-1.1-1.56-1.46-2.28-1.31-4.74-2.05-7.34-2.36-3.42-.42-6.86-.49-10.29-.59-8.31-.25-16.61-.11-24.91.14-12.05.36-24.1.7-36.16.78-4.33.03-8.66.19-12.99.26-1.56.03-3.13-.02-4.69-.07-.58-.02-1.15-.13-1.72-.25-.19-.04-.34-.24-.52-.38.38-.66.99-.65,1.55-.68,1.65-.1,3.3-.2,4.95-.25,9.64-.26,19.28-.5,28.93-.77,6.7-.18,13.39-.42,20.09-.57,10.8-.24,21.61-.51,32.42-.08,2.45.1,4.91.17,7.36.31,1.79.1,3.54.47,5.23,1.08,1.02.36,1.98.84,2.79,1.56,1.53,1.37,2.3,3.05,2.02,5.13-.17,1.31-.8,2.37-1.94,3.06-1.12.68-2.3.72-3.43.03-1.51-.92-1.74-2.86-.53-4.15.12-.13.27-.23.4-.35.12-.12.23-.25.36-.4Z"/>
      <path class="cls-1" d="M207.08,25.1c-.02,1.25-1.07,2.26-2.34,2.24-1.23-.02-2.2-.99-2.2-2.2,0-1.24,1.03-2.22,2.34-2.22,1.25,0,2.22.96,2.2,2.18Z"/>
      <path class="cls-1" d="M14.61,25.12c.01,1.2-.97,2.2-2.19,2.22-1.27.03-2.32-.96-2.35-2.22-.03-1.24.91-2.19,2.17-2.2,1.3-.01,2.36.97,2.37,2.2Z"/>
      <path class="cls-1" d="M21.13,24.64c.03,1.11-.67,2.12-1.71,2.45-1.42.46-2.65-.6-2.38-2.06.07-.39.2-.78.35-1.15.39-.93,1.19-1.4,2.12-1.25.94.15,1.6.97,1.62,2Z"/>
      <path class="cls-1" d="M198.15,22.61c.15.05.46.1.72.25.87.47,1.53,2.26,1.2,3.18-.26.74-1.09,1.23-1.92,1.15-1.61-.16-2.66-2.1-1.9-3.53.36-.69.94-1.04,1.9-1.04Z"/>
      <path class="cls-1" d="M24.87,26.64c-.9.02-1.64-.68-1.67-1.55-.03-1.04.98-2.11,2-2.12.87,0,1.56.71,1.57,1.65.01,1.07-.86,2-1.89,2.02Z"/>
      <path class="cls-1" d="M192.25,26.64c-1.04-.03-1.89-.97-1.87-2.04.02-.94.71-1.65,1.58-1.63,1.02.02,2.04,1.12,1.99,2.13-.04.86-.82,1.56-1.7,1.54Z"/>
    </g>
  </g>
</svg>