<?xml version="1.0" encoding="UTF-8"?>
<svg id="Layer_2" data-name="Layer 2" xmlns="http://www.w3.org/2000/svg" viewBox="0 0 133.86 19.51">
  <defs>
    <style>
      .cls-1 {
        fill: #1d1d1b;
        stroke-width: 0px;
      }
    </style>
  </defs>
  <g id="OBJECTS">
    <g>
      <path class="cls-1" d="M67.18,9.83c-14.56-.77-29.42-1.15-44.09-.57C23.46,4.35,17.38,1.76,13.72.06c-.37-.17-.91.02-.88.5.16,2.43-.83,4.92.9,7.01.81.98,1.92,1.6,3.12,2-1.22.07-2.45.14-3.67.22-.02-.04-.04-.07-.07-.11-1.79-1.88-3.68-3.46-6.44-3.15-2.56.28-4.63,2.01-6.52,3.61-.3.25-.15.68.11.87,2.32,1.7,5.01,3.61,8.05,3.29,2.08-.22,3.81-1.42,4.43-3.38.05,0,.09,0,.14.01.29.02.43-.2.42-.43,1.54.02,3.07.04,4.61.06-2.94,1.7-4.81,4.64-4.6,8.39.02.3.24.56.55.55,4.91-.07,8.96-3.95,8.7-8.89,14.86.12,29.72.08,44.59.51.84.02.83-1.25,0-1.3ZM1.46,10.5c1.37-1.15,2.83-2.3,4.59-2.73,2.46-.6,4.23.64,5.84,2.24-2.05-.12-4.11-.22-6.16-.21-.24,0-.31.4-.06.43,2.13.3,4.28.49,6.43.64-2.1,4.38-7.57,1.71-10.64-.38ZM14.33,6.51c-.92-1.5-.43-3.35-.33-5.05,3.34,1.51,8.01,3.71,7.99,7.66-.83-.63-1.76-1.13-2.59-1.75-1.1-.81-2.08-1.73-3.13-2.59-.14-.12-.42.04-.28.22.77.99,1.7,1.87,2.65,2.69.64.55,1.32,1.16,2.05,1.67-.44.02-.87.03-1.31.06-1.83-.67-3.94-1.13-5.03-2.91ZM14.43,18.37c0-1.88.58-3.68,1.8-5.17.99-1.21,2.25-1.92,3.57-2.61.41,0,.82,0,1.23.01-1.36,1.37-2.6,2.85-3.64,4.5-.27.42.39.8.67.39,1.06-1.56,2.23-2.99,3.57-4.29-.44,3.85-3.21,6.86-7.19,7.17Z"/>
      <path class="cls-1" d="M66.68,11.12c14.88-.43,29.73-.38,44.59-.51-.26,4.95,3.79,8.82,8.7,8.89.31,0,.54-.26.55-.55.22-3.75-1.66-6.69-4.6-8.39,1.54-.02,3.07-.03,4.61-.06,0,.23.13.45.42.43.05,0,.09,0,.14-.01.63,1.96,2.36,3.16,4.43,3.38,3.04.32,5.73-1.6,8.05-3.29.26-.19.41-.62.11-.87-1.89-1.6-3.95-3.33-6.52-3.61-2.76-.3-4.65,1.28-6.44,3.15-.03.03-.05.07-.07.11-1.22-.09-2.45-.15-3.67-.22,1.2-.4,2.3-1.03,3.12-2,1.73-2.08.74-4.57.9-7.01.03-.48-.51-.67-.88-.5-3.67,1.7-9.74,4.29-9.38,9.2-14.67-.58-29.52-.2-44.09.57-.83.04-.84,1.32,0,1.3ZM121.76,10.88c2.15-.15,4.3-.35,6.43-.64.25-.03.18-.43-.06-.43-2.05-.01-4.11.08-6.16.21,1.61-1.6,3.38-2.84,5.84-2.24,1.76.43,3.22,1.58,4.59,2.73-3.07,2.09-8.54,4.76-10.64.38ZM114.5,9.42c-.44-.02-.87-.04-1.31-.06.73-.5,1.41-1.11,2.05-1.67.94-.82,1.88-1.69,2.65-2.69.14-.18-.14-.33-.28-.22-1.05.86-2.04,1.78-3.13,2.59-.84.62-1.77,1.12-2.59,1.75-.02-3.95,4.64-6.15,7.99-7.66.09,1.71.59,3.56-.33,5.05-1.1,1.78-3.21,2.24-5.03,2.91ZM112.24,11.2c1.34,1.3,2.51,2.73,3.57,4.29.28.41.93.03.67-.39-1.03-1.65-2.27-3.12-3.64-4.5.41,0,.82,0,1.23-.01,1.32.68,2.58,1.4,3.57,2.61,1.21,1.49,1.79,3.28,1.8,5.17-3.98-.31-6.75-3.32-7.19-7.17Z"/>
    </g>
  </g>
</svg>