<svg xmlns="http://www.w3.org/2000/svg" viewBox="0 0 877.31 145.72"><defs><style>.a{fill:#e32;}</style></defs><path class="a" d="M0,143.15V0H75.33c27.26,0,41.21,17.38,41.21,36.48,0,18-11.16,30.05-24.69,32.84,15.24,2.36,27.48,17.17,27.48,35.2,0,21.46-14.38,38.63-41.64,38.63ZM30.48,57.52h38.2c10.3,0,16.74-6.66,16.74-15.88C85.42,32.84,79,26,68.68,26H30.48Zm0,59.66H69.75c11.59,0,18.46-6.65,18.46-17,0-9-6.44-16.74-18.46-16.74H30.48Z"/><path class="a" d="M136.28,143.15V39.49h27.25V53.65c7.3-9.22,20.18-16.52,33.05-16.52V63.74a36.12,36.12,0,0,0-7.51-.64c-9,0-21,4.93-25.54,11.59v68.46Z"/><path class="a" d="M255.17,36.91c30.9,0,51.93,23.18,51.93,57.09v6h-77c1.71,13.09,12.23,24,29.83,24,9.66,0,21-3.87,27.68-10.3l12,17.59C289.08,141,273,145.72,256.88,145.72c-31.54,0-55.37-21.24-55.37-54.51C201.51,61.17,223.62,36.91,255.17,36.91ZM229.63,81.55h51.08c-.65-9.87-7.52-23-25.54-23C238.21,58.59,230.92,71.25,229.63,81.55Z"/><path class="a" d="M368.48,36.91c30.9,0,51.94,23.18,51.94,57.09v6H343.37c1.72,13.09,12.23,24,29.83,24,9.66,0,21-3.87,27.69-10.3l12,17.59c-10.51,9.66-26.61,14.38-42.7,14.38-31.55,0-55.37-21.24-55.37-54.51C314.83,61.17,336.93,36.91,368.48,36.91ZM342.94,81.55H394c-.65-9.87-7.51-23-25.54-23C351.52,58.59,344.23,71.25,342.94,81.55Z"/><path class="a" d="M435.43,143.15V0h101.3V26.18H465.91V57.3h69.32V83.48H465.91v59.67Z"/><path class="a" d="M599,36.91c30.9,0,51.93,23.18,51.93,57.09v6h-77c1.71,13.09,12.23,24,29.83,24,9.66,0,21-3.87,27.68-10.3l12,17.59c-10.51,9.66-26.61,14.38-42.71,14.38-31.54,0-55.37-21.24-55.37-54.51C545.31,61.17,567.42,36.91,599,36.91ZM573.43,81.55h51.08c-.65-9.87-7.52-23-25.54-23C582,58.59,574.72,71.25,573.43,81.55Z"/><path class="a" d="M712.28,36.91c30.9,0,51.94,23.18,51.94,57.09v6H687.17c1.72,13.09,12.23,24,29.83,24,9.66,0,21-3.87,27.69-10.3l12,17.59C746.19,141,730.09,145.72,714,145.72c-31.55,0-55.37-21.24-55.37-54.51C658.63,61.17,680.73,36.91,712.28,36.91ZM686.74,81.55h51.08c-.65-9.87-7.51-23-25.54-23C695.33,58.59,688,71.25,686.74,81.55Z"/><path class="a" d="M849.84,143.15V130.06c-8.15,10.08-19.53,15.66-32,15.66-26.19,0-45.93-19.74-45.93-54.29,0-33.91,19.53-54.52,45.93-54.52a39.92,39.92,0,0,1,32,15.88V0h27.47V143.15Zm0-70.18c-4.72-6.87-14.38-11.8-23.6-11.8-15.46,0-26.19,12.23-26.19,30.26,0,17.81,10.73,30,26.19,30,9.22,0,18.88-4.93,23.6-11.8Z"/></svg>