<svg xmlns="http://www.w3.org/2000/svg" viewBox="0 0 1006.82 210.88"><defs><style>.a{fill:#5f01d1;}</style></defs><path class="a" d="M142,200.18A92.4,92.4,0,0,1,118.89,208q-13.61,2.89-33,2.89-20.25,0-36.16-5.49a75.72,75.72,0,0,1-27-15.77A67.05,67.05,0,0,1,5.79,165a84.5,84.5,0,0,1-5.79-32,81.92,81.92,0,0,1,5.64-30.81A72.53,72.53,0,0,1,21.26,78.11a71.61,71.61,0,0,1,24-15.91,80.77,80.77,0,0,1,31.1-5.79q36.15,0,55,20.54t18.8,56.12q0,6.66-.86,15.33H59.88q3.18,7.53,12.87,10.13t24.45,2.6a116.6,116.6,0,0,0,22.13-2,111,111,0,0,0,22.7-7.23ZM93.44,115.71q-.87-6.64-5.65-9.83a20.12,20.12,0,0,0-11.42-3.18q-6.95,0-11.43,3t-6.51,10Z"/><path class="a" d="M219.27,4.05v202.5h-61V4.05Z"/><path class="a" d="M369.4,200.18A92.54,92.54,0,0,1,346.26,208q-13.61,2.89-33,2.89-20.25,0-36.16-5.49a75.67,75.67,0,0,1-27.05-15.77A67.17,67.17,0,0,1,233.15,165a84.5,84.5,0,0,1-5.79-32A81.92,81.92,0,0,1,233,102.26a72.56,72.56,0,0,1,15.63-24.15,71.51,71.51,0,0,1,24-15.91,80.72,80.72,0,0,1,31.09-5.79q36.16,0,55,20.54t18.81,56.12q0,6.66-.87,15.33H287.24q3.18,7.53,12.88,10.13t24.44,2.6a116.52,116.52,0,0,0,22.13-2,110.87,110.87,0,0,0,22.71-7.23Zm-48.6-84.47q-.87-6.64-5.64-9.83a20.13,20.13,0,0,0-11.43-3.18q-6.94,0-11.42,3t-6.51,10Z"/><path class="a" d="M446.63,60.75V77.53a39,39,0,0,1,16.2-15.91,49.23,49.23,0,0,1,22.85-5.21q22,0,35,14.76t13,40.49v94.89h-61V128.44c0-5.21-1.12-9.21-3.33-12a11,11,0,0,0-9.11-4.2q-6.37,0-10,4.2t-3.62,12v78.11h-61V60.75Z"/><path class="a" d="M779.24,27.19A25.21,25.21,0,0,1,777,37.74a28.67,28.67,0,0,1-5.86,8.56,28.2,28.2,0,0,1-8.67,5.86,26.62,26.62,0,0,1-21.33,0,28.13,28.13,0,0,1-8.68-5.86,28.85,28.85,0,0,1-5.86-8.56,25.21,25.21,0,0,1-2.23-10.55,25.25,25.25,0,0,1,2.23-10.55,28.81,28.81,0,0,1,5.86-8.55,28.13,28.13,0,0,1,8.68-5.86,26.62,26.62,0,0,1,21.33,0,28.2,28.2,0,0,1,8.67,5.86A28.62,28.62,0,0,1,777,16.64,25.25,25.25,0,0,1,779.24,27.19ZM721.15,206.55V60.75h61.33v145.8Z"/><path class="a" d="M856.24,4.05v202.5h-61V4.05Z"/><circle class="a" cx="910.02" cy="174.68" r="33.16"/><path class="a" d="M954.07,129.34H894.38l53-127.27h59.47Z"/><path class="a" d="M647.67,4.05V75.22a43.9,43.9,0,0,0-17.35-14A54.41,54.41,0,0,0,608,56.7a59.23,59.23,0,0,0-26.32,5.93,65,65,0,0,0-21,16.2,76.77,76.77,0,0,0-13.89,24.3,89.45,89.45,0,0,0-5.06,30.52,88.52,88.52,0,0,0,5.06,30.23,78.49,78.49,0,0,0,13.89,24.44,63.84,63.84,0,0,0,21,16.34A59.11,59.11,0,0,0,608,210.6a54.41,54.41,0,0,0,22.28-4.49,43.9,43.9,0,0,0,17.35-14v14.47h60.75V4.05ZM622.15,163.57c-16.36,0-31.13-13.45-31.13-30.74,0-17.53,11.88-31.72,31.13-31.72,20.49,0,31.06,16.32,31.06,31C653.21,148,641.88,163.57,622.15,163.57Z"/></svg>