<svg xmlns="http://www.w3.org/2000/svg" viewBox="0 0 487.32 67.36"><defs><style>.a{fill:#0dbe98;}</style></defs><path d="M200.92,66h21l3-16.64h9.92c18.32,0,28.48-9.92,28.48-28,0-12.72-8.8-20-24.24-20H212.2Zm32.8-32.56h-6.08l2.8-15.2h5.68c4.64,0,7.12,2.32,7.12,6.56C243.24,30.16,239.64,33.44,233.72,33.44Z"/><path d="M304.2,0c-22.88,0-36.56,14.8-36.56,39.68,0,17.28,10.88,27.68,29.12,27.68,22.88,0,36.56-14.8,36.56-39.68C333.4,10.32,322.52,0,304.2,0ZM298,50.64c-5.44,0-8.64-3.92-8.64-10.48a35.83,35.83,0,0,1,.72-7.12c1.6-8.48,4.32-16.24,12.88-16.24,5.44,0,8.64,3.92,8.64,10.48a35.83,35.83,0,0,1-.72,7.12C309.32,42.8,306.6,50.64,298,50.64Z"/><path d="M406.52,66h21l8.32-47.28h15.84l3-17.28H400.92l-3,17.28h16.8Z"/><path d="M371.64,25.28c-6.64-2.08-9.36-3-9.36-6.08,0-2.08,1.36-4.56,5.36-4.56A6.72,6.72,0,0,1,374,18.8l18.56-5C390.44,4.64,382.6,0,369.08,0c-25.44,0-27.44,17-27.44,22.24,0,10.56,5.6,17,17.76,20.4,3.2.88,6.88,1.84,6.88,5.36,0,2.8-2.08,4.56-5.68,4.56a8.49,8.49,0,0,1-8-5.28l-18.32,5c2,9.6,11,15,25.2,15,10.8,0,28.88-2.88,28.88-22.4.08-9.76-5.44-16.16-16.72-19.6Z"/><path class="a" d="M23.44,65.72,34.8,1.16H0V65.72Z"/><path class="a" d="M463.8,1.44,452.52,66h34.8V1.44Z"/><polygon points="169.96 46.96 187.72 46.96 190.6 30.72 172.92 30.72 174.92 18.72 199.64 18.72 202.68 1.36 156.92 1.36 145.64 66 166.68 66 169.96 46.96"/><path d="M136.86,66H90.49L101.72,1.36h21.15l-9,51.62h25.22Z"/><path d="M81.42,66.06h-47L45.36,1.36H91.64L88.91,17.6H60.73l-1.4,7.94H85L82.28,41.79H56.6l-1.41,8h29Z"/></svg>