<svg xmlns="http://www.w3.org/2000/svg" viewBox="0 0 35.04 21.75"><defs><style>.a{fill:#fff;}.b{fill:#eb0000;}</style></defs><rect x="12.48" width="9.99" height="9.99"/><rect width="9.99" height="9.99"/><rect x="25.05" width="9.99" height="9.99"/><path class="a" d="M3,7.76V2.23H6.81v1H4.26V4.44H6.1v1H4.26V6.77H6.94v1Z"/><path class="a" d="M15.14,7.76V2.23h1.21l2.32,3.53h0V2.23h1.13V7.76H18.68L16.27,4.2h0V7.76Z"/><path class="a" d="M29.43,7.76V3.25H27.79v-1H32.3v1H30.65V7.76Z"/><path class="b" d="M0,21.59V12.93H2.55L4.48,19.3h0l1.8-6.37H8.87v8.66H7V15.68H7c0,.19-.06.37-.1.53s-.07.33-.11.48-.08.31-.13.46-.09.3-.14.46l-1.29,4H3.55l-1.28-4c0-.16-.1-.31-.14-.45s-.08-.28-.12-.44-.08-.31-.12-.49-.08-.4-.12-.64h0v6Z"/><path class="b" d="M14.33,21.75a4.31,4.31,0,0,1-1.52-.27,3.7,3.7,0,0,1-1.31-.83,4.09,4.09,0,0,1-.91-1.4,5.28,5.28,0,0,1-.35-2,5.19,5.19,0,0,1,.35-2,4.24,4.24,0,0,1,.91-1.41,3.67,3.67,0,0,1,1.31-.82,4.1,4.1,0,0,1,1.52-.28,4.44,4.44,0,0,1,1,.12,4.57,4.57,0,0,1,1,.37,4.14,4.14,0,0,1,.84.62,3.6,3.6,0,0,1,.67.86,5.2,5.2,0,0,1,.43,1.13,6.52,6.52,0,0,1,0,2.78,4.93,4.93,0,0,1-.43,1.12,3.72,3.72,0,0,1-.67.88,4.09,4.09,0,0,1-.84.61,3.67,3.67,0,0,1-1,.37A4.44,4.44,0,0,1,14.33,21.75Zm0-1.54a2,2,0,0,0,.9-.2,1.94,1.94,0,0,0,.68-.6,2.68,2.68,0,0,0,.44-.93,4.58,4.58,0,0,0,.15-1.22A4.53,4.53,0,0,0,16.35,16a2.71,2.71,0,0,0-.44-.92,1.86,1.86,0,0,0-.68-.57,2.15,2.15,0,0,0-1.81,0,1.78,1.78,0,0,0-.68.57,2.71,2.71,0,0,0-.44.92,4.53,4.53,0,0,0-.15,1.22,4.58,4.58,0,0,0,.15,1.22,2.68,2.68,0,0,0,.44.93,1.86,1.86,0,0,0,.68.6A2.06,2.06,0,0,0,14.33,20.21Z"/><path class="b" d="M23.45,21.75a4.31,4.31,0,0,1-1.52-.27,3.7,3.7,0,0,1-1.31-.83,4.09,4.09,0,0,1-.91-1.4,5.28,5.28,0,0,1-.35-2,5.19,5.19,0,0,1,.35-2,4.24,4.24,0,0,1,.91-1.41,3.67,3.67,0,0,1,1.31-.82,4.1,4.1,0,0,1,1.52-.28,4.44,4.44,0,0,1,1,.12,4.57,4.57,0,0,1,1,.37,4.14,4.14,0,0,1,.84.62,3.33,3.33,0,0,1,.66.86,4.75,4.75,0,0,1,.44,1.13,6.52,6.52,0,0,1,0,2.78,4.51,4.51,0,0,1-.44,1.12,3.44,3.44,0,0,1-.66.88,4.09,4.09,0,0,1-.84.61,3.67,3.67,0,0,1-1,.37A4.44,4.44,0,0,1,23.45,21.75Zm0-1.54a1.83,1.83,0,0,0,1.58-.8,2.68,2.68,0,0,0,.44-.93,4.58,4.58,0,0,0,.15-1.22A4.53,4.53,0,0,0,25.47,16a2.71,2.71,0,0,0-.44-.92,1.94,1.94,0,0,0-.68-.57,2.15,2.15,0,0,0-1.81,0,1.89,1.89,0,0,0-.69.57,2.9,2.9,0,0,0-.43.92,4.53,4.53,0,0,0-.15,1.22,4.58,4.58,0,0,0,.15,1.22,2.86,2.86,0,0,0,.43.93,2,2,0,0,0,.69.6A2,2,0,0,0,23.45,20.21Z"/><path class="b" d="M30.51,21.59V14.53H27.93v-1.6H35v1.6H32.41v7.06Z"/></svg>