<svg xmlns="http://www.w3.org/2000/svg" xmlns:xlink="http://www.w3.org/1999/xlink" viewBox="0 0 513.9 116.25"><defs><style>.a{fill:url(#a);}.b{fill:#fff;}</style><linearGradient id="a" y1="58.13" x2="513.9" y2="58.13" gradientUnits="userSpaceOnUse"><stop offset="0" stop-color="#ec1c24"/><stop offset="1" stop-color="#b91218"/></linearGradient></defs><rect class="a" width="513.9" height="116.25"/><path class="b" d="M14.06,10.76H53.89V27H28.18v23H48.26V65.77H28.18V89.93H54.44v15.43H14.06Z"/><path class="b" d="M77.83,50.88v54.48H64.7v-95h6.07l31.55,52.34V10.76h13.13v95h-5Z"/><path class="b" d="M141.27,27H123.51V10.76H173V27H155.39v78.37H141.27Z"/><path class="b" d="M207.35,9.55h5.19L235.93,69,259.21,9.55h5.3l4.3,95.81H255l-2.1-46.83-16,41.73h-3L218.06,58.8l-2.21,46.56h-13Z"/><path class="b" d="M294.18,103.55a28.15,28.15,0,0,1-9-9.26,49.88,49.88,0,0,1-6-15.16,91.77,91.77,0,0,1-2.15-21,91.74,91.74,0,0,1,2.15-21,50.87,50.87,0,0,1,6-15.23,27.4,27.4,0,0,1,9-9.26,21.9,21.9,0,0,1,11.37-3.08A22.19,22.19,0,0,1,317,12.63a27.27,27.27,0,0,1,9.1,9.26,50.86,50.86,0,0,1,6,15.23,91.19,91.19,0,0,1,2.15,21,91.22,91.22,0,0,1-2.15,21,49.87,49.87,0,0,1-6,15.16,28,28,0,0,1-9.1,9.26,21.78,21.78,0,0,1-11.42,3.15A21.5,21.5,0,0,1,294.18,103.55Zm17.49-15.1a18.67,18.67,0,0,0,4.53-6.79A45.24,45.24,0,0,0,319,71.37a82.06,82.06,0,0,0,.94-12.91A82.15,82.15,0,0,0,319,45.55,42.72,42.72,0,0,0,316.2,35.4a18.88,18.88,0,0,0-4.53-6.66,8.94,8.94,0,0,0-6.12-2.42,8.75,8.75,0,0,0-6.07,2.42A19.19,19.19,0,0,0,295,35.4a43.18,43.18,0,0,0-2.76,10.15,83.43,83.43,0,0,0-.93,12.91,83.33,83.33,0,0,0,.93,12.91A45.74,45.74,0,0,0,295,81.66a19,19,0,0,0,4.47,6.79,8.75,8.75,0,0,0,6.07,2.42A8.94,8.94,0,0,0,311.67,88.45Z"/><path class="b" d="M359,103.55a28.08,28.08,0,0,1-9.05-9.26,49.87,49.87,0,0,1-6-15.16,91.22,91.22,0,0,1-2.15-21,91.19,91.19,0,0,1,2.15-21,50.86,50.86,0,0,1,6-15.23A27.33,27.33,0,0,1,359,12.63a21.84,21.84,0,0,1,11.36-3.08,22.16,22.16,0,0,1,11.42,3.08,27.18,27.18,0,0,1,9.1,9.26,50.87,50.87,0,0,1,6,15.23,91.74,91.74,0,0,1,2.15,21,91.77,91.77,0,0,1-2.15,21,49.88,49.88,0,0,1-6,15.16,27.91,27.91,0,0,1-9.1,9.26,21.75,21.75,0,0,1-11.42,3.15A21.44,21.44,0,0,1,359,103.55Zm17.49-15.1A18.66,18.66,0,0,0,381,81.66a45.74,45.74,0,0,0,2.76-10.29,83.28,83.28,0,0,0,.94-12.91,83.37,83.37,0,0,0-.94-12.91A43.18,43.18,0,0,0,381,35.4a18.86,18.86,0,0,0-4.52-6.66,9,9,0,0,0-6.13-2.42,8.76,8.76,0,0,0-6.07,2.42,19.17,19.17,0,0,0-4.46,6.66A42.23,42.23,0,0,0,357,45.55a82.15,82.15,0,0,0-.94,12.91A82.06,82.06,0,0,0,357,71.37a44.71,44.71,0,0,0,2.76,10.29,19,19,0,0,0,4.46,6.79,8.76,8.76,0,0,0,6.07,2.42A9,9,0,0,0,376.44,88.45Z"/><path class="b" d="M418.53,27H400.76V10.76H450.3V27H432.65v78.37H418.53Z"/><path class="b" d="M461.83,104.42a37,37,0,0,1-9.21-4L457,85.77a47.9,47.9,0,0,0,7.83,3.29,32.52,32.52,0,0,0,10.49,1.67q10.36,0,10.37-9.39a10.61,10.61,0,0,0-1-4.56A17.52,17.52,0,0,0,482,72.62a46.4,46.4,0,0,0-4-4q-2.26-2-4.69-4-3.19-2.68-6.46-5.71A42.94,42.94,0,0,1,461,52.22a35,35,0,0,1-4.25-7.92A27.11,27.11,0,0,1,455,34.51,31.22,31.22,0,0,1,456.92,23,20.55,20.55,0,0,1,462,15.32a18.7,18.7,0,0,1,7.55-4.23,32.71,32.71,0,0,1,9.22-1.27,42.53,42.53,0,0,1,11.08,1.27,25.8,25.8,0,0,1,6.57,2.48l-4.08,15.3a34.09,34.09,0,0,0-6.73-2.15,35.72,35.72,0,0,0-7.4-.8q-9,0-9,8.18a10.38,10.38,0,0,0,1,4.57A20,20,0,0,0,473,42.83a40.57,40.57,0,0,0,4,4c1.5,1.35,3.1,2.73,4.79,4.16q3.21,2.68,6.4,5.64a42.88,42.88,0,0,1,5.8,6.57,35.22,35.22,0,0,1,4.24,8,27.1,27.1,0,0,1,1.66,9.73q0,12.07-6.23,18.65t-19.26,6.57A42.62,42.62,0,0,1,461.83,104.42Z"/><path class="b" d="M501.45,99.17a5.07,5.07,0,0,1,2,.4,5.19,5.19,0,0,1,1.62,1.09,5,5,0,0,1,1.09,1.62,5,5,0,0,1,0,4,5.18,5.18,0,0,1-2.71,2.71,5.13,5.13,0,0,1-4,0,5.05,5.05,0,0,1-1.62-1.1,5.26,5.26,0,0,1-1.09-1.61,5.13,5.13,0,0,1,0-4,5.09,5.09,0,0,1,2.71-2.71A5.09,5.09,0,0,1,501.45,99.17Zm0,1.14a3.55,3.55,0,0,0-1.49.31,3.88,3.88,0,0,0-1.22.85,3.79,3.79,0,0,0-.81,1.26,3.94,3.94,0,0,0-.3,1.53,4,4,0,0,0,.3,1.55,3.74,3.74,0,0,0,.81,1.25,3.88,3.88,0,0,0,1.22.85,3.74,3.74,0,0,0,3,0,3.84,3.84,0,0,0,1.21-.85,3.93,3.93,0,0,0,.82-1.25,4.19,4.19,0,0,0,.29-1.55,4.12,4.12,0,0,0-.29-1.53,4,4,0,0,0-.82-1.26,3.84,3.84,0,0,0-1.21-.85A3.55,3.55,0,0,0,501.45,100.31Zm1.12,6.85-.82-1.87a1,1,0,0,0-.32-.39.84.84,0,0,0-.49-.14h-.22v2.4h-1.13v-5.8h1.74a3,3,0,0,1,1.57.36,1.35,1.35,0,0,1,.58,1.25,1.3,1.3,0,0,1-.37,1,1.61,1.61,0,0,1-.91.45.69.69,0,0,1,.38.24,2.34,2.34,0,0,1,.37.57l.92,1.94Zm-.25-4.08a.69.69,0,0,0-.28-.62,1.48,1.48,0,0,0-.82-.19h-.5v1.63h.46a1.51,1.51,0,0,0,.82-.2A.7.7,0,0,0,502.32,103.08Z"/></svg>