<svg xmlns="http://www.w3.org/2000/svg" viewBox="0 0 485.41 208.65"><defs><style>.a{fill:#cd201f;}.b{fill:#fff;}</style></defs><path d="M53.46,54.28H19.78V89.52H44.06v18.41H19.78v40.14H53.46v18.4H0V35.87H53.46Z"/><path d="M84.78,69.16v13.9q4.5-8,9.4-11.46a22.28,22.28,0,0,1,11.75-3.81V87.17a25.12,25.12,0,0,0-3.23-.78,18.88,18.88,0,0,0-2.84-.2q-15.08,0-15.08,21.35v58.93H67V69.16Z"/><path class="a" d="M482.44,45s-2.91-20.44-11.85-29.44C459.26,3.75,446.56,3.69,440.73,3,399,0,336.48,0,336.48,0h-.13S273.8,0,232.1,3c-5.83.69-18.53.75-29.86,12.57C193.3,24.57,190.4,45,190.4,45a445.28,445.28,0,0,0-3,48v22.51a445,445,0,0,0,3,48S193.3,184,202.24,193c11.33,11.82,26.23,11.44,32.86,12.68,23.84,2.28,101.31,3,101.31,3s62.62-.1,104.32-3.09c5.83-.7,18.53-.75,29.86-12.57,8.93-9,11.84-29.45,11.84-29.45a446.51,446.51,0,0,0,3-48V93a446.75,446.75,0,0,0-3-48"/><path d="M172,168.85h-19v-11c-7.19,8.24-13.29,12.4-19.93,12.4-5.82,0-9.87-2.74-11.9-7.71-1.23-3-2.1-7.74-2.1-14.67V68.06h19v81.83c.44,2.8,1.63,3.82,4,3.82,3.63,0,6.91-3.15,10.93-8.81V68.06h19V168.85Z"/><path class="b" d="M424.52,96c0-9.33,2.55-11.87,8.59-11.87s8.37,2.77,8.37,12V107l-17,0Zm36,26v-20.4c0-10.66-2.1-18.46-5.88-23.5-5.06-6.83-12.25-10.44-21.31-10.44-9.23,0-16.42,3.61-21.65,10.44-3.84,5-6.07,13.28-6.07,23.94v34.93c0,10.59,2.46,18,6.29,23,5.23,6.81,12.42,10.22,21.87,10.22s16.86-3.57,21.85-10.81a25.71,25.71,0,0,0,4.23-10.83,114.32,114.32,0,0,0,.64-11.75v-2.83h-19c0,7.25,0,11.56-.13,12.54-1,4.84-3.63,7.25-8.07,7.25-6.21,0-8.83-4.63-8.76-13.84V122Zm-85.86,18c0,10-2.36,13.81-7.57,13.81-3,0-6.4-1.53-9.42-4.56l0-60.52c3-3,6.43-4.55,9.4-4.55,5.21,0,7.57,2.93,7.57,12.91v42.91Zm2.1-72.45c-6.65,0-13.25,4.08-19.09,11.27l0-43.61h-18V168.85h18l0-10c6,7.47,12.62,11.34,19,11.34,7.19,0,12.45-3.85,14.86-11.27,1.21-4.23,2-10.73,2-20V99c0-9.45-1.21-15.91-2.42-19.92-2.41-7.47-7.25-11.62-14.44-11.62m-52,101.39h-19v-11c-7.2,8.24-13.29,12.4-19.93,12.4-5.83,0-9.88-2.74-11.9-7.71-1.23-3-2.11-7.74-2.11-14.67V69.06h19v80.83c.45,2.8,1.64,3.82,4,3.82,3.63,0,6.91-3.15,10.93-8.81V69.06h19v99.79Z"/><path class="b" d="M252.87,168.85h-20V54.08H212V35.15l62.86,0v19H252.87Z"/></svg>