<svg xmlns="http://www.w3.org/2000/svg" viewBox="0 0 553 263.09"><defs><style>.a{fill:#ee2824;}</style></defs><path class="a" d="M0,73.21C.87,31.08,34.21-.8,76.57,0,116.06.77,149,35.18,148.18,74.85c-.85,41.93-34.34,74.2-76.17,73.37C31.76,147.43-.8,113.5,0,73.21ZM70.76,30.29c-1.7.11-3.42.12-5.1.37C38.94,34.6,20,49.67,6.28,72.22a4,4,0,0,0,.24,3.32,84.67,84.67,0,0,0,22.55,26.24c23.16,17.51,48.23,21.59,75,9.45,16.52-7.48,28.5-20.12,37.52-35.64a4.6,4.6,0,0,0-.1-3.92,97.19,97.19,0,0,0-7.45-11C117.81,40.52,97.06,29.6,70.76,30.29Z"/><path class="a" d="M37.62,74.42C37,55.15,53.26,38.14,72.73,37.62c20.06-.54,37.36,15.39,37.82,34.84.5,21.16-15,37.56-36.19,38.16C54.6,111.19,38.25,95.07,37.62,74.42Z"/><path d="M155.58,144.58v-4.07h19.19V12.39H156V8.32H278.85q-.39,5.24-.48,10.18t-.1,10.17q0,10.86.58,21.32H275q-3.89-12.6-9.21-20.06a37.22,37.22,0,0,0-12.5-11.34,46.34,46.34,0,0,0-16.19-5,160.41,160.41,0,0,0-20.25-1.16H202.48V71.51a98.25,98.25,0,0,0,18.42-1.45,31.85,31.85,0,0,0,12.21-4.85A22.65,22.65,0,0,0,240.67,56a58.86,58.86,0,0,0,4.26-14.54h3.69q-.78,9.32-1.17,17.16c-.26,5.23-.38,10.44-.38,15.6s.12,10.28.38,15.32.65,10.34,1.17,15.89l-4.27.19a55.49,55.49,0,0,0-4-13.86,23.9,23.9,0,0,0-7.37-9.3,31.18,31.18,0,0,0-12.11-5.23,86.15,86.15,0,0,0-18.42-1.65v64.93h13.38q8.32,0,14.63-.48a99,99,0,0,0,11.25-1.45,38.62,38.62,0,0,0,16.37-7.18,41.85,41.85,0,0,0,12.31-13.08,55.32,55.32,0,0,0,6.3-18.32h3.49q0,11.06.1,22.2t.87,22.38Z"/><path d="M405.23,12.39,371.7,73.55v67h21.51v4.07H323.63v-4.07h20.93v-59l-43.8-69.09H284.09V8.32h64.54v4.07H332.54l36.25,57.76L400,12.39H380.42V8.32h42.45v4.07Z"/><path d="M424.81,144.58v-4.07H444V12.39H425.2V8.32H548.09q-.39,5.24-.49,10.18t-.09,10.17q0,10.86.58,21.32h-3.88q-3.87-12.6-9.21-20.06a37.12,37.12,0,0,0-12.5-11.34,46.28,46.28,0,0,0-16.18-5,160.57,160.57,0,0,0-20.26-1.16H471.72V71.51a98.21,98.21,0,0,0,18.41-1.45,31.85,31.85,0,0,0,12.21-4.85A22.65,22.65,0,0,0,509.9,56a59.27,59.27,0,0,0,4.27-14.54h3.68q-.78,9.32-1.16,17.16c-.26,5.23-.39,10.44-.39,15.6s.13,10.28.39,15.32.64,10.34,1.16,15.89l-4.27.19a55.07,55.07,0,0,0-4-13.86,23.87,23.87,0,0,0-7.36-9.3,31.23,31.23,0,0,0-12.12-5.23,86.12,86.12,0,0,0-18.41-1.65v64.93h13.37q8.34,0,14.64-.48A99.05,99.05,0,0,0,511,138.58a41,41,0,0,0,8.82-2.72,41.47,41.47,0,0,0,7.56-4.46,42.08,42.08,0,0,0,12.31-13.08A55.78,55.78,0,0,0,546,100h3.48q0,11.06.1,22.2t.87,22.38Z"/><path d="M139.15,232.12A31.71,31.71,0,0,1,130.62,254a28.35,28.35,0,0,1-9.25,6.56A28,28,0,0,1,109.89,263c-1.75,0-3.24,0-4.46-.13a16.57,16.57,0,0,1-4-.86c-1.45-.48-3.15-1.16-5.12-2s-4.53-2.1-7.68-3.67a37.27,37.27,0,0,0-4.13-1.84,7.92,7.92,0,0,0-2.43-.53,3,3,0,0,0-2.75,1.65,14.71,14.71,0,0,0-1.18,5.83H75.25q.25-4.06.39-8.2t.13-8.33q0-4.59-.13-9c-.09-3-.22-6-.39-9.06h2.62q3,15.62,11.62,24.54a27.78,27.78,0,0,0,20.79,8.92,23.71,23.71,0,0,0,8.14-1.38A20.17,20.17,0,0,0,125,255a18.89,18.89,0,0,0,4.47-5.85,16.1,16.1,0,0,0,1.64-7.16,14.36,14.36,0,0,0-1.05-6,10,10,0,0,0-4.14-4.08,52,52,0,0,0-8.79-3.88q-5.7-2-15-5.45-5.39-2-10.17-4.2a33.23,33.23,0,0,1-8.4-5.52,23.44,23.44,0,0,1-5.71-8.08,29.31,29.31,0,0,1-2.1-11.76,24.46,24.46,0,0,1,2-9.92,25.25,25.25,0,0,1,5.51-8.08,27,27,0,0,1,8.07-5.46,24,24,0,0,1,9.84-2,36.71,36.71,0,0,1,15,3.68c1.57.79,2.82,1.4,3.74,1.83s1.66.77,2.23,1a6.18,6.18,0,0,0,1.31.39,7.2,7.2,0,0,0,1.12.07,2.44,2.44,0,0,0,2.42-1.18,19.89,19.89,0,0,0,1.25-4.2h2.62q-.25,3.68-.39,7.28t-.13,7.28q0,3.68.13,7.22t.39,7.22h-2.62a42.07,42.07,0,0,0-3.48-11.22,31.28,31.28,0,0,0-6-8.66,26.16,26.16,0,0,0-8.14-5.58,24,24,0,0,0-9.64-2q-7.62,0-12.53,4.2a13.38,13.38,0,0,0-4.92,10.63,8.62,8.62,0,0,0,2.55,6.1,27.63,27.63,0,0,0,6.7,5,69.27,69.27,0,0,0,9.38,4.26q5.25,2,10.63,3.94,5.11,1.83,9.84,4A35.52,35.52,0,0,1,131,214a24.68,24.68,0,0,1,5.9,7.47A23,23,0,0,1,139.15,232.12Z"/><path d="M177.07,260.47v-2.76h11.15l-10.49-28.34H153.06l-8.53,28.34H158.7v2.76H129.57v-2.76h11.81l27.29-90.93h4.73l33.85,90.93h11.29v2.76Zm-13.25-68.11L154,226.09h22.44Z"/><path d="M290.18,171v63.9A33,33,0,0,1,288,247.74a21.62,21.62,0,0,1-6.3,8.53,26,26,0,0,1-9.78,4.79,50.32,50.32,0,0,1-12.79,1.51,52.82,52.82,0,0,1-14.63-1.91,30.5,30.5,0,0,1-11.35-5.84,26.55,26.55,0,0,1-7.35-9.9,34.84,34.84,0,0,1-2.62-14.11V171H210.27v-2.76h44.09V171H242v67.18q0,11,4.66,15.88T262,258.89a32.52,32.52,0,0,0,10.23-1.51,21.13,21.13,0,0,0,7.87-4.52,20.58,20.58,0,0,0,5.12-7.55A28.24,28.24,0,0,0,287,234.62V171H272.59v-2.76h31.1V171Z"/><path d="M385.7,261a30.77,30.77,0,0,1-3.28.13,38.52,38.52,0,0,1-11.09-1.51,27.39,27.39,0,0,1-8.72-4.26,19.91,19.91,0,0,1-5.71-6.56,17.5,17.5,0,0,1-2-8.4c0-2.54.08-4.79.26-6.76s.26-3.91.26-5.84a25.43,25.43,0,0,0-.92-7.41,9.24,9.24,0,0,0-3.21-4.72,14,14,0,0,0-6-2.5,50.85,50.85,0,0,0-9.38-.72h-9.18v45.27H340v2.76H295.43v-2.76h12.46V171H295.43v-2.76h42.9A83.37,83.37,0,0,1,353,169.4a36.4,36.4,0,0,1,11.35,3.81A19.29,19.29,0,0,1,371.6,180a19.66,19.66,0,0,1,2.56,10.37,19.16,19.16,0,0,1-1.45,7.74,15,15,0,0,1-4.59,5.77A26.16,26.16,0,0,1,360,208a71.79,71.79,0,0,1-12.2,2.69A75.87,75.87,0,0,1,360.31,213a23.64,23.64,0,0,1,8.14,3.86,13.71,13.71,0,0,1,4.46,6.15,25.88,25.88,0,0,1,1.38,9c0,.35,0,.94-.07,1.77s-.09,1.81-.13,2.94S374,239,374,240.31s-.07,2.53-.07,3.66q0,7.86,2.36,10.93c1.58,2,4.33,3.07,8.27,3.07a14.84,14.84,0,0,0,2-.13c.66-.08,1.51-.22,2.56-.39v2.75A21.51,21.51,0,0,1,385.7,261Zm-30.31-69.41q0-9.59-5.38-15.09T335.32,171h-8.66V209h6.42q12.21,0,17.26-4.46T355.39,191.58Z"/><path d="M463.77,215.46a53.41,53.41,0,0,1-3.28,19,47.71,47.71,0,0,1-8.92,15.09,40.58,40.58,0,0,1-13.38,10,39.83,39.83,0,0,1-33.14,0,40.82,40.82,0,0,1-13.31-10,47.73,47.73,0,0,1-8.93-15.09,53.63,53.63,0,0,1-3.28-19,55.28,55.28,0,0,1,3.28-19.16,49,49,0,0,1,8.93-15.42,41.6,41.6,0,0,1,13.31-10.23,37.44,37.44,0,0,1,16.6-3.74,38.43,38.43,0,0,1,16.93,3.74A40.35,40.35,0,0,1,451.9,181a48.65,48.65,0,0,1,8.73,15.42A56.8,56.8,0,0,1,463.77,215.46Zm-19,0a167.67,167.67,0,0,0-1.18-21.72q-1.19-8.72-3.94-14a16.41,16.41,0,0,0-7.15-7.42,24.42,24.42,0,0,0-10.83-2.16,23.18,23.18,0,0,0-10.82,2.3,17.08,17.08,0,0,0-7.15,7.54q-2.76,5.25-3.94,14a163.41,163.41,0,0,0-1.18,21.46,152.61,152.61,0,0,0,1.18,20.67,42.33,42.33,0,0,0,3.94,13.71,17.53,17.53,0,0,0,7.15,7.61,26,26,0,0,0,21.65,0,17.59,17.59,0,0,0,7.15-7.61,42.33,42.33,0,0,0,3.94-13.71A154.26,154.26,0,0,0,444.75,215.46Z"/><path d="M539.62,171V262.7h-3.28l-62.86-87.92v82.93h14.31v2.76h-31v-2.76h13.51V171H456.82v-2.76H491.2l45.27,63.12V171h-14.3v-2.76H553V171Z"/><path d="M32,179.48a19.46,19.46,0,0,1-1.19,6.88,17.58,17.58,0,0,1-3.24,5.47,14.8,14.8,0,0,1-4.85,3.62,14,14,0,0,1-6,1.3,14,14,0,0,1-6-1.3,15,15,0,0,1-4.83-3.62,17.37,17.37,0,0,1-3.23-5.47,19.24,19.24,0,0,1-1.19-6.88,19.77,19.77,0,0,1,1.19-6.94,17.8,17.8,0,0,1,3.23-5.6,15.31,15.31,0,0,1,4.83-3.71,13.62,13.62,0,0,1,6-1.35,14,14,0,0,1,6.14,1.35A14.69,14.69,0,0,1,27.67,167a17.55,17.55,0,0,1,3.16,5.59A20.55,20.55,0,0,1,32,179.48Zm-6.9,0a61.16,61.16,0,0,0-.43-7.87,15.54,15.54,0,0,0-1.43-5.07,6,6,0,0,0-2.59-2.69,8.91,8.91,0,0,0-3.93-.78,8.33,8.33,0,0,0-3.92.83,6.21,6.21,0,0,0-2.6,2.73,15.79,15.79,0,0,0-1.43,5.07,60.63,60.63,0,0,0-.42,7.78,56.64,56.64,0,0,0,.42,7.5,15.66,15.66,0,0,0,1.43,5,6.35,6.35,0,0,0,2.6,2.76,8.2,8.2,0,0,0,3.92.86,8.24,8.24,0,0,0,3.93-.86A6.38,6.38,0,0,0,23.22,192a15.4,15.4,0,0,0,1.43-5A56.45,56.45,0,0,0,25.08,179.48Z"/><path d="M44.3,177.91a15.74,15.74,0,0,0,3.5-.35,6.93,6.93,0,0,0,2.59-1.19,6.44,6.44,0,0,0,1.81-2.26,13.46,13.46,0,0,0,1.09-3.57h.91c-.13,1.52-.23,2.92-.29,4.21s-.09,2.55-.09,3.8,0,2.5.09,3.74.16,2.54.29,3.9l-1.05.05c-.44-2.7-1.37-4.58-2.78-5.66a10.05,10.05,0,0,0-6.07-1.67V194.8h4.52v1H33v-1l4.53,0V163.35H32.93v-1H62c-.06.92-.09,1.72-.09,2.38v2.05c0,.79,0,1.64,0,2.54s.06,2,.12,3.41h-.9a19.41,19.41,0,0,0-1.65-4.31,8.83,8.83,0,0,0-2.45-2.9,9.51,9.51,0,0,0-3.45-1.64,17.87,17.87,0,0,0-4.59-.53H44.3Z"/></svg>