<svg xmlns="http://www.w3.org/2000/svg" viewBox="0 0 521.69 312.56"><defs><style>.a{fill:#ee2824;}</style></defs><path class="a" d="M0,73.21C.87,31.08,34.21-.8,76.57,0,116.06.77,149,35.18,148.18,74.85c-.85,41.93-34.34,74.2-76.17,73.37C31.76,147.43-.8,113.5,0,73.21ZM70.76,30.29c-1.7.11-3.42.12-5.1.37C38.94,34.6,20,49.67,6.28,72.22a4,4,0,0,0,.24,3.32,84.67,84.67,0,0,0,22.55,26.24c23.16,17.51,48.23,21.59,75,9.45,16.52-7.48,28.5-20.12,37.52-35.64a4.6,4.6,0,0,0-.1-3.92,97.19,97.19,0,0,0-7.45-11C117.81,40.52,97.06,29.6,70.76,30.29Z"/><path class="a" d="M37.62,74.42C37,55.15,53.26,38.14,72.73,37.62c20.06-.54,37.36,15.39,37.82,34.84.5,21.16-15,37.56-36.19,38.16C54.6,111.19,38.25,95.07,37.62,74.42Z"/><path d="M154.19,133.1v-3.77h17.75V10.75h-17.4V7H268.28c-.25,3.23-.39,6.36-.45,9.41s-.09,6.19-.09,9.42q0,10.05.54,19.73h-3.59Q261.09,33.9,256.17,27a34.48,34.48,0,0,0-11.57-10.5,42.83,42.83,0,0,0-15-4.66,147,147,0,0,0-18.75-1.08H197.6V65.47a89.92,89.92,0,0,0,17-1.35,29.57,29.57,0,0,0,11.3-4.48,21.06,21.06,0,0,0,7-8.52,55.22,55.22,0,0,0,3.94-13.46h3.41q-.72,8.61-1.08,15.88T238.86,68q0,7.17.35,14.17t1.08,14.71l-3.95.18a51.16,51.16,0,0,0-3.67-12.83,22.27,22.27,0,0,0-6.82-8.61,28.93,28.93,0,0,0-11.21-4.84,79.62,79.62,0,0,0-17-1.53v60.1H210q7.72,0,13.55-.45a90.46,90.46,0,0,0,10.4-1.35,36.74,36.74,0,0,0,8.16-2.51,37.82,37.82,0,0,0,7-4.12,39.05,39.05,0,0,0,11.39-12.11,51.16,51.16,0,0,0,5.83-17h3.23q0,10.22.09,20.54t.81,20.72Z"/><path d="M385.23,10.75l-31,56.6v62h19.91v3.77h-64.4v-3.77h19.37V74.7L288.54,10.75H273.12V7h59.73v3.76H318l33.55,53.46,28.88-53.46H362.27V7h39.29v3.76Z"/><path d="M403.35,133.1v-3.77h17.76V10.75h-17.4V7H517.44c-.24,3.23-.39,6.36-.45,9.41s-.09,6.19-.09,9.42q0,10.05.54,19.73h-3.59Q510.27,33.9,505.33,27a34.48,34.48,0,0,0-11.57-10.5,42.76,42.76,0,0,0-15-4.66A147,147,0,0,0,460,10.75H446.76V65.47a89.77,89.77,0,0,0,17-1.35,29.62,29.62,0,0,0,11.31-4.48,21.12,21.12,0,0,0,7-8.52,55.2,55.2,0,0,0,3.95-13.46h3.41q-.72,8.61-1.08,15.88T488,68q0,7.17.36,14.17t1.08,14.71l-3.95.18a51.15,51.15,0,0,0-3.68-12.83A22.24,22.24,0,0,0,475,75.6a29,29,0,0,0-11.22-4.84,79.49,79.49,0,0,0-17-1.53v60.1h12.38q7.71,0,13.54-.45a90.36,90.36,0,0,0,10.41-1.35,36.74,36.74,0,0,0,8.16-2.51,38.48,38.48,0,0,0,7-4.12,39.05,39.05,0,0,0,11.39-12.11,51.39,51.39,0,0,0,5.83-17h3.23q0,10.22.09,20.54t.8,20.72Z"/><path d="M128.8,176.57V311.79H124L31.31,182.18V304.44H52.39v4.06H6.74v-4.06H26.66V176.57H6.74v-4.06H57.42l66.74,93v-89H103.08v-4.06h45.46v4.06Z"/><path d="M140.21,308.5v-4.06h19.16V176.57H140.6v-4.06H263.25q-.39,5.22-.49,10.15t-.09,10.16q0,10.83.58,21.28h-3.87q-3.87-12.57-9.19-20a37.06,37.06,0,0,0-12.48-11.31,45.91,45.91,0,0,0-16.15-5,158.06,158.06,0,0,0-20.22-1.16H187v59a97.1,97.1,0,0,0,18.38-1.45,31.7,31.7,0,0,0,12.18-4.84,22.57,22.57,0,0,0,7.55-9.19,59.09,59.09,0,0,0,4.25-14.5h3.68q-.78,9.28-1.16,17.12t-.39,15.57q0,7.74.39,15.28t1.16,15.86l-4.26.2a55.22,55.22,0,0,0-4-13.84,23.86,23.86,0,0,0-7.35-9.28,30.93,30.93,0,0,0-12.09-5.22A85.88,85.88,0,0,0,187,239.63v64.81h13.35q8.31,0,14.6-.49a96.16,96.16,0,0,0,11.22-1.45,40.09,40.09,0,0,0,8.8-2.71,41.51,41.51,0,0,0,7.55-4.44,42,42,0,0,0,12.28-13.06A55.47,55.47,0,0,0,261.12,264h3.48q0,11,.1,22.15t.87,22.34Z"/><path d="M424.58,176.57,387.25,309.85l-7.94,2.71L347,215.06l-26.7,94.41-7.74,2.32L267.31,176.57h-13v-4.06h52.42v4.06H293l32.88,96.14,18.57-65.19-10.06-31H318.77v-4.06h57.45v4.06H360.74l32.5,97.69,26.7-97.69H401v-4.06h38.69v4.06Z"/><path d="M521.69,266.71a46.51,46.51,0,0,1-3.39,17.9A47,47,0,0,1,509.12,299a41.7,41.7,0,0,1-13.64,9.67,41.27,41.27,0,0,1-16.93,3.49q-3.87,0-6.58-.2a24.37,24.37,0,0,1-5.9-1.26c-2.12-.71-4.64-1.71-7.54-3s-6.67-3.1-11.32-5.42a56.57,56.57,0,0,0-6.09-2.71,11.77,11.77,0,0,0-3.58-.77,4.36,4.36,0,0,0-4.06,2.42q-1.37,2.42-1.74,8.6h-4.26q.39-6,.58-12.09t.19-12.28q0-6.76-.19-13.35t-.58-13.35h3.87q4.44,23,17.12,36.18a41,41,0,0,0,30.66,13.15,34.88,34.88,0,0,0,12-2,30.15,30.15,0,0,0,9.76-5.71,27.54,27.54,0,0,0,6.58-8.63,23.71,23.71,0,0,0,2.42-10.56,21.22,21.22,0,0,0-1.55-8.9q-1.54-3.3-6.09-6a76.76,76.76,0,0,0-13-5.72q-8.42-3-22.15-8-7.93-2.89-15-6.19a49.17,49.17,0,0,1-12.39-8.14,34.73,34.73,0,0,1-8.41-11.91q-3.09-7.08-3.1-17.34a36.2,36.2,0,0,1,3-14.63,37.6,37.6,0,0,1,8.13-11.91,39.65,39.65,0,0,1,11.9-8,35.36,35.36,0,0,1,14.5-3q10.07,0,22.06,5.42c2.32,1.16,4.16,2.07,5.51,2.71s2.45,1.13,3.29,1.45a9.65,9.65,0,0,0,1.93.58,11,11,0,0,0,1.65.1c1.8,0,3-.58,3.58-1.74a29.51,29.51,0,0,0,1.83-6.19h3.87q-.39,5.42-.58,10.73t-.19,10.74q0,5.42.19,10.64t.58,10.64h-3.87a62.13,62.13,0,0,0-5.12-16.54,46.46,46.46,0,0,0-8.9-12.77,38.81,38.81,0,0,0-12-8.22A35.19,35.19,0,0,0,465.4,176q-11.22,0-18.48,6.19a19.73,19.73,0,0,0-7.25,15.67,12.71,12.71,0,0,0,3.77,9,40.58,40.58,0,0,0,9.87,7.35,101.76,101.76,0,0,0,13.83,6.29q7.73,2.9,15.67,5.8,7.54,2.72,14.51,5.9A52.67,52.67,0,0,1,509.7,240a36.26,36.26,0,0,1,8.7,11Q521.69,257.43,521.69,266.71Z"/></svg>