<svg xmlns="http://www.w3.org/2000/svg" viewBox="0 0 106.59 81.16"><defs><style>.a{fill:#37abc8;}</style></defs><path class="a" d="M81.92,60.77V80.7H92.56V71.83c0-4.88,0-8.84.08-8.78s.28,1.42.53,3.07.72,4.29,1.06,5.86c.92,4.38,1.82,8.65,1.82,8.69s2.37,0,5.27,0c4.3,0,5.27,0,5.27-.12a13.44,13.44,0,0,0-.52-1.87l-.24-.76-.77,0c-1.21,0-1.48,0-1.55-.14a.53.53,0,0,1,.21-.4,1.94,1.94,0,0,0,.39-.79c.22-.94.37-.87-1.58-.84-1.75,0-2.15,0-2.15-.32A6.13,6.13,0,0,1,102,74.1c.12,0,.22-.1.22-.16a8.3,8.3,0,0,0-2.58-.52,5.91,5.91,0,0,1-.88-.18c-.24-.09-.23-.09.36-.52.33-.22,1-.62,1.5-.88,1.12-.57,1.18-.7.31-.86-.71-.13-2.89-.59-3.46-.73l-.35-.1.26-.28a4.71,4.71,0,0,1,.7-.51c.9-.5,1.5-.93,1.5-1.08s-.35-.28-1.65-.7c-1.09-.34-1.63-.55-1.57-.61s.8-.53,1.68-1.06A9.7,9.7,0,0,0,99.7,64.8c0-.12-.09-.17-.61-.22a18.59,18.59,0,0,1-2.65-.45s0-.15.18-.26c1.94-1.57,2.07-1.71,1.76-1.94-.09-.07-1.61-.68-2.68-1.09-.07,0-.13-.08-.13-.12A10,10,0,0,1,97.83,60c.45-.1,1.14-.3,1.54-.42.7-.23.73-.26.73-.52s-.17-.44-1-1.28l-1-1,1.23-.63c1.09-.57,1.23-.66,1.33-1s.13-.34-.76-.87l-.51-.3.94-.29c.5-.15.94-.3,1-.31s4.45-12.41,4.45-12.49-2-.09-5.25-.09H95.14l-.36,1.56c-.19.86-.52,2.22-.73,3a33.6,33.6,0,0,0-.93,4.81,24.05,24.05,0,0,1-.47,2.54c-.06.06-.09-2.06-.09-5.92v-6H81.92Z"/><path class="a" d="M8.46,30.32c0,.85.1,1,.95,1a4.21,4.21,0,0,0,1-.09V16.08h7.21V37.72a51.34,51.34,0,0,1-7.64.47C2.29,38.19.83,37,.83,30.32V7.83C.83,1,2.29,0,9.36,0c6.7,0,8.25.9,8.25,7.83v3.39H10.26V7.83c0-.8-.1-1-.9-1s-.9.24-.9,1Z"/><path class="a" d="M37.89,30.32c0,6.93-1.51,7.87-8.58,7.87s-8.54-.94-8.54-7.87V7.83C20.77.94,22.24,0,29.31,0s8.58.94,8.58,7.83Zm-9.48,0c0,.8.1,1,.9,1s.89-.23.89-1V7.83c0-.8-.09-1-.89-1s-.9.24-.9,1Z"/><path class="a" d="M55.1,16.13c1.84.47,3.25,1.69,3.25,6.41v7.54c0,6.65-1.51,7.64-8.58,7.64H41.24V.47h8.53c7.07,0,8.58.94,8.58,7.59v2.78c0,3.92-2,4.86-3.25,5.1Zm-6.22-3h.89c.8,0,.9-.24.9-1V8.06c0-.8-.1-1-.9-1h-.89Zm0,18h.89c.8,0,.9-.24.9-1V20.13c0-.8-.1-1-.9-1h-.89Z"/><path class="a" d="M73.68,37.72H61.61V.47h7.64V31.12h4.43Z"/><path class="a" d="M83.72,37.72H76.09V.47h7.63Z"/><path class="a" d="M105.51,37.72H97.59l-3.49-18h-.19v18H87.59V.47H95.8L99,19.33h.18V.47h6.37Z"/><path class="a" d="M8.15,52.83c0,1.31.35,1.76,1.91,2.67a59,59,0,0,1,5.08,3.12c2.92,2.11,3.12,3.57,3.12,7.69v6.44c0,7.35-1.61,8.41-9.15,8.41C2,81.16.2,80.2.2,72.75V64.86h8v7.89c0,.86.1,1.11,1,1.11s1-.25,1-1.11V65.61c0-1-.3-1.41-1.46-2.06a52.83,52.83,0,0,1-6.13-3.78C.25,58,0,56.4,0,52.68V48.76c0-7.35,1.56-8.35,9-8.35s9,1,9,8.35v5h-8v-5c0-.86-.1-1.11-1-1.11s-1,.25-1,1.11Z"/><path class="a" d="M35.87,47.65H32v33h-8.2v-33H19.92V40.91H35.87Z"/><path class="a" d="M55.74,48.76V80.65h-8.2v-7.9H45.63v7.9h-7.9V48.76c0-7.35,1.66-8.35,9-8.35S55.74,41.41,55.74,48.76ZM45.63,66.06h1.91V48.76c0-.86-.1-1.11-1-1.11s-.95.25-.95,1.11Z"/><path class="a" d="M78.52,80.65H70.07L66.35,61.49h-.2V80.65H59.41V40.91h8.75L71.53,61h.2V40.91h6.79Z"/></svg>