<svg xmlns="http://www.w3.org/2000/svg" viewBox="0 0 585.68 229.3"><defs><style>.a{fill:#fff;}.b{fill:#005E9D;}</style></defs><rect class="a" width="585.68" height="229.28"/><path class="b" d="M143.51,16.77h11v18H162v-18h11V64H162V43.65h-7.47V64h-11Z"/><path class="b" d="M179.9,40.4c0-17.5,6.58-24.21,16-24.21s15.9,6.71,15.9,24.21-6.58,24.14-15.9,24.14S179.9,57.89,179.9,40.4Zm20.76,0c0-10.16-1.15-14.5-4.79-14.5S191,30.24,191,40.4s1.15,14.75,4.85,14.75S200.66,50.55,200.66,40.4Z"/><path class="b" d="M218.73,16.77H232.2c6.9,0,13.86,2.23,13.86,11.81,0,7.35-3.06,9.9-6.58,10.92v.13c4.22,1.09,7.48,3.58,7.48,11.5,0,9.7-6.9,12.89-14.18,12.89H218.73Zm13.15,19.35c2.24,0,3.58-1,3.58-5.3s-1.28-5.11-3.58-5.11h-2.49V36.12Zm.2,19.67c2.74,0,4.15-1.73,4.15-6.13,0-4.73-1.6-6.13-4.28-6.13h-2.56V55.79Z"/><path class="b" d="M254.3,16.77h13.47c6.9,0,13.86,2.23,13.86,11.81,0,7.35-3.07,9.9-6.58,10.92v.13c4.22,1.09,7.47,3.58,7.47,11.5,0,9.7-6.89,12.89-14.17,12.89H254.3Zm13.15,19.35c2.24,0,3.58-1,3.58-5.3s-1.28-5.11-3.58-5.11H265V36.12Zm.2,19.67c2.74,0,4.15-1.73,4.15-6.13,0-4.73-1.6-6.13-4.28-6.13H265V55.79Z"/><path class="b" d="M290.19,16.77h11V64h-11Z"/><path class="b" d="M315.73,26.09h-8V16.77H334.7v9.32h-8V64h-11Z"/><path class="b" d="M338.46,40.4c0-17.5,6.58-24.21,16-24.21s15.9,6.71,15.9,24.21-6.58,24.14-15.9,24.14S338.46,57.89,338.46,40.4Zm20.76,0c0-10.16-1.15-14.5-4.79-14.5s-4.86,4.34-4.86,14.5,1.15,14.75,4.86,14.75S359.22,50.55,359.22,40.4Z"/><path class="b" d="M377.29,16.77h11.3l6,16.35c1.28,3.76,2.24,6.51,3,9.38h.26V16.77h8.49V64H397l-7.79-19.41C387.89,41,386.55,37,386,35.22h-.26V64h-8.49Z"/><path class="b" d="M27.76,16.62H63.88V93h23q0-38.2,0-76.4h36.19q0,95,0,190.07H86.89v-77.3h-23v77.3H27.76Z"/><path class="b" d="M427.06,17.13c11.16,0,22.33,0,33.5,0V206.69h-33.5Q427.06,111.92,427.06,17.13Z"/><path class="b" d="M527.86,17.13c11.2,0,22.39,0,33.58,0q0,94.8,0,189.58H529.67c0-5.83,0-11.67,0-17.51-1.58,2.74-3.08,5.51-4.65,8.25a22.51,22.51,0,0,1-12.52,10.12c-4.07,1.36-8.43,1.26-12.65.91-5.45-.49-11-2.06-15.38-5.42-4.73-3.54-7.94-8.74-10-14.2-2.72-7.06-3.95-14.61-4.75-22.11a226.15,226.15,0,0,1-.91-25.9A141.4,141.4,0,0,1,471.52,115a65.43,65.43,0,0,1,7-19.32,33.14,33.14,0,0,1,9.77-10.86,29.16,29.16,0,0,1,20.39-4.52A21.3,21.3,0,0,1,523,88.59c1.76,2.27,2.8,5,4,7.51l.89-.22q0-39.37,0-78.75m-16.4,88.18a9.11,9.11,0,0,0-4.77,4.71,35.86,35.86,0,0,0-2.89,9.86c-1.43,8.87-1.55,17.89-1.57,26.86.17,8,.36,16.1,2,24,.77,3.29,1.7,6.71,3.87,9.38,3.08,3.89,9.67,3.95,13,.34,2-2,3-4.78,3.8-7.46a75.25,75.25,0,0,0,2.2-15.15,245.72,245.72,0,0,0,.09-25.17c-.38-6.65-1.08-13.39-3.46-19.65-1-2.71-2.6-5.41-5.19-6.9A9.57,9.57,0,0,0,511.46,105.31Z"/><path class="b" d="M168.36,79a55.57,55.57,0,0,1,18.06.41,34.77,34.77,0,0,1,15,6.82,39,39,0,0,1,11.06,14.74,80.22,80.22,0,0,1,6,22.55c1.1,9.21,1.77,18.48,2,27.76-4.81,0-9.62-.14-14.43-.08-4.47-.2-8.94,0-13.42-.16-9.63,0-19.26-.19-28.9-.16,0,6.77.05,13.6,1.32,20.29.74,3.51,1.84,7.26,4.62,9.73,2.43,2.1,5.78,2.63,8.89,2.57,3.16.11,6.57-.6,8.9-2.88s3.42-5.67,3.72-8.9c.38-3.48-.14-7-.39-10.43q14.48.38,28.94.85a58.83,58.83,0,0,1-.69,20.75,32.44,32.44,0,0,1-9.23,16.78,34.49,34.49,0,0,1-14.92,7.89c-7.24,1.92-14.82,2.07-22.26,1.63-7.14-.47-14.39-1.83-20.73-5.27a33.06,33.06,0,0,1-12.32-11.57c-4.21-6.61-6.42-14.27-7.75-21.92a159.14,159.14,0,0,1-1.49-35c.59-9.43,1.91-18.89,5-27.85,2.62-7.52,6.71-14.74,12.85-19.93A38.71,38.71,0,0,1,168.36,79m2.28,25.47c-2.62,2.14-3.87,5.43-4.71,8.6-1.72,6.89-1.91,14-2.25,21.09q12.1,0,24.2,0c-.26-5.2-.54-10.41-1-15.59a42.47,42.47,0,0,0-2.1-10.84A7.5,7.5,0,0,0,180,103C176.86,102.15,173.23,102.37,170.64,104.44Z"/><path class="b" d="M343.61,80.61c8.76-2.24,17.89-2.42,26.88-2,7.57.44,15.23,1.46,22.36,4.18,5.21,2,10.19,5.16,13.32,9.89a23.29,23.29,0,0,1,3.71,12.13c.15,3.38,0,6.77.07,10.15q0,31.61,0,63.21a7.93,7.93,0,0,0,1,4.75c2,3.38,6.53,4.47,10.15,3.4,0,5.57,0,11.13,0,16.69a51.06,51.06,0,0,1-16.22,5.68,41.86,41.86,0,0,1-12.74.27c-4-.52-8.16-1.76-10.85-4.9-2.84-3.32-3.67-7.73-4.79-11.81-1.64,2.94-2.73,6.27-5.12,8.73-4.4,4.66-10.67,7.16-16.93,8-7.43.91-15.33.12-21.94-3.6a29.18,29.18,0,0,1-12.43-14.47,48,48,0,0,1-3.43-16,55.82,55.82,0,0,1,1.05-14,31.39,31.39,0,0,1,7.42-14.93c5.2-5.65,12.49-8.85,19.84-10.62,6.27-1.44,12.58-2.67,18.84-4.15,3.81-1,8-2.26,10.52-5.48,2.29-2.94,2.45-6.83,2.55-10.39,0-3.78-.32-7.73-2.12-11.13a10.94,10.94,0,0,0-7.18-5.43c-5-1.17-10.59-.6-14.86,2.39a12.61,12.61,0,0,0-5.43,9.55,55,55,0,0,0,1.1,11.22l-26.66,8.56c-.4-5.72-.85-11.43-1-17.16-.13-4.47-.29-9,.92-13.37a23.85,23.85,0,0,1,6.7-11.43c4.22-4,9.74-6.43,15.33-7.89m22,68.07c-4.09,1.18-8.36,2.58-11.44,5.66-2.79,2.69-3.75,6.67-4,10.42a47.54,47.54,0,0,0,.6,11.55c.62,3,1.88,6.12,4.52,7.89,2.81,1.92,6.44,1.9,9.68,1.42a10.71,10.71,0,0,0,7.4-4.57c2.52-3.72,3.36-8.26,3.91-12.64.89-8.07.48-16.2.59-24.31A46.31,46.31,0,0,1,365.59,148.68Z"/><path class="b" d="M276.69,83.75A19.77,19.77,0,0,1,287.59,80c5.51-.07,11.29.84,15.92,4A21.33,21.33,0,0,1,311.41,95c2.08,6.19,2.4,12.81,2.31,19.29.11,6.15-.49,12.29-.79,18.43-9.45,3.06-19,5.94-28.44,8.94,0-5.08.14-10.16.08-15.25-.08-4.1-.32-8.48-2.61-12-1.71-2.68-5.14-3.7-8.17-3.28a8.34,8.34,0,0,0-5.65,3.67,25.12,25.12,0,0,0-3.57,9.05,93.1,93.1,0,0,0-1.7,17.31v65.51H229.3V82.38h32.9c.21,7.43.42,14.87.42,22.3l1-.05c1.06-2.84,1.9-5.75,3.22-8.49a31.71,31.71,0,0,1,9.84-12.39Z"/></svg>