<svg xmlns="http://www.w3.org/2000/svg" xmlns:xlink="http://www.w3.org/1999/xlink" viewBox="0 0 569.39 116.25"><defs><style>.a{fill:url(#a);}.b{fill:#fff;}</style><linearGradient id="a" y1="58.13" x2="569.39" y2="58.13" gradientUnits="userSpaceOnUse"><stop offset="0" stop-color="#ec1c24"/><stop offset="1" stop-color="#b91218"/></linearGradient></defs><rect class="a" width="569.39" height="116.25"/><path class="b" d="M14.9,10.51H28.06V49h21.3V10.51H62.52v95.1H49.36V65.54H28.06v40.07H14.9Z"/><path class="b" d="M86.59,103.79a27.53,27.53,0,0,1-8.43-9.31,52.15,52.15,0,0,1-5.61-15.24,98.7,98.7,0,0,1-2-21.11,98.73,98.73,0,0,1,2-21.12A53.19,53.19,0,0,1,78.16,21.7a26.66,26.66,0,0,1,8.43-9.3,19.21,19.21,0,0,1,10.6-3.11,19.48,19.48,0,0,1,10.64,3.11,26.41,26.41,0,0,1,8.49,9.3A53.19,53.19,0,0,1,121.92,37a98.73,98.73,0,0,1,2,21.12,98.7,98.7,0,0,1-2,21.11,52.15,52.15,0,0,1-5.6,15.24,27.26,27.26,0,0,1-8.49,9.31A19.21,19.21,0,0,1,97.19,107,18.94,18.94,0,0,1,86.59,103.79Zm16.3-15.18a18.77,18.77,0,0,0,4.22-6.83,48.19,48.19,0,0,0,2.57-10.34,89.91,89.91,0,0,0,.88-13,90,90,0,0,0-.88-13,45.65,45.65,0,0,0-2.57-10.2,18.81,18.81,0,0,0-4.22-6.69,8,8,0,0,0-5.7-2.44,7.84,7.84,0,0,0-5.66,2.44,19.17,19.17,0,0,0-4.17,6.69,45.65,45.65,0,0,0-2.57,10.2,90.07,90.07,0,0,0-.87,13,90,90,0,0,0,.87,13,48.19,48.19,0,0,0,2.57,10.34,19.13,19.13,0,0,0,4.17,6.83A7.83,7.83,0,0,0,97.19,91,8,8,0,0,0,102.89,88.61Z"/><path class="b" d="M131.85,10.51h11.62a53.79,53.79,0,0,1,12.34,1.28A24.17,24.17,0,0,1,165.07,16a18.3,18.3,0,0,1,5.81,7.62,29.66,29.66,0,0,1,2,11.6q0,8-3,13.22a17.46,17.46,0,0,1-7.41,7.42,23.22,23.22,0,0,1,5,2.83,17.31,17.31,0,0,1,4.17,4.52,23.12,23.12,0,0,1,2.83,6.61,34.64,34.64,0,0,1,1,8.84q0,13.49-7.76,20.23t-23.09,6.75H131.85Zm15.86,38.71q6.53,0,9.37-2.9c1.9-1.93,2.85-4.79,2.85-8.56q0-6.07-3-8.7t-9.53-2.64h-3.11v22.8Zm-.31,41.14q8.37,0,11.79-3.57t3.41-9.91q0-6.61-3.88-10t-11-3.37h-3.42V90.36Z"/><path class="b" d="M183.38,10.51H195a53.88,53.88,0,0,1,12.35,1.28A24.13,24.13,0,0,1,216.6,16a18.4,18.4,0,0,1,5.82,7.62,29.85,29.85,0,0,1,2,11.6q0,8-3,13.22A17.46,17.46,0,0,1,214,55.83a22.76,22.76,0,0,1,5,2.83,17.31,17.31,0,0,1,4.17,4.52,23.12,23.12,0,0,1,2.83,6.61,34.62,34.62,0,0,1,1,8.84q0,13.49-7.77,20.23t-23.09,6.75H183.38Zm15.86,38.71q6.52,0,9.37-2.9c1.9-1.93,2.85-4.79,2.85-8.56q0-6.07-3-8.7t-9.53-2.64h-3.1v22.8Zm-.31,41.14q8.38,0,11.79-3.57t3.42-9.91q0-6.61-3.88-10t-11-3.37h-3.41V90.36Z"/><path class="b" d="M235.32,10.51h13.17v95.1H235.32Z"/><path class="b" d="M271.63,26.83H255.07V10.51h46.19V26.83H284.8v78.78H271.63Z"/><path class="b" d="M340.65,26.83H324.09V10.51h46.19V26.83H353.82v78.78H340.65Z"/><path class="b" d="M377,10.51h13.17v95.1H377Z"/><path class="b" d="M403.19,9.29H408l21.81,59.76,21.7-59.76h4.94l4,96.32H447.63l-2-47.08-14.91,42H428L413.17,58.8l-2.06,46.81H399Z"/><path class="b" d="M469,10.51h37.13V26.83h-24V49.9h18.72V65.81H482.19V90.1h24.48v15.51H469Z"/><path class="b" d="M519.06,104.66a33.29,33.29,0,0,1-8.59-4l4.12-14.71a42.76,42.76,0,0,0,7.3,3.31,28.42,28.42,0,0,0,9.77,1.68q9.68,0,9.67-9.44a11.56,11.56,0,0,0-.92-4.58,17.78,17.78,0,0,0-2.58-4.19,44.58,44.58,0,0,0-3.75-4c-1.41-1.35-2.86-2.7-4.37-4.05q-3-2.7-6-5.73a43.53,43.53,0,0,1-5.45-6.68,36.74,36.74,0,0,1-4-8,29.14,29.14,0,0,1-1.54-9.85,33.79,33.79,0,0,1,1.74-11.6,21,21,0,0,1,4.74-7.69,17.23,17.23,0,0,1,7-4.25,28.52,28.52,0,0,1,8.59-1.28,37.17,37.17,0,0,1,10.34,1.28,23.12,23.12,0,0,1,6.12,2.5L547.5,28.72a29.56,29.56,0,0,0-6.27-2.16,30.47,30.47,0,0,0-6.89-.81q-8.45,0-8.44,8.23a11,11,0,0,0,1,4.58,20.37,20.37,0,0,0,2.57,4.19,39.91,39.91,0,0,0,3.7,4q2.11,2,4.48,4.19c2,1.8,4,3.68,6,5.66a42,42,0,0,1,5.4,6.61,36,36,0,0,1,4,8,29.25,29.25,0,0,1,1.55,9.78q0,12.14-5.81,18.75t-18,6.61A36.94,36.94,0,0,1,519.06,104.66Z"/><path class="b" d="M556.94,99.17a5.07,5.07,0,0,1,2,.4,5.36,5.36,0,0,1,1.63,1.09,5.19,5.19,0,0,1,1.09,1.62,5.13,5.13,0,0,1,0,4,5.26,5.26,0,0,1-1.09,1.61,5.21,5.21,0,0,1-1.63,1.1,4.9,4.9,0,0,1-2,.4,4.83,4.83,0,0,1-2-.4,5.05,5.05,0,0,1-1.62-1.1,5.29,5.29,0,0,1-1.1-1.61,5.13,5.13,0,0,1,0-4A5.15,5.15,0,0,1,555,99.57,5,5,0,0,1,556.94,99.17Zm0,1.14a3.59,3.59,0,0,0-1.49.31,3.84,3.84,0,0,0-1.21.85,4,4,0,0,0-.82,1.26,3.93,3.93,0,0,0-.29,1.53,4,4,0,0,0,.29,1.55,3.93,3.93,0,0,0,.82,1.25,3.84,3.84,0,0,0,1.21.85,3.76,3.76,0,0,0,3,0,4,4,0,0,0,1.21-.85,4.08,4.08,0,0,0,.81-1.25,4,4,0,0,0,.3-1.55,3.94,3.94,0,0,0-.3-1.53,4.13,4.13,0,0,0-.81-1.26,4,4,0,0,0-1.21-.85A3.57,3.57,0,0,0,556.94,100.31Zm1.13,6.85-.83-1.87a1,1,0,0,0-.32-.39.83.83,0,0,0-.48-.14h-.22v2.4h-1.13v-5.8h1.74a2.93,2.93,0,0,1,1.56.36,1.6,1.6,0,0,1,.22,2.24,1.64,1.64,0,0,1-.91.45.76.76,0,0,1,.38.24,2.68,2.68,0,0,1,.37.57l.91,1.94Zm-.26-4.08a.7.7,0,0,0-.27-.62,1.5,1.5,0,0,0-.82-.19h-.5v1.63h.45a1.54,1.54,0,0,0,.83-.2A.7.7,0,0,0,557.81,103.08Z"/></svg>