<svg xmlns="http://www.w3.org/2000/svg" viewBox="0 0 1483.95 504.88"><path d="M400.09,305.54v145a78.93,78.93,0,0,0,32-7.82c9.67-4.59,18.9-10.1,29.39-15.78-.88,2.58-1.21,4.46-2.09,6-14.76,26.57-37.08,41.67-67.58,44-19.93,1.53-39.19-1.45-57.39-10-21.24-10-36.4-25.86-44-48-10.11-29.52-10-59,4.63-87.22,12.6-24.31,33.46-39.16,58.7-48.4a5.52,5.52,0,0,1,4.31.5,43.79,43.79,0,0,1-3.61,3.6c-40.58,32.54-44.76,81-28.34,122,3,7.42,8.18,13.93,12.66,21.37,6.42-4.65,10.11-9.56,10.14-16.37q.15-45-.08-90c0-3-1.41-6-2-8.26l65.85-46c8.74,11.61,21.71,13.81,37,11.14-3.52,11.47-8.41,20.61-18.77,25.5S410.4,311.31,400.09,305.54ZM342.76,433.25c15.22,12.91,32.76,17.06,52.3,17.45v-6.29c0-43.66-.24-87.33.21-131,.09-8.27-2-14.36-8.71-19-5.4,2.22-7.17,6.21-7.08,12.36.35,26.16-.22,52.33.29,78.49.28,14.13-4.89,24.82-16.22,32.89C356.79,423,350.1,427.9,342.76,433.25Z"/><path d="M453.49,301.66l-2.44-2.7c8.72-8.85,17.16-17.57,25.83-26,.85-.83,3.41-.78,4.7-.16,13.3,6.37,20,17.18,20.23,31.81.23,18,.06,36,.07,54v6.22l17.76-17.52,3.91-3.86c7.63-7.55,7.68-7.67,17.48-3.31,14.14,6.27,21.82,17,21.9,32.73.08,18.49-.13,37,0,55.47q.4,42.86-34.91,66.86c-4.82,3.27-9.86,6.2-14.83,9.23-.49.3-1.21.21-3.21.52,1.38-2.11,2-3.51,3-4.46,12.3-11.55,17.52-26.24,17.81-42.6.45-26.14.3-52.3.21-78.45,0-9.19-3.63-16.61-12.66-20.2a6.89,6.89,0,0,0-5.53.84c-8.31,5.81-11.8,13.32-11.08,24.06,1.1,16.42.28,33,.31,49.46,0,7.67,1.77,14.32,11.86,17.09-7.11,6.8-13.4,12.95-19.93,18.85-.82.74-3.08.6-4.33.06-13.15-5.74-19.45-15.74-19.39-30.23q.27-63.21,0-126.44a30.16,30.16,0,0,0-2.66-12.92c-3-6.11-6-6.12-10.79-1.35C455.83,299.52,454.85,300.4,453.49,301.66Z"/><path d="M902.67,444.39c-8.25,8.46-16.21,16.73-24.37,24.81-.82.81-3,1-4.26.53-15.45-5.8-22.85-16.69-22.88-33.21,0-19.16,0-38.32-.19-57.48-.07-9.08-3.93-16-12.37-20.05-2.49-1.22-4-1-6.06.95C822.05,370,822,369.93,822,384.68c0,15.66.22,31.33-.08,47-.16,8.48,1.28,15.64,11.25,19-6.86,6.79-13,13-19.41,19.07-.64.61-2.47.52-3.47.09C799,465,791.32,457.14,790.81,444.38c-.56-14.47-.42-29-.53-43.46-.07-9,.07-18-.1-27a23,23,0,0,0-1.39-8.28c-2.62-6.27-7.69-7.11-12.45-2.42-.83.81-1.68,1.6-2.62,2.5-2.4-1.19-3.43-2.28-1-4.64,7.47-7.37,14.71-15,22.27-22.26,1.07-1,3.64-1.4,5.16-.93,12.67,3.89,20.15,12.42,21.92,26.66,7.86-7.78,15.54-14.66,22.31-22.35,4.41-5,8.49-5.3,14.27-3.06,15.79,6.11,24.06,17.2,24.22,34.21.2,20.82,0,41.65.11,62.48a22.07,22.07,0,0,0,.75,6.39c2.21,7.07,7.56,8.29,12.71,3.17C898.14,443.67,899.79,439.85,902.67,444.39Z"/><path d="M667.94,373.2c16.52-9.38,33.28-18.89,50-28.42a13.68,13.68,0,0,0,3.36-2.15c5.48-5.8,11.41-4.37,17.65-1.47,16.2,7.54,25,19.78,24.85,38-.13,14.49,0,29,0,43.49,0,2-.47,4.2.19,6,2.58,6.82-1.65,8.71-6.68,11.47-16.77,9.2-33.15,19.11-49.81,28.52a10.54,10.54,0,0,1-7.23,1.08c-21.17-5.88-31.38-19.57-31.41-41.6,0-13.83.07-27.66,0-41.49C668.79,382,668.23,377.44,667.94,373.2Zm63.84,78.47c.09-1.64.23-2.95.23-4.26,0-20.66.08-41.33,0-62-.08-16.74-13.74-29.19-30.94-28.16a18.29,18.29,0,0,0-.43,2.81c0,21.5-.24,43,.14,64.49C701.05,441.2,714.34,452.68,731.78,451.67Z"/><path d="M1051.87,294.5c-5.21,1.14-6.08,8.74-13,6.86,9.85-10.09,18.94-19.51,28.26-28.7.8-.79,3.39-.46,4.78.17,14.87,6.62,20.82,18.64,20.78,34.4-.08,38,0,75.93,0,113.9,0,4.83-.13,9.67.11,14.48a16.78,16.78,0,0,0,1.55,6.7c3.13,6.18,7.28,6.77,12.2,2.07,4-3.87,4-3.87,6.85-.73-8.6,8.51-17.17,17.1-25.92,25.51a5.05,5.05,0,0,1-4.27.65c-14.51-4.95-22.22-15.86-22.24-31.36q0-63.43,0-126.88C1060.94,304,1058.63,297.86,1051.87,294.5Z"/><path d="M1195.86,433.72l3,2.69a16.16,16.16,0,0,1-1.3,1.65c-10.15,10.11-20.36,20.14-30.43,30.33-1.88,1.91-3.5,2.61-6.05,1.54-8-3.32-16.32-5.85-23.9-9.86-13.52-7.14-20.08-19-20.26-34.26-.15-12.65,0-25.31-.11-38,0-4.78-.57-9.55-.85-13.94l57.75-35.62,26.79,43.62-24.85,16c-8,5.12-16,10.18-23.9,15.43-1.34.89-2.91,2.57-3,4-.75,8.85,1.58,17,9.4,21.73,6.44,3.91,13.78,6.38,20.86,9.11,1.13.43,3.38-.75,4.5-1.82C1187.71,442.31,1191.66,438,1195.86,433.72ZM1150,359l-1,.27v51l22.68-14.27C1164.26,383.29,1157.12,371.13,1150,359Z"/><path d="M573.37,369.74,569.84,366c9.35-9.3,18.49-18.52,27.83-27.51,1-.94,3.38-1.16,4.81-.71,8.69,2.73,14.37,8.69,17.34,17.26.48,1.4.82,2.85,1.71,6l22.6-25.47c8.13,10.63,16.55,14,27.58,7.31-1.18,9.87-4.86,18.2-13,23.47-12.49,8.08-24.6,6.38-36.07-3.84a26.37,26.37,0,0,0-.58,3.73c0,21.66,0,43.32,0,65,0,7.66,2.81,13,10.29,15.89,3.53,1.35,6,1.13,8.17-1.94,1.16-1.62,2.57-3.06,4.08-4.84L647.7,443c-8.68,8.88-17.1,17.64-25.74,26.17-.94.93-3.32,1.13-4.74.72-18.24-5.33-26.61-16.23-26.85-35.43-.22-17.83,0-35.66-.11-53.49a46,46,0,0,0-1.49-12.8c-2.2-7.23-6.79-8.12-12-2.82A47.5,47.5,0,0,0,573.37,369.74Z"/><path d="M966.71,374.35,1025,338.24c6.59,7.75,15.2,10.45,26.31,3.85-1.18,12.34-6.08,21.12-15.58,26.53-13.81,7.86-25.85,4.6-36-9.09-.3,2.81-.56,4.06-.56,5.31,0,17.15-.13,34.3,0,51.45.17,18.32,12.41,31.09,30.7,32.18a5.85,5.85,0,0,0,3.72-1.8c4.2-4,8.23-8.22,12.34-12.37,3,1.48,3.39,2.84,1,5.15-10.08,9.69-20,19.57-30.09,29.23a6.41,6.41,0,0,1-4.68,1.75c-10.44-1.84-20.26-5.29-28.6-12.15-9.64-7.95-15.13-18.22-15.63-30.61-.57-14-.23-28-.42-41.95C967.51,381.62,967,377.53,966.71,374.35Z"/><path d="M901.74,359.35q-3.93,4.88-7.82,9.75l-2.11-.84c.16-1.38-.2-3.26.56-4.05,8.9-9.2,18-18.24,27.08-27.41,15.26,8,24.9,18.9,24.52,37-.43,20.14-.08,40.3-.11,60.45,0,4.54,1.07,8.54,4.7,11.58,2.94,2.46,5.62,3.35,8.31-.42a39.07,39.07,0,0,1,4.15-4.3c3.17,1.14,3.51,2.53,1.11,4.86-7.76,7.55-15.33,15.3-23.18,22.74a5.86,5.86,0,0,1-5,.93c-14.44-5.41-21.79-16.25-21.82-31.81q-.06-31,0-61.95C912.1,368.77,909.34,363.36,901.74,359.35Z"/><path d="M919.1,318.55l-18.92-17.41c6.93-6.13,13.52-11.95,20.51-18.11l16.15,18.23Z"/><path d="M26.51,68.77c6.68,13.57,17.71,18.56,29.59,22,8.46,2.44,17.18,3.94,25.72,6.11,4.23,1.07,5.63-1.51,7.26-5-5.94-1.32-11.77-2.47-17.51-4A169,169,0,0,1,54.84,83c-26-9.69-34.52-35.83-19.24-59.21C44.59,10.05,58.06,3.32,73.86,1c22.65-3.32,43.66,1.53,63,13.73,1.27.8,2.55,1.57,3.75,2.31,4.76-1.76,4.93-9.3,12.36-8C146.31,18,139.56,26.88,133,35.91s-13,18.41-19.92,28.29c5.82,1.38,10.64,2.33,15.34,3.69a129.47,129.47,0,0,1,15.12,5c27.17,11.57,37.89,39.58,24.71,66.15a123.1,123.1,0,0,1-16.44,24.31c-13.33,15.77-27.41,30.9-41.19,46.29a19.91,19.91,0,0,1-1.74,1.52c-9.12-8.41-19.43-14.64-31.4-17.74a90.61,90.61,0,0,0-52.16,1.93c-8.88,3-16.76,7.7-19.33,17.79-2,8,.25,13,7.11,17.62,1.51,1,1.92,3.64,2.83,5.53-2.11.43-5.21,1.94-6.14,1.09-2.94-2.69-6-5.91-7.36-9.55C-3.9,210.65,2.46,188.8,17,176.1c12.22-10.68,26.87-15,42.66-16.07,25.59-1.7,49,4,69,22,11.89-15.13,24-29.56,21.91-50.35-1.29-13-7.51-23.25-19.49-28.06-11.16-4.49-23.15-6.94-34.91-9.76-1.6-.39-3.93,2.29-5.93,3.55.19.45.37.9.55,1.35,6.09,1.36,12.21,2.61,18.26,4.13a96.16,96.16,0,0,1,11.88,3.71c18.71,7.41,25.92,21.66,20.87,41.19a38.85,38.85,0,0,1-9.39,17.76c1.65-19.39-9.67-28.41-24.82-33.65-10.48-3.63-21.48-5.79-32.31-8.32-1.25-.3-3.28.92-4.34,2-5,5.13-9.53,10.7-14.68,15.64a19.8,19.8,0,0,1-17.93,5.55c-1.81-.34-3.65-2-4.85-3.48-.47-.6.52-3.5,1.27-3.7,2-.53,5-1.05,6.34,0,4.42,3.61,8.23,2.33,11.6-.84,5.32-5,10.22-10.4,16.2-16.56-5.43-1.32-9.82-1.89-13.83-3.46-8.61-3.37-17.63-6.28-25.34-11.17-9.63-6.1-12.67-18.06-8.92-28.83C21.9,75.61,24.14,72.85,26.51,68.77Zm96.75-27C113,29.93,101.64,20.17,87.21,14.45,78.57,11,69.66,9.39,60.36,10.79,52,12.05,45.67,15.91,43.17,24.51s0,16,7.26,21.07C55.41,49,61,52.2,66.77,53.8c12.78,3.56,25.85,6.1,38.83,8.89a4.52,4.52,0,0,0,3.8-1.23C114.12,55.05,118.59,48.46,123.26,41.76Z"/><path d="M729.21,44.19c-.41-.09-.6-.2-.73-.15-9.09,3.35-9.09,3.35-9.09,12.89,0,18.33-.36,36.66.09,55,.54,21.49-9.14,35.86-28.75,43.89-4.83,2-9.78,3.7-14.67,5.54l-.83-1.48c1.3-1.09,2.54-2.25,3.9-3.25,6-4.41,9.56-10.21,9.64-17.75.11-11.28,0-22.57,0-33.85-12.21-1.3-17.86-1.58-21.94,10.54-6.17-5.23-6.9-12-6.13-19.12.79-7.29,4.12-13.22,11.4-15.59a52.63,52.63,0,0,1,13.2-2.07c3-.18,4.27-1.14,3.95-4.13-.63-5.75-1.22-11.5-1.89-17.87,37-13.58,73.19-30.62,106.26-54.46C804.11,15,817.07,19,833.77,13.52c-2.83,11.78-8,20.54-17.56,26.4C806.34,46,796,45.28,785,41.39V78.44h20.58c-4.09,8.75-7.37,16.85-11.71,24.33-1,1.8-5.64,1.54-9.29,2.38v94.47a14.62,14.62,0,0,1-.13,4c-.25.88-1.3,1.53-2,2.28-.73-.71-1.83-1.3-2.1-2.16a14.14,14.14,0,0,1-.15-4q0-44.49,0-89v-6.18H764.37c0,10.52.14,20.82,0,31.11a157.24,157.24,0,0,1-1.23,19.42,44.15,44.15,0,0,1-16.61,29.31c-12.41,9.72-25.43,18.66-38.14,27.9-3.38-2.66-6-4.75-8.59-6.76-18.68-14.33-39.21-14.08-60.2-6.87-9.59,3.3-13.73,10.62-13.45,20,.15,5.25,1.94,9.38,7,11.61,2.44,1.06,5,3,3.12,5.54-1,1.35-5.55,2-6.66,1-2.9-2.67-5.79-6.13-6.93-9.82-8.41-27.28,7.84-53.74,37.19-60.1,26-5.65,49.68-1.09,69.34,19.77Zm35.52,34.46c4,0,7.76-.16,11.53,0,3.12.18,4-1.1,4-4.07-.15-7.32-.34-14.67,0-22,.4-7.85.32-14.95-7.82-19.61-3-1.69-4.68-5.53-7.74-9.36Z"/><path d="M484,32.92l-2.44-2.71c8.72-8.85,17.16-17.56,25.83-26,.85-.83,3.41-.78,4.7-.16,13.3,6.38,20,17.18,20.23,31.81.23,18,.06,36,.07,54V96l17.76-17.52L554,74.63c7.63-7.55,7.68-7.66,17.48-3.31,14.14,6.28,21.83,17.05,21.9,32.73.08,18.5-.13,37,0,55.48q.4,42.84-34.91,66.85c-4.82,3.27-9.86,6.2-14.83,9.23-.49.3-1.21.21-3.21.52,1.39-2.1,2-3.5,3-4.45,12.3-11.56,17.52-26.25,17.81-42.6.45-26.15.3-52.31.21-78.46,0-9.19-3.63-16.61-12.66-20.19a6.85,6.85,0,0,0-5.53.83c-8.31,5.81-11.8,13.33-11.08,24.06,1.1,16.42.28,33,.31,49.46,0,7.67,1.77,14.32,11.86,17.09-7.11,6.8-13.4,12.95-19.93,18.85-.82.75-3.08.61-4.33.06C507,195.05,500.69,185,500.75,170.56q.27-63.23-.05-126.44A30.21,30.21,0,0,0,498,31.19c-3-6.11-6-6.12-10.79-1.35C486.31,30.77,485.33,31.65,484,32.92Z"/><path d="M1384.89,175.19c-8.26,8.47-16.22,16.74-24.37,24.82-.82.81-3,1-4.26.52-15.45-5.79-22.86-16.68-22.89-33.2,0-19.16,0-38.32-.18-57.48-.08-9.09-3.94-15.95-12.37-20.06-2.49-1.21-4-1-6.07,1-10.49,10-10.55,10-10.55,24.74,0,15.66.22,31.33-.08,47-.17,8.49,1.27,15.64,11.24,19-6.85,6.79-13,13-19.4,19.07-.64.61-2.48.52-3.48.09-11.26-4.78-19-12.66-19.45-25.41-.57-14.47-.43-29-.54-43.46-.06-9,.08-18-.1-27a23,23,0,0,0-1.38-8.28c-2.63-6.27-7.7-7.11-12.46-2.43-.82.82-1.67,1.61-2.62,2.51-2.4-1.19-3.43-2.28-1-4.64,7.47-7.37,14.71-15,22.27-22.26a6.16,6.16,0,0,1,5.15-.93c12.68,3.89,20.16,12.42,21.93,26.66,7.85-7.78,15.54-14.66,22.3-22.35,4.42-5,8.5-5.3,14.27-3.06,15.79,6.11,24.07,17.2,24.23,34.21.2,20.82,0,41.65.11,62.48a22.07,22.07,0,0,0,.75,6.39c2.21,7.07,7.56,8.29,12.7,3.17C1380.35,174.48,1382,170.66,1384.89,175.19Z"/><path d="M274,95.52c8.25-8.47,16.21-16.74,24.36-24.82.83-.81,3-1,4.26-.52,15.45,5.79,22.86,16.68,22.89,33.2,0,19.16,0,38.32.19,57.48.07,9.09,3.93,15.95,12.36,20.06,2.49,1.21,4,1,6.07-1,10.49-10.05,10.56-10,10.56-24.74,0-15.66-.22-31.33.08-47,.16-8.49-1.28-15.64-11.25-19,6.85-6.79,13-13,19.41-19.07.63-.61,2.47-.52,3.47-.09,11.27,4.78,18.95,12.66,19.45,25.41.57,14.47.43,29,.54,43.46.07,9-.07,18,.1,27a23,23,0,0,0,1.39,8.28c2.62,6.27,7.69,7.11,12.45,2.43.83-.82,1.68-1.61,2.62-2.51,2.4,1.19,3.43,2.28,1,4.64-7.47,7.37-14.71,15-22.27,22.26-1.07,1-3.64,1.4-5.16.93-12.67-3.89-20.15-12.42-21.92-26.66-7.86,7.78-15.54,14.66-22.31,22.35-4.41,5-8.5,5.3-14.27,3.06-15.79-6.11-24.06-17.2-24.22-34.21-.2-20.82-.05-41.65-.12-62.48a21.72,21.72,0,0,0-.74-6.39c-2.21-7.07-7.56-8.29-12.71-3.17C278.54,96.23,276.88,100.05,274,95.52Z"/><path d="M276.27,170.13c-19.56,11.54-38.86,23-58.27,34.26a8.1,8.1,0,0,1-5.57.66c-20.69-5.19-32-19.82-32.14-41.25-.06-14.66.05-29.32,0-44,0-3.94-.53-7.88-.84-12.1,9.11-4.83,18.75-9.67,28.12-15,9.84-5.58,19.51-11.48,29-17.55a8.89,8.89,0,0,1,8.36-1c20.24,6.48,30.26,20,30.29,41.1,0,14-.08,28,0,42C275.32,161.69,276,166.15,276.27,170.13Zm-64-77.79c0,23.42-.31,46.51.14,69.6.19,9.41,5,16.89,14,20.74,4.09,1.75,8.52,2.7,12.77,4.08,3.29,1.08,4.57,0,4.56-3.49-.09-21.13.27-42.27-.2-63.39C243.13,103,230,91.64,212.25,92.34Z"/><path d="M851.67,178.57C841.39,186.3,831.61,193.5,822,201c-2.63,2-4.8,2.13-7.69.81-23.07-10.57-27.08-41.88-7.31-58,11-9,24.12-13.13,37.77-15.92l6.17-1.24c.09-11,2.15-22.77-9.86-29.23-4.81-2.59-10.74-3.1-16.16-4.54-7-1.87-9.71,4.41-14.4,7.79L807.72,98C817,88.68,826,79.59,835.17,70.64a5.89,5.89,0,0,1,4-1.27C864.35,70.56,884,87.8,883,113.8c-.67,18-.17,36-.07,54a25.26,25.26,0,0,0,1.2,8.32c2.29,6.31,6.61,7.19,11.33,2.64,3.26-3.14,3.26-3.14,6.3-.28-7.77,7.72-15.45,15.54-23.4,23-1,1-3.72,1-5.23.45C862.48,197.8,854.78,190.7,851.67,178.57Zm-.56-47.63c-7.86,2.15-14.33,5.35-19.44,10.84-7.65,8.22-9.4,23.58-3.94,33.1,4.68,8.16,10,9.45,17.32,4.23a25.83,25.83,0,0,0,4-3,6.24,6.24,0,0,0,2-3.63C851.16,158.91,851.11,145.29,851.11,130.94Z"/><path d="M887.42,98.15c9.12-9.1,18-18.13,27.14-26.85,1.27-1.21,4.33-1.69,6.06-1.08,9.93,3.51,15.57,10.94,17.92,22l23.22-22.3c4.38,2.89,8.16,6.86,12.63,7.9s9.49-.93,14.91-1.66a29.51,29.51,0,0,1-12,21.55c-12.63,9.22-25.16,7.5-37.31-2.9-.23,2-.49,3.23-.5,4.47,0,21.33-.07,42.65,0,64,0,9.25,2.7,12.87,10.53,16.19,3.27,1.38,5.6,1.1,7.72-1.8a63,63,0,0,1,4.2-4.73c3.44,1.31,3.81,2.67,1.39,5-7.78,7.53-15.32,15.32-23.22,22.71a7.32,7.32,0,0,1-6.05,1.21c-18.07-5.56-25.94-16.09-26.2-35.35-.25-17.82,0-35.64-.13-53.47a44.8,44.8,0,0,0-1.4-12.31c-2.25-7.57-6.79-8.47-12.34-3.15C892.31,99.17,890.63,103.27,887.42,98.15Z"/><path d="M1388.83,105.69c.05.19.08.39.12.58a9.8,9.8,0,0,1,8.66,5.59c4.48,8.58,3.46,17.55,4.86,26.41a15.62,15.62,0,0,0,1.34,4.77,12,12,0,0,0,1.54,2.23l0,0c.1-.15.16-.21.14-.14a45.21,45.21,0,0,0,2.55-7.68c.14-.59.28-1.18.41-1.77,0-.26.11-.58.15-.84.21-1.44.42-2.87.57-4.31a54.68,54.68,0,0,0,.27-7.35c-.16-4.36,3.9-8.77,8-9.73a12.12,12.12,0,0,1-1.28-8.61,53.06,53.06,0,0,1,4-11.37c-2.45-8.22-7.39-14.09-15.41-17.45a7.08,7.08,0,0,0-6.11.74c-9.64,8.18-19,16.7-28.62,25.26,2.91,5.29,4.82,1.29,6.58-.21C1382.53,96.85,1387,98,1388.83,105.69Z"/><path d="M1196.56,91.4l-7.82,9.75-2.1-.84c.16-1.37-.21-3.25.56-4,8.9-9.21,18-18.25,27.08-27.41,15.26,8,24.9,18.9,24.52,37-.43,20.15-.08,40.3-.12,60.45,0,4.54,1.08,8.54,4.71,11.59,2.93,2.46,5.62,3.34,8.3-.43a39,39,0,0,1,4.15-4.29c3.17,1.14,3.51,2.52,1.11,4.86-7.76,7.54-15.32,15.29-23.18,22.73a5.84,5.84,0,0,1-5,.93c-14.43-5.41-21.79-16.25-21.81-31.8q-.06-31,0-61.95C1206.92,100.83,1204.16,95.41,1196.56,91.4Z"/><path d="M1213.93,50.6,1195,33.19l20.51-18.11,16.16,18.24Z"/><path d="M407,62.38l41.37-51h4.3l-1.48,40.92H481V68.89h-29.8v99.94l16.6,12.31,9.49-7.42,3.71,4.45-32.7,26.1q-16.65-17.06-37.73-23.13v-3q5.93-4,7.86-8.31,2.52-5.49,2.52-15.89V68.89H407Z"/><path d="M995.53,62.38l41.37-51h4.3l-1.49,40.92h29.81V68.89h-29.81v99.94l16.61,12.31,9.49-7.42,3.71,4.45-32.7,26.1q-16.65-17.06-37.73-23.13v-3q5.92-4,7.86-8.31,2.52-5.49,2.52-15.89V68.89H995.53Z"/><path d="M1068.46,34.46l-2.44-2.7c8.72-8.85,17.16-17.57,25.83-26,.86-.83,3.41-.79,4.7-.17,13.3,6.38,20,17.19,20.23,31.82.23,18,.06,36,.07,54v6.21L1134.61,80l3.91-3.86c7.63-7.55,7.68-7.67,17.49-3.31,14.13,6.27,21.82,17,21.89,32.73.08,18.49-.13,37,0,55.47q.42,42.84-34.91,66.86c-4.81,3.26-9.86,6.19-14.82,9.23-.49.29-1.22.21-3.21.51,1.38-2.1,2-3.5,3-4.45,12.31-11.55,17.52-26.25,17.81-42.6.46-26.14.3-52.3.21-78.45,0-9.19-3.63-16.61-12.66-20.2a6.86,6.86,0,0,0-5.53.84c-8.31,5.8-11.8,13.32-11.08,24.06,1.11,16.42.28,33,.31,49.46,0,7.66,1.77,14.32,11.87,17.09-7.12,6.79-13.41,13-19.94,18.85-.82.74-3.08.6-4.33.06-13.14-5.74-19.44-15.74-19.38-30.23q.26-63.21-.06-126.44a30.16,30.16,0,0,0-2.66-12.92c-3-6.11-6-6.12-10.79-1.35C1070.8,32.32,1069.82,33.2,1068.46,34.46Z"/><path d="M1484,109.08c.17-18.27-8.65-30.5-24.86-38-6.23-2.9-12.16-4.34-17.65,1.47a14,14,0,0,1-3.35,2.15c-16.76,9.53-33.52,19-50,28.42.29,4.23.85,8.83.89,13.43.12,13.83,0,27.66,0,41.49,0,18.76,7.44,31.47,22.72,38.47a51.66,51.66,0,0,0,6.26,2.92c5.78,2.24,9.86,2,14.27-3.06,6.68-7.58,14.24-14.38,22-22v44.57c-28.77-17-39.91-19.81-60.64-16-26.12,4.86-41.89,27.65-36.06,52.1,2.28,9.55,5.83,12,12.82,9.32-2.86-4.68-7.33-9.11-8.32-14.22-2-10.47,6.21-18.59,19.46-21,19.81-3.66,37.83-.49,52.87,14.75,9.22-6.43,18.08-12.36,26.67-18.66a50.87,50.87,0,0,0,19.24-27.44,55.88,55.88,0,0,0,1.59-12c.3-4.3.51-8.59.7-12.89.17-4,.46-8.11.39-12.15,0-.92,0-2.22,0-3.79l-.06,0,.06-.47a52.52,52.52,0,0,0,0-6.52C1483,135.47,1483.82,123.57,1484,109.08ZM1444,178.6c-2,2-3.57,2.17-6.06,1a44.57,44.57,0,0,1-8.19-5.09,26.85,26.85,0,0,1-8.92-20c-.38-21.5-.14-43-.14-64.49a18.61,18.61,0,0,1,.43-2.82c17.2-1,30.86,11.43,30.94,28.17.08,18-.07,36.88-.09,54.91C1450.46,172.46,1448,174.82,1444,178.6Z"/></svg>