<svg xmlns="http://www.w3.org/2000/svg" viewBox="0 0 825.75 110.5"><path d="M197.5,82.93A57.3,57.3,0,0,1,163.14,94Q143,94,133,80.37a31.9,31.9,0,0,1-6.39-16.61l-.28-4.4q-.7-11.22,7.67-24.29a65.19,65.19,0,0,1,17.89-18.74L175.35,0Q190,8.24,201.48,7.38l8.38-.56.14.42L189.12,23.57q25.42,8,25.42,28v.71Q214.54,70.58,197.5,82.93ZM149.22,24.28q-9.22,9-9.23,24.57,0,13.49,7.24,22.86A5.1,5.1,0,0,0,149.51,67ZM170,41.46a27.39,27.39,0,0,0-6.39,2.84v8.38q0,9.38-3.83,12.78L155,69.51c-1.8,1.56-3.93,3.39-6.39,5.47Q158.18,85.77,170,87.9Zm-6.24-29.53V40.19l23.85-19Zm32.37,30.53a19.7,19.7,0,0,0-12.78-4.12A30.61,30.61,0,0,0,173.08,40V54.39q8.65,4.26,14.62,4.26T202.33,54A17.56,17.56,0,0,0,196.08,42.46Zm-8.52,27.69q-5.4,0-14.48,3V88q17,0,26.84-14.91A29.13,29.13,0,0,0,187.56,70.15ZM203,56.94q-9.37,4.13-15.76,4.12-5,0-14.06-3.27V70.15a45.31,45.31,0,0,1,14.34-2.56,29,29,0,0,1,13.35,3,28.45,28.45,0,0,0,2.41-11.21Z"/><path d="M243.1,93.38A60.77,60.77,0,0,0,219.22,82.9q3.59-2.91,3.58-10.21V41.25a44.61,44.61,0,0,0,18.84-10.61q12.47,8.09,21.09,9.28V83.17A53.06,53.06,0,0,0,243.1,93.38Zm7.16-47L235,40.58V77.2c1.51.62,3,1.24,4.58,1.85s3.16,1.24,4.84,1.86q3.45,1.34,5.84,2Z"/><path d="M312.87,93.38q-4.77-3-6.43-6.5a22,22,0,0,1-1.66-9.42V45.76l-6-5.18-9.42,6.9v32.9L293,84.89l-9.55,8.49-10.08-8.49,3.71-4.11V46.69a7.82,7.82,0,0,0-3.18-6.11L271.75,42l-1.33-1.46,10.88-9.94q8.35,5,8.36,13.92,5.56-4.11,9.81-7.56t7.17-6.1l9.15,8.49,5.7-4.51,1.33,1.46c-1,1.24-1.95,2.57-2.92,4S318,43.19,317,44.7V79.58a9.26,9.26,0,0,0,3.72,4.25l2.78-1.59,1.33,1.32Z"/><path d="M375.35,83.17a62.08,62.08,0,0,0-19.63,10.21A61.93,61.93,0,0,0,331.84,82.9q3.71-3.32,3.71-10.21V41a44.13,44.13,0,0,0,5.38-1.92q3-1.26,6.7-3.12L330.78,25.06V12.46L371.1,38.2a10.5,10.5,0,0,1,5.31-4.38,16.6,16.6,0,0,0-1.06,5.7Zm-12.6-37.41-10.48-7-4.38,2.65V77.59l14.86,5.31Z"/><path d="M405.73,93.38A60.77,60.77,0,0,0,381.85,82.9q3.58-2.91,3.58-10.21V41.25a44.61,44.61,0,0,0,18.84-10.61q12.47,8.09,21.09,9.28V83.17A53.06,53.06,0,0,0,405.73,93.38Zm7.16-47-15.26-5.84V77.2c1.51.62,3,1.24,4.58,1.85s3.16,1.24,4.84,1.86q3.45,1.34,5.84,2Z"/><path d="M466.08,47.75l-8-7.83-5.17,4V78.26l7.16,5.57L464,81l1.59,1.59L453.48,93a58.48,58.48,0,0,0-17-10.08q3.58-2.91,3.58-9.55V46.69a7.82,7.82,0,0,0-3.18-6.11L434.64,42l-1.45-1.46,11.27-9.94a19.45,19.45,0,0,1,5.7,4A11.15,11.15,0,0,1,452.82,41l13.4-10.21,8.62,9.42Z"/><path d="M43.54,36.85a12.87,12.87,0,0,1-9,2.3l-.92-.07V72.8a24.09,24.09,0,0,0,13.1-10.19l.39.23Q43.38,76.25,32.8,78.93a25.19,25.19,0,0,1-6.28.77q-13,0-19.47-9.2A19.57,19.57,0,0,1,3.3,58.78,23.33,23.33,0,0,1,4.14,53,24.09,24.09,0,0,1,9,43.45,26.84,26.84,0,0,1,12.34,40c1.33-1.2,2.86-2.47,4.6-3.79l-4.68-.23a11.9,11.9,0,0,0-6.43,1.45A19.57,19.57,0,0,0,.31,43H0q2.3-14.1,18.47-14.11a39,39,0,0,1,9.35,1q2.14.61,5.75,1.61a22.2,22.2,0,0,0,6,1A8.1,8.1,0,0,0,47,28.42l.46.08Q47.44,34,43.54,36.85ZM19.47,36.7l-1.15-.3q-7.66,8.12-7.67,17.78a19.1,19.1,0,0,0,6.29,14.18,8.22,8.22,0,0,0,2.53-6.29ZM32,39l-5-1V53.64a17.09,17.09,0,0,1-2.15,8.89,33.22,33.22,0,0,1-6.2,7A20,20,0,0,0,31,73.34l1-.23Z"/><path d="M70.44,82.15a36.05,36.05,0,0,1-13.19,5L57,86.67q3.76-1.45,6.1-2.56a24.14,24.14,0,0,0,3.41-1.88,9.93,9.93,0,0,0,4.06-8.51V52.26a5.89,5.89,0,0,0-2.91-3.6l-6.06,4.52V72.11l2,2.22-5.83,5.06L52,74.72l2.23-2.61v-24H50.51V44.37h3.91V39.84q0-5.13-2.76-7.66l.15-.15a18.57,18.57,0,0,1,4.75,2.53l1.15-.08c2.25-2.56,4.71-3.83,7.36-3.83a8.86,8.86,0,0,0-3.29,7V51.19l10.73-7.9a10.33,10.33,0,0,1,5.06,9V71Q77.57,77.71,70.44,82.15Z"/><path d="M90.21,63.07v8l6.44,2.84,5.06-3.22.84.92c-.66.41-1.34.84-2,1.3s-1.42,1-2.18,1.53l-6.67,4.68a34.88,34.88,0,0,0-10.58-3.84,7.72,7.72,0,0,0,2.15-5.59V49.19a52.51,52.51,0,0,0,5.25-2.75c1.71-1,3.41-2.12,5.09-3.3L103.47,53Q95,58.93,90.21,63.07Zm-.07-15V61.3l7.28-5.74Z"/><path d="M562.61,83.33a57.24,57.24,0,0,1-34.36,11.08q-20.18,0-30.11-13.63a32,32,0,0,1-6.39-16.62l-.28-4.4q-.71-11.22,7.67-24.28A64.93,64.93,0,0,1,517,16.74L540.46.41q14.63,8.24,26.13,7.38L575,7.22l.15.43L554.23,24q25.42,8,25.42,28v.71Q579.65,71,562.61,83.33ZM514.33,24.69q-9.23,8.94-9.23,24.56,0,13.5,7.24,22.87a5.1,5.1,0,0,0,2.28-4.69Zm20.73,17.18a27,27,0,0,0-6.39,2.84v8.38q0,9.38-3.83,12.78-2,1.69-4.69,4t-6.39,5.47q9.51,10.8,21.3,12.92Zm-6.25-29.54V40.59l23.86-19Zm32.38,30.53a19.75,19.75,0,0,0-12.78-4.11,30.32,30.32,0,0,0-10.22,1.7V54.79q8.65,4.26,14.62,4.26t14.63-4.68A17.58,17.58,0,0,0,561.19,42.86Zm-8.52,27.69q-5.4,0-14.48,3V88.45q17,0,26.83-14.91A29.07,29.07,0,0,0,552.67,70.55Zm15.48-13.2q-9.37,4.11-15.76,4.12-5,0-14.06-3.27V70.55A45.57,45.57,0,0,1,552.67,68,28.84,28.84,0,0,1,566,71a28.53,28.53,0,0,0,2.41-11.22Z"/><path d="M621.21,93.39q-8.51-4.52-8.49-14.33L594.67,93.52H594q-9.42-8.76-9.42-17,0-12.21,13.14-24L591.36,36l1.72.13q7.42.66,13.67-5.17l18.83,6.23,3.72-2.92.26.53A34,34,0,0,0,625.05,45V79.72a5.37,5.37,0,0,0,3.72,4.12l2.38-1.2,1.46,1.2Zm-8.49-49.08-19.24-7.17,5.57,15.12,13.67,6.64Zm.13,17-13.8-6.9a26.88,26.88,0,0,0-3.84,13q0,9,7.69,16.71l10-8.49Z"/><path d="M661.53,86.49c-.44.26-1.92,1.13-4.44,2.59s-6.17,3.47-11,6q-4.36,2.65-4.37,7.16,0,3.86,4.24,5a13.13,13.13,0,0,0,2.52-.4,12.37,12.37,0,0,1,2.52-.4c1.33,0,2,.48,2,1.46s-1.15,1.81-3.45,2.52a8.85,8.85,0,0,1-9-9,10.46,10.46,0,0,1,2.79-7.3L649.73,89a30.37,30.37,0,0,0,5.7-5.84,11.67,11.67,0,0,0,2-6.76q0-4.91-2.85-7.23c-1.91-1.55-4.58-2.32-8-2.32a41.22,41.22,0,0,0-8.62,1.06l18.57-18.18L645.21,39.13l-7.29,4.78-1.19-1.86L653,31c.71.71,1.64,1.57,2.79,2.59s2.47,2.19,4,3.51q4.77,4,8.49,4.51L652.11,57.84a21.09,21.09,0,0,1,12.21,3.45,12.79,12.79,0,0,1,5.57,11Q669.89,81.18,661.53,86.49Z"/><path d="M690.32,65.53v13.8l11.14,4.9,8.75-5.57,1.46,1.59c-1.15.71-2.32,1.46-3.51,2.26s-2.46,1.68-3.78,2.65l-11.54,8.09a60.22,60.22,0,0,0-18.31-6.63,13.39,13.39,0,0,0,3.71-9.68V41.52a91.68,91.68,0,0,0,9.09-4.78q4.44-2.64,8.82-5.7l17.11,17.11Q698.68,58.37,690.32,65.53Zm-.14-25.87V62.48l12.6-9.95Z"/><path d="M734.09,39.66v38.6l7,5.84,3.71-2.92L746.29,83,734.35,93.39q-9.42-7.56-16.71-10.08a13.19,13.19,0,0,0,3.58-9.56V39.53h-4.64l.13-1.86L734,16.05l.13,16.85h13.53v6.76Z"/><path d="M768.71,39.66v38.6l7,5.84,3.72-2.92L780.91,83,769,93.39q-9.42-7.56-16.72-10.08a13.19,13.19,0,0,0,3.58-9.56V39.53H751.2l.13-1.86,17.25-21.62.13,16.85h13.53v6.76Z"/><path d="M802.8,65.53v13.8l11.14,4.9,8.76-5.57,1.46,1.59c-1.15.71-2.32,1.46-3.52,2.26s-2.45,1.68-3.78,2.65l-11.54,8.09A60.22,60.22,0,0,0,787,86.62a13.35,13.35,0,0,0,3.72-9.68V41.52a94,94,0,0,0,9.09-4.78q4.44-2.64,8.82-5.7l17.11,17.11Q811.16,58.37,802.8,65.53Zm-.13-25.87V62.48l12.6-9.95Z"/></svg>