<svg xmlns="http://www.w3.org/2000/svg" viewBox="0 0 1498.76 501.47"><path d="M145.83,189c-1,.86-1.9,1.82-3,2.58-33.14,23.82-51.36,57-59.69,96.13C77.36,315,76,342.61,82.27,370c6,25.94,20.8,47,39,65.82,5.64,5.83,11.81,11.13,17.91,16.84,10-11.79,17.4-23.45,17.33-38.94-.23-49,0-98,.06-147,0-7.92,0-15.84,0-24.71-4.08,2.58-7.66,4.89-11.28,7.12a25.28,25.28,0,0,1-4.84,2.57c-1.11.37-3.3.41-3.55-.11-.55-1.15-.73-3.11-.08-4.06a19.4,19.4,0,0,1,5-4.8q32.24-21.9,64.55-43.68c1.72-1.17,3.28-2.57,5.5-4.33-8.65-1.68-16.49-2.83-24.13-4.77-22.1-5.58-44.07-11.71-66.19-17.18-21.1-5.21-42.38-9.05-64.28-5.47-9.85,1.61-19.06,4.48-26.94,11-7.06,5.83-12,13.06-14.11,21.88-2.2,9.37-3.58,18.93-5.3,28.42-.35,1.91-.62,3.84-.93,5.76L8.44,235a36.86,36.86,0,0,1-3.19-5.24c-7.36-18.45-6.29-36.87-1-55.79,7.3-26.34,25.05-41.69,49.69-50.41,36.18-12.79,73.19-14.68,110.24-5.38,30.32,7.61,60.14,17.16,90.19,25.85l.47.17c37.28,14.5,67.94,2.18,95.31-23.52C352,118.81,354,117,356,115.28c.33-.29.9-.31,2.36-.77-.71,2.85-1,5.26-1.9,7.36-5.38,12-9.66,24.68-16.65,35.64-17.91,28.07-44.05,42.19-77.67,41.69-3.49,0-7,0-10.92,0V462.72c12.06-4.82,23.4-10.35,33.4-18s19.06-16.22,29.5-23.86c-1,2.3-1.78,4.8-3.16,6.86-24.43,36.45-57.3,61.65-100.71,69.78-34.08,6.39-68.89,5.81-101.49-7.43-50-20.32-80.77-57.72-89.46-111.47-4.56-28.27-4.49-56.92,2.19-85S45.3,244,67.27,226.22c21.38-17.32,46.57-27.64,72-37.38,1.9-.73,4.07-.73,6.12-1.07Zm-1.24,267c11.43,7.53,23.85,13.92,38.32,15.48,18.27,2,36.19-.55,54.11-3.94,5.47-1,6.8-3.39,6.79-8.62q-.21-125.51-.08-251a54.13,54.13,0,0,0-.07-7c-.14-1-1.22-2.65-2-2.74-6.21-.71-12.46-1.11-19.25-1.65,0,3.62,0,6.41,0,9.2-.09,51.66-.11,103.33-.32,155-.11,26.81-11.4,48.48-32.44,64.55C175.39,436.17,160,445.57,144.59,456Z"/><path d="M612.44,455c4.12-4.51,7.86-8.91,11.95-12.95a13.78,13.78,0,0,0,4.23-10.65q-.14-124.74,0-249.48v-11.8c-4.14,2-7.66,4.2-11.47,5.51-2.38.82-7,1.32-7.51.31-2-3.7,1.46-5.68,4.26-7.06q35.15-17.38,70.39-34.53a35.51,35.51,0,0,1,5-1.54V272.25a11.51,11.51,0,0,0,2.45-.92q22.38-14.59,44.72-29.25c6.06-4,6.4-3.9,11.81,1.27,15.54,14.85,31.2,29.57,46.48,44.67,1.85,1.84,2.32,5.73,2.34,8.67.16,31.17.11,62.33.11,93.5,0,10.16-.1,20.33,0,30.49a7.72,7.72,0,0,1-3.92,7.33q-52.38,35-104.53,70.23c-3.27,2.21-5.4,2.8-8.43-.49-15.14-16.41-30.54-32.57-45.75-48.92-2.34-2.52-4.11-2.87-6.5-.21-2.21,2.48-4.65,4.77-7.1,7S616,458.25,612.44,455Zm76.38-102c0,20.82.2,41.64-.12,62.46a20.59,20.59,0,0,0,6.09,15.65q12.36,12.72,24.41,25.73c6.54,7,6.47,7.08,14.19,1.85a14.65,14.65,0,0,1,2.52-1.6c5.08-2.08,6.28-5.93,6.27-11.17q-.2-61.2.09-122.41A16.75,16.75,0,0,0,737.34,311q-15.92-16.58-31.54-33.41c-2.86-3.1-5.37-3.44-8.5-.74a14.85,14.85,0,0,1-3.72,2.51c-4.22,1.76-4.9,4.93-4.86,9.19C688.92,310,688.81,331.5,688.82,353Z"/><path d="M1188.83,455.59c3.12-2.83,5.61-5.6,8.58-7.67,6.77-4.73,8.07-11.07,8-19-.41-34.66-.27-69.33-.13-104a12.42,12.42,0,0,0-4.25-10.05q-17.46-16.1-34.61-32.51c-2.05-1.95-3.37-1.89-5.92-.36-11.33,6.78-15,15.84-14.55,29.47,1.24,38,.82,76,.31,114-.12,9.58,3.11,15.82,11.09,20.29,2.31,1.3,4.44,2.93,6.66,4.41,4.35,2.9,4.48,3.82.58,7.51q-20.52,19.4-41.15,38.69c-4.77,4.44-4.87,4.27-9.41-.62-10.76-11.61-21.62-23.12-32.38-34.71-1.84-2-3.19-1.68-4.94.13a50.17,50.17,0,0,1-8.12,7.33c-1.37.89-3.87,0-5.86,0,.41-1.69.27-3.92,1.32-5,6.42-6.53,13-12.95,19.75-19.1a14.83,14.83,0,0,0,5.38-12.13c-.28-37.33-.23-74.66-.31-112,0-9.4-.19-18.79-6.86-26.45a45.7,45.7,0,0,0-5.91-6.05c-9.5-7.46-11.35-7.28-20.15,1a19.62,19.62,0,0,1-5.19,3.78,4.32,4.32,0,0,1-4-.64c-.66-.72-.55-3,.14-3.93a67.8,67.8,0,0,1,7.09-7.69c14.24-13.56,28.57-27,42.77-40.61,2.91-2.78,4.64-2.91,7.55.43,12.5,14.29,25.4,28.23,38.08,42.36,2.34,2.61,4.14,1.62,6.35-.14q23.83-19,47.76-37.89c9.27-7.34,9.24-7.29,17.46,1,13.11,13.28,26.31,26.46,39.39,39.77,2,2.05,3.73,2.52,5.9.45,3-2.87,6-5.77,9.12-8.52a15.2,15.2,0,0,1,4.54-3c3.11-1.17,5.29.77,4,3.76a16,16,0,0,1-5.19,6.44c-8.94,6.19-11.43,14.13-11.2,25.12.85,40.65.34,81.33.6,122a28.87,28.87,0,0,0,3,12.8c3.4,6.49,9,6.94,14.29,2,3.3-3.05,6.34-6.43,9.89-9.15,1.35-1,3.79-.65,5.74-.92-.42,1.89-.23,4.35-1.37,5.59-9.91,10.8-20,21.42-30.16,32-7.49,7.82-15.14,15.49-22.66,23.28-2.3,2.37-4.28,3.23-7.13.52-13.77-13.09-27.68-26-41.51-39A26.46,26.46,0,0,1,1188.83,455.59Z"/><path d="M934.51,283.19c13-12.32,25.16-23.87,37.31-35.47a80.54,80.54,0,0,0,8.34-8.6c2.46-3.18,4.39-2.78,6.79-.23q14.37,15.3,28.77,30.58c7.94,8.46,7.95,8.49,16.13.07,2.28-2.36,4.78-4.29,7.61-1.32s0,5.25-1.94,7.11c-6.37,6.11-13.12,11.84-19.26,18.17a13.12,13.12,0,0,0-3.55,8.25c-.17,41.16.08,82.33-.06,123.49,0,13.68,7.94,21.58,18.41,28.08,3.61,2.24,6.9,1.82,9.93-1.21,2.35-2.36,4.57-5,7.31-6.76,1.41-.91,3.84-.23,5.8-.27-.22,1.8.22,4.21-.79,5.3-4.38,4.79-9.14,9.23-13.83,13.72-11.43,10.95-23,21.77-34.28,32.86-3.12,3.07-5.12,3.74-8.37.08-12.17-13.7-24.73-27.06-36.89-40.76-2.87-3.24-4.88-2.87-7.87-.51-17.55,13.81-35.25,27.41-52.74,41.28-3.47,2.74-5.3,2.62-8.5-.74-12.52-13.14-25.55-25.82-38.32-38.73-8.56-8.65-8.5-8.69-17.24-.27a36.61,36.61,0,0,1-6,5.27c-1.26.77-3.26.34-4.93.44.09-1.7-.48-4,.4-5a89.67,89.67,0,0,1,10.15-10.29c4.51-3.86,6.17-8.24,6.12-14.35-.33-37.66-.17-75.32-.25-113,0-6.49.05-13.05-.82-19.46a18.28,18.28,0,0,0-4.55-9.51c-5.71-6-8.59-5.66-14.29.5-2.49,2.69-4.79,5.65-7.7,7.79-1.54,1.14-4.18.77-6.32,1.08.36-2.06.06-4.64,1.19-6.09a133.66,133.66,0,0,1,10.19-11c14.6-14.84,29.29-29.61,43.83-44.52,2-2,3.33-2.19,5.36-.28q20.9,19.72,41.91,39.33c2.6,2.42,1.72,4.32-.4,6.26-3.44,3.16-7.17,6-10.23,9.52a11.63,11.63,0,0,0-2.85,7c-.16,36.83,0,73.66-.17,110.49a15.35,15.35,0,0,0,5.33,12.26q16.38,15.06,32.5,30.38c2.55,2.42,4.75,2.7,7.35.43A5.25,5.25,0,0,1,944,454c9.72-5.39,13.48-12.83,13.21-24.69-1-41.14-.53-82.32-.35-123.48,0-5.18-1.8-8.41-5.91-11.11C945.37,291.09,940.06,287.12,934.51,283.19Z"/><path d="M1322.26,299.76c-3.35,1.74-5.7,3.3-8.28,4.18-1.48.51-3.34-.1-5-.2.38-2,.34-4.24,1.29-5.91.71-1.26,2.66-1.87,4.13-2.63q55.53-28.53,111-57.08c3.78-2,5.55-1.7,7.49,2.48,13.58,29.3,27.47,58.46,41.17,87.71,1.72,3.67,3.41,4.34,6.7,1.65a99.92,99.92,0,0,1,12.24-8.62c1.48-.89,3.81-.35,5.75-.47-.66,2-.71,4.77-2.08,5.84-9.48,7.34-19.17,14.42-28.91,21.41q-44.07,31.59-88.3,63c-3.8,2.68-2.21,4.46-.08,6.63,11,11.19,22,22.3,32.91,33.54,8.7,9,8.67,9.08,18.28,1.45,12.13-9.64,24.18-19.36,36.27-29.05.78-.62,1.48-1.55,2.37-1.8,2.32-.64,5.91-2.17,6.85-1.22,2.61,2.63.16,5.12-2.11,7q-20.2,16.35-40.47,32.62c-15.5,12.37-31.14,24.56-46.57,37-3.81,3.07-6,3.11-9.72-.75-15.25-15.6-31.1-30.62-46.67-45.91-2.81-2.76-5.65-3-9-1.18a39.39,39.39,0,0,1-7.71,3.46c-1.33.39-3-.48-4.56-.79.38-1.66.22-3.85,1.24-4.87,2.57-2.58,5.88-4.4,8.46-7,1.51-1.5,3-3.83,3.07-5.81.29-15,.24-30,.25-45C1322.27,359.92,1322.26,330.43,1322.26,299.76Zm57-28.48-1.57.47V403.48c14.17-10.05,27.74-19.65,41.29-29.29,6-4.29,6-4.3,2.74-11.29q-20.19-44-40.34-88.08A37.63,37.63,0,0,0,1379.24,271.28Z"/><path d="M388.64,295.87c-.28,2.42-.45,3.2-.44,4,.18,43.15.53,86.31.41,129.47,0,7.08,2.08,12.44,6.92,17.25,2.56,2.54,4.61,5.58,7.3,8.89,3.29-2.89,6.2-5.3,8.94-7.89,2.36-2.22,4.86-3.35,7.38-.71,2.77,2.88-.27,4.49-2,6q-24.42,21.79-48.95,43.47c-2.49,2.21-4.7,3.38-7.65.33-11.91-12.35-24-24.53-36-36.8a28.36,28.36,0,0,1-2.06-2.65c.2-.49.24-.94.47-1.06,9.38-5.34,10.69-13.62,10.52-23.74-.58-35.65-.32-71.31-.21-107a13,13,0,0,0-4.11-10.16q-15-14.67-29.62-29.74c-3-3.11-5.35-3.13-8.32-.06a39.74,39.74,0,0,1-8,6.67c-1.72,1-4.26.63-6.42.88.57-2.05.73-4.36,1.83-6.07,1.22-1.91,3.27-3.3,5-4.84,15.73-13.9,31.53-27.71,47.15-41.73,3-2.65,4.81-2.92,7.77.08,14.87,15,30.05,29.79,44.91,44.85,3.11,3.14,4.71,2.35,6.87-.74q14.85-21.31,29.88-42.5c.66-.94,1.39-1.82,2.59-3.38,1.33,1.6,2.39,2.92,3.49,4.2,5.4,6.31,10.33,13.13,16.33,18.79,11.35,10.7,26.2,11.82,39.66,4,1.9-1.1,4-1.84,6.25-2.85,2.23,20.23-15.8,42.88-37.73,50.63C426.15,322.21,407.65,310.54,388.64,295.87Z"/><path d="M586.91,447.72a24.47,24.47,0,0,0,2.54-2.11c2.47-2.7,4.66-5.71,7.39-8.11,1.13-1,3.35-.75,5.08-1.06.15,1.91,1.15,4.46.28,5.61A136,136,0,0,1,591.59,454c-13.87,14.4-27.88,28.66-41.64,43.17-3,3.12-4.59,2.89-7.48-.16-11.42-12.11-23.15-23.93-34.76-35.87-2.24-2.32-4.18-2.07-6.32.25a55.44,55.44,0,0,1-7.87,7.61c-1.4,1-3.83.61-5.8.85.33-1.95,0-4.51,1.1-5.74a185.68,185.68,0,0,1,16.52-16.67c5.81-5,7.85-10.56,7.77-18.23-.41-40.83-.36-81.66-.22-122.49,0-5.42-1.67-9.23-6-12.24-3.69-2.57-7.16-5.45-10.8-8.09-2.74-2-2.74-3.74-.18-5.94,13.89-11.95,27.8-23.87,41.5-36,3-2.7,4.53-1.1,6.56.86,10.8,10.4,21.59,20.82,32.5,31.1,5,4.73,5.15,4.58,9.65-.6,1.2-1.38,2.29-3.17,3.83-3.86,1.73-.77,3.91-.51,5.9-.7-.23,1.76.18,4.05-.79,5.19a107.93,107.93,0,0,1-12.38,13c-6.84,5.76-9.72,12.23-9.58,21.57.56,39,.28,78,.17,117,0,9.09,6.76,13.6,12,19.21C585.59,447.45,586.2,447.47,586.91,447.72Z"/><path d="M772.69,87l-8,3.63-1.24-1.19c1.11-1.46,1.92-3.42,3.38-4.3,18.22-11,36.55-21.92,54.83-32.87,5.29-3.17,10.52-6.42,15.77-9.63,2.94-1.79,5.44-1.3,8.21.8,43.6,33.2,51.32,88.25,37.8,128.55-7.34,21.89-23.2,36.31-42.12,48.29-35.52,22.51-91.7,9.75-116.29-34C704.39,149.53,712.38,101.63,740,71c12-13.27,26.32-23.45,41.87-32a26.38,26.38,0,0,1,3.67-1.55,8.88,8.88,0,0,1,2.13,0,23.85,23.85,0,0,1-2.62,3.25C760,61.61,749.86,89.57,747.15,121.1c-1.58,18.38-1.83,36.77,3.24,54.59,2.66,9.33,7.43,18.08,11.5,27,.89,2,2.88,3.4,4.36,5.07l1.73-.06c1.69-5.43,4.76-10.84,4.84-16.3.53-34,.4-68,.47-102A13,13,0,0,0,772.69,87Zm42.12-24.08c-8.57,1.68-11.51,5.07-11.52,13,0,32.83-.33,65.67.14,98.5.16,11.17-4.18,19.27-12.54,25.72-6,4.62-12.29,8.86-19.24,13.83a19,19,0,0,1,2.59,1.61c9.6,8.28,21,11.15,33.35,11.19,7.28,0,7.31.07,7.32-7q.09-76.26.14-152.5C815.05,65.81,814.9,64.37,814.81,62.88Zm6.31,101.58c6.93-.34,13.18-.91,19.43-.88s12.53.65,19.78,1.08c-.63-16.9-1.27-34-1.86-49.95H821.12Zm.18,61c12.34-5.48,22.94-11.48,28.26-23.09,3.9-8.52,6.06-17.83,9-26.79,1.48-4.52-.82-6.18-4.9-6.21-9.29-.06-18.58,0-27.87,0-3.82,0-5,1.71-5,5.53.2,14.46.07,28.93.09,43.39C820.92,220.24,821.12,222.19,821.3,225.47Zm35-117.86c-4.78-18.52-12.17-35.31-26.66-48.19a14.3,14.3,0,0,0-4.81-2.49c-2.88-1-4.42,0-4.29,3.3q.35,8.72.39,17.47c.06,10.46,0,20.93,0,31.75C833,111.87,844.58,112.87,856.3,107.61Z"/><path d="M1015.85,45.51v83a6.81,6.81,0,0,0,2-.5c12.92-8.85,25.89-17.6,38.65-26.66,4.09-2.9,6.88-2.38,10.36,1,13.56,13.11,13.59,27.63-.55,40.06a95.84,95.84,0,0,1-14.25,10c-2.77,1.65-3.67,3.13-1.92,5.83q13.58,21,27.19,41.92c1.83,2.83,3.74,2.49,6.18.52a15.14,15.14,0,0,1,7.38-3.12c-8.5,12.75-20.14,22.26-30.32,33.67l-37.7-66.44c5.85-2.74,10.83-5.36,16-7.46,18.84-7.6,16.55-25,8.55-36.69-2.22-3.21-4.89-3.74-8.09-1.5-7.23,5.06-14.53,10-21.61,15.28a6.51,6.51,0,0,0-2.06,4.63q-.13,27.25.12,54.5c.08,7.47,4.26,10.15,11.06,7.5a10.4,10.4,0,0,1,5-.88c-.85,1.57-1.4,3.43-2.6,4.65-7.37,7.47-14.92,14.75-22.32,22.19-3.16,3.18-5.7,3.56-8.21-.74a41,41,0,0,0-4.43-5.4c-5.08-5.94-10.46-11.4-19.59-10.36-.12-.52-.25-1-.37-1.58a98.72,98.72,0,0,1,7.86-6.92c4.16-3,5.73-6.62,5.71-11.82-.15-40.84,0-81.67,0-122.5a24,24,0,0,0-.31-2.66l-10,1.88C978.81,63.11,1004.77,48.84,1015.85,45.51Z"/><path d="M1404.36,32.22c-1.79,5.38-3.18,9.77-4.7,14.1s-1.23,8.67,1.78,12.27c4.69,5.6,9.29,11.36,14.58,16.37q24.84,23.54,50.25,46.48a11.53,11.53,0,0,1,4.27,9.47c-.26,17.16-.31,34.32-.5,51.47,0,2.84-.25,5.45,3.84,5.4.81,0,2.29,1.3,2.29,2,0,.88-1,2-1.91,2.6q-19,12-38,23.94c-6.35,4-12.8,7.8-19.15,11.76-2.64,1.64-4.51,1.46-6.95-.87-6.37-6.1-12.92-12.07-19.85-17.5-3.89-3.05-5.23-6.48-5.21-11.12.08-17.66,0-35.32,0-53,0-1.15,0-2.29,0-3.56l-6.86-2.78,36.8-28L1402.8,99c-4.24-4.24-8.55-8.41-12.73-12.71C1379,74.9,1377.84,58.74,1387.42,46,1391.61,40.37,1396.27,35.14,1404.36,32.22Zm12.87,81.4-1.68.78c-.45,2.91-1.29,5.81-1.31,8.72q-.24,32.69-.11,65.39a10.71,10.71,0,0,0,2.36,6.79c5,5.28,10.49,10.18,15.94,15.06,2.72,2.44,5.36,1.65,7-1.43a14.15,14.15,0,0,0,1.66-6.13q.17-31.44,0-62.89c0-1.72-.38-4-1.49-5.08C1432.25,127.62,1424.7,120.66,1417.23,113.62Z"/><path d="M1302.48,123.77c9-7.12,17.41-13.42,25.41-20.17,3.75-3.16,6.4-3.14,9.65.49,5.32,6,11,11.56,16.39,17.51,2.42,2.71,4.28,2.91,7.08.51,1.78-1.52,4.29-2.17,6.48-3.21l1.31,1.81a63.43,63.43,0,0,0-5.42,5.84c-1.39,1.9-3.19,4.16-3.22,6.28-.25,20.66-.18,41.33-.19,62a1.38,1.38,0,0,0,0,.5c1.06,2.8,2.13,5.59,3.2,8.39,2.71-1.19,5.48-2.29,8.12-3.61a59.58,59.58,0,0,0,5.08-3.16l1.29,1.23c-1.21,2-2.1,4.24-3.67,5.87-7.63,7.92-15.47,15.64-23.16,23.49-2,2-3.73,2.4-5.92.26-5.74-5.57-11.57-11-17.38-16.54-2.9-2.74-3.39-5.26.6-7.42,3.81-2.06,5-5.3,5-9.54-.25-16.16-.11-32.34-.61-48.49-.09-2.92-1.9-6.26-3.91-8.52a82,82,0,0,0-11.54-10.3c-2-1.56-5.54-3.74-7-3-3.3,1.77-6.64,4.42-6.43,9.27.29,6.82.34,13.66.33,20.49,0,12.84,0,25.68-.34,38.5-.16,5.28,1.5,8.79,6.11,11.46,5.21,3,5.13,4.24.57,8.37-5.81,5.26-11.66,10.46-17.42,15.77-2.51,2.32-4.3,2.15-6.52-.62-3.75-4.67-8.08-8.86-11.86-13.51-2.07-2.56-3.75-2.57-6.28-.82-1.78,1.24-4,1.88-6,2.78l-1.2-1.53c3-3.12,5.71-6.54,9-9.27a11.48,11.48,0,0,0,4.64-9.82c-.17-19,0-38-.11-57a22,22,0,0,0-.94-6.88c-2.24-6.61-7.45-8.64-13.56-5.66-1.88.92-3.87,1.6-5.81,2.4l-1-1c1.12-1.6,2-3.44,3.4-4.76,7.14-6.75,14.5-13.27,21.59-20.08,2.5-2.4,4-2,6,.49C1290.15,109.63,1296.19,116.48,1302.48,123.77Z"/><path d="M500.77,26.59c-17.63,15.53-22.33,35.14-18.86,57.23,1.89,12,9.56,20.41,19.51,29.35,1.65-6,3.88-10.67,4-15.36.49-16.65.27-33.32.3-50a10.69,10.69,0,0,0-.48-2.12l-6.54-.58c6.87-7.9,16.76-10.43,23.36-17-.37-.66-.47-1.14-.68-1.19-11.31-2.66-22.62-5.35-34-7.85a39,39,0,0,0-8.42-.83c-13.29,0-17.51,3.7-19.5,16.82-.19,1.28-.55,2.54-.83,3.79-3.74.59-4.51-1.67-5-4.31-1.81-10.1,4.86-24,14.07-28.82C480.88-1.18,494.79-1,508.7,2a298.53,298.53,0,0,1,29.79,8.38c10.3,3.4,19.28,1.78,27.55-5,1.64-1.35,3.51-2.42,5.45-3.73,1,12.92-13.14,24.9-33.31,28.19-.09,2-.28,4.07-.27,6.17,0,23.66.11,47.32,0,71,0,2.17-1.19,4.35-1.82,6.52l-2-.45c-.13-2.23-.37-4.46-.37-6.68q0-36.25.08-72.49c0-2.83.57-6.22-4.64-6.26-.16,2.19-.39,4.12-.42,6.05-.21,14.83-.65,29.66-.48,44.49C528.42,90,523.68,99,514.08,105.7c-3.64,2.53-7.29,5-11.66,8.07,21.06,10.85,37.55.51,53.89-10.68l1.05,1.15c-2.25,3-4.21,6.24-6.81,8.88-18.68,18.95-60.35,21-79.71-2.07-18-21.5-14.83-59.16,8.09-75.21C485.42,31.29,491.82,26.39,500.77,26.59Z"/><path d="M1161.68,124.33c3.72-3.79,7.15-7.18,10.44-10.7,2.25-2.4,4.43-2.26,6.32.11,6,7.5,11,7.45,20.14,1.77a143.92,143.92,0,0,0,16.87-12.39c2.94-2.48,4.63-2.32,6.9.46,4.12,5,8.57,9.79,12.57,14.9,2.45,3.13,4.62,3.88,7.82,1.15,1.41-1.2,3.33-1.8,5-2.67l1.33,1.23c-1.49,2.08-2.67,4.54-4.56,6.16a10.32,10.32,0,0,0-3.86,8.66c.14,19.17.23,38.34,0,57.5-.07,5.85,3.28,8.91,7.61,11.21,1.14.61,3.57-.56,5.08-1.45a54.56,54.56,0,0,0,5.9-4.55l1.57,1.31c-.9,1.74-1.45,3.83-2.76,5.17-8.49,8.71-17.14,17.27-25.75,25.86-1.63,1.62-3.24,2.94-5.34.38-3.69-4.49-7.69-8.75-11.25-13.34-1.91-2.46-3.16-5.42-5-8.71-1.82,1.08-3.81,2.14-5.65,3.39-9.11,6.16-18.27,12.25-27.23,18.62-3.94,2.81-6.7,2.47-8.61-2-3.53-8.21-8.44-16.2-10.09-24.8-3-15.78,4.43-28,19.74-36.23,4.64-2.5,9.35-4.89,14.55-7.61Zm50.18,30.7c-8.63,4.09-16.49,7.63-24.18,11.51-4.85,2.44-7,6.56-7.15,12.17-.34,11.77,5.91,20.5,12.7,29,.81,1,3.78,1.35,5.09.69a78.17,78.17,0,0,0,11-6.9,6,6,0,0,0,2.47-4C1211.94,183.71,1211.86,169.94,1211.86,155ZM1179,135.37c-.11-1-.2-.61,0-.41,6,6.62,12,13.26,18.17,19.77a3.54,3.54,0,0,0,3.15.41,82.08,82.08,0,0,0,10.39-4.79c1-.55,1.68-2.41,1.68-3.68.06-10.7-7.33-17.57-12.25-25Z"/><path d="M1150.44,199.27c-1.62,2.8-2.23,4.56-3.4,5.77-7.4,7.68-15,15.2-22.37,22.86-2.74,2.83-4.62,2.79-7.06-.59-3.69-5.13-8-9.83-11.92-14.77-2.26-2.82-4.38-3-7.09-.45a48,48,0,0,1-6.18,4.27l-1.53-1.54c1.9-2.43,3.34-5.57,5.79-7.17,8.5-5.55,9.76-13.29,9.63-22.78-.49-37.15-.24-74.31-.26-111.47V67.54h-8.38c1.08-3.16,24.82-17,37.56-22.06,0,2.19,0,4.06,0,5.94q-.2,68.23-.4,136.45c0,1.34,0,2.67,0,4,.14,9.46,2.67,11.22,11.71,8.24C1147.27,199.87,1148.05,199.78,1150.44,199.27Z"/><path d="M602.5,109.53c-5.72,5.64-11.36,11.37-17.27,16.81-.71.65-3.32.29-4.24-.52-5.11-4.47-10-9.22-15.41-14.35a8.14,8.14,0,0,1,2.69-2.68c4.44-2,5-5.45,4.93-9.79-.18-23.14,0-46.3-.22-69.44,0-3.94-1.1-7.87-1.91-13.18L592,3.87V56.18c5.5-4.18,10.53-7.55,15-11.53,3.63-3.23,6.3-2.87,9.18.61a42.08,42.08,0,0,0,3.47,3.6c4.54,4.3,8.41,10.87,16.46,3.91l.37,1.57c-1,1.28-1.7,2.89-2.94,3.77-2.89,2.06-3.77,4.62-3.72,8.12.2,12.32.06,24.64.12,37,0,7,1.54,7.9,8,4.74.72-.35,1.49-.59,3.66-1.44-1.15,2.25-1.49,3.6-2.34,4.46-4.68,4.73-9.58,9.24-14.2,14-2.76,2.87-4.76,2.6-7.34-.29s-5.87-5.39-8.73-8.16c-1.85-1.79-2.53-3.39-.28-5.88a11.82,11.82,0,0,0,2.52-7.17c.21-10.15,0-20.32-.09-30.48C611.15,67.53,602.44,58,597,57.47c-2.82-.24-4.88.76-4.86,4.16q.11,21.23.12,42.46c0,3.12,1.27,4.68,4.61,4a41.28,41.28,0,0,1,4.32-.41Z"/><path d="M596.35,172.49c-2,2.95-2.65,4.51-3.78,5.62q-24.83,24.28-49.73,48.48c-2.73,2.67-4.68,1.92-7.07-.58-9.1-9.5-18.36-18.85-27.59-28.23-3.71-3.77-4.75-3.56-8.19.58a49.15,49.15,0,0,1-7.3,7.47c-1.21.95-3.47.58-5.25.81.12-1.94-.49-4.46.5-5.73,3.57-4.59,7.66-8.77,11.59-13.08,12.47-13.65,25-27.23,37.37-41,2.39-2.66,4-2.77,6.39-.16,9.41,10.12,19,20.08,28.47,30.14,5.31,5.63,6.75,5.66,11.88.15,1.69-1.82,3.31-4,5.44-5C590.68,171.23,593.05,172.17,596.35,172.49Z"/><path d="M645.68,59.32c2.48-1.34,6.5-3.54,10.56-5.67,7.82-4.09,15.69-8.08,23.48-12.22,3.06-1.63,5-1.53,6.57,2.12,3.33,7.8,7.05,15.44,10.63,23.14.47,1,1.07,2,1.66,3.06l7.6-2,.79,1.2A42.37,42.37,0,0,1,702.7,73q-12.88,9.46-25.9,18.72a42.87,42.87,0,0,1-5.56,3.34c-4.16,2.12-4.65,4.35-1.43,7.75,1.25,1.32,2.77,2.4,4,3.74,7,7.62,6.95,7.57,15,.67,3.12-2.67,6.53-5,9.81-7.49.48.51,1,1,1.46,1.52-1.16,1.62-2,3.6-3.52,4.8-8.41,6.81-17,13.43-25.49,20.1-2.21,1.73-4.16,1.46-6.12-.62-3.67-3.86-7.29-7.81-11.31-11.27-2.24-1.94-5.25-3-6.94-3.89.46-4.58,1.19-9,1.28-13.34.18-8.33.2-16.68-.12-25C647.72,68.27,646.61,64.5,645.68,59.32Zm21.42-5.6V93.83c4-2.8,7-5.17,10.21-7s3.82-4.25,2.32-7.49c-3.15-6.8-6.21-13.63-9.38-20.42C669.59,57.46,668.62,56.19,667.1,53.72Z"/><path d="M957.9,109.45l16.46,19.73L957.9,143.8l-13.74-17.41-10.77,9.8v63.25l12.39,8.92L957,199.55l2.5,3.48L931.6,225.31a97.07,97.07,0,0,0-14.92-11.41,55.34,55.34,0,0,0-13.18-5.43v-2.4q4.79-3.36,6.25-6.79t1.47-13.1V141.84q0-8.37-1.87-11.14t-4.09-2.77c-1.64,0-3.87,1.45-6.71,4.34l-2.66-3.15,22.66-19.67q9.27,7.06,12.66,12.28c1.45,2.18,2.18,5.18,2.18,9Z"/></svg>