<svg xmlns="http://www.w3.org/2000/svg" viewBox="0 0 100 33.28"><defs><style>.a{fill:#005eb7;}.b{fill:#fff;}</style></defs><path class="a" d="M0,0H100V33.28H0Z"/><path class="b" d="M3.44,18.29l3.37.83V20L3.44,21v-.94l2-.54-2-.47Z"/><path class="b" d="M6.81,15v1l-.27,0H6.33a.73.73,0,0,1,.18.14,1.56,1.56,0,0,1,.25.34,1.26,1.26,0,0,1,.12.55,1.14,1.14,0,0,1-.23.73.86.86,0,0,1-.73.32.92.92,0,0,1-.66-.25,1.49,1.49,0,0,1-.35-.61,4.64,4.64,0,0,1-.14-.77l0-.41H4.38a.24.24,0,0,0-.22.14.59.59,0,0,0-.09.31.6.6,0,0,0,.12.4.54.54,0,0,0,.35.18L4.46,18H4.4a1,1,0,0,1-.76-.58,2.11,2.11,0,0,1-.22-1,2,2,0,0,1,.14-.8.87.87,0,0,1,.32-.4.66.66,0,0,1,.32-.12l.28,0H6.54l.13,0Zm-1.58,1,0,.3a1,1,0,0,0,.17.48.46.46,0,0,0,.4.25.58.58,0,0,0,.3-.11.31.31,0,0,0,.1-.13.38.38,0,0,0,0-.16.6.6,0,0,0-.17-.41.65.65,0,0,0-.49-.21Z"/><path class="b" d="M6.81,13.52v1H2.26v-1Z"/><path class="b" d="M3.16,11.67v1h-.9v-1Zm3.65,0v1H3.44v-1Z"/><path class="b" d="M6.81,8.15v1H4.68a.57.57,0,0,0-.34.09.39.39,0,0,0-.16.35.43.43,0,0,0,.27.39,1.08,1.08,0,0,0,.54.12H6.81v1H3.43v-.92h.62a1,1,0,0,1-.46-.37,1,1,0,0,1-.16-.58,1,1,0,0,1,.18-.66.8.8,0,0,1,.46-.28,2,2,0,0,1,.6-.07Z"/><path class="b" d="M5.09,4.61a1.91,1.91,0,0,1,1.3.44A1.46,1.46,0,0,1,6.9,6.2a1.46,1.46,0,0,1-.54,1.22,1.92,1.92,0,0,1-1.25.38,1.87,1.87,0,0,1-1.22-.38,1.47,1.47,0,0,1-.53-1.21A1.46,1.46,0,0,1,3.88,5,1.85,1.85,0,0,1,5.09,4.61Zm.12,1-.54,0a1.18,1.18,0,0,0-.47.15A.44.44,0,0,0,4,6.2a.48.48,0,0,0,.31.48A1.87,1.87,0,0,0,5,6.77l.55,0A1.23,1.23,0,0,0,6,6.6a.43.43,0,0,0,.2-.39.48.48,0,0,0-.34-.48A2.28,2.28,0,0,0,5.21,5.65Z"/><path class="b" d="M4.4,2.42a1.65,1.65,0,0,0,0,.29A.5.5,0,0,0,4.55,3a.81.81,0,0,0,.4.21,2.6,2.6,0,0,0,.6.07H6.81v.94H3.44V3.29H4.1L4,3.24l-.11-.05a1.75,1.75,0,0,1-.38-.32.41.41,0,0,1-.1-.27V2.42Z"/><path class="b" d="M32.9,16.81c-.09,3.91.55,10,5.55,10,4.26,0,5.76-3.77,5.77-10,0-5.08-.89-10.21-5.71-10.22-5.06,0-5.52,7-5.61,10.21m16.69,0c0,7.25-3,14.34-11.09,14.34s-10.95-7-10.95-14.34,3.56-14.4,10.89-14.4,11.15,6,11.15,14.4m1.53-14h5.07v28H51.12ZM80.77,30.69H96.83V26.45h-11V18.38h9.77V14.21H85.84V6.91h11V2.76h-16Zm-6.61-9.61c-.44,3.1-1.75,5.65-5,5.69-3.53,0-6-2-6-9.91C63.06,8.48,66.19,6.61,69,6.61s4.94,2.14,5.16,5.5h5.08C79,5.56,74.24,2.39,69,2.39S57.7,6.19,57.7,16.8s5,14.34,11.45,14.34S79.07,26,79.28,21.06H74.16ZM13.4,2.76H8l7.71,27.93h5.44L29.1,2.76H23.85L18.51,22.68Z"/><path class="b" d="M4.22,31.24H3.47v-.58l-1-.08-.06-.82h1.1v-.71h.76v.71h1.3c.38,0,.54,0,.52-.46L6,29h.72v.07a3.07,3.07,0,0,1,.06.53,1.36,1.36,0,0,1-.21.84,1.15,1.15,0,0,1-.94.27H4.22Zm2.54-5.49v.95H5c-.28,0-.83,0-.83.38a.52.52,0,0,0,.25.46,1.41,1.41,0,0,0,.58.08H6.76v.95H2.25v-.95H3.93a.89.89,0,0,1-.52-.86,1,1,0,0,1,.36-.82,1.38,1.38,0,0,1,.9-.18Zm-2-2.58c-.36,0-.68.14-.68.55s.3.59.68.61Zm.56,1.16h.17a.63.63,0,0,0,.7-.63.57.57,0,0,0-.52-.59l.06-.88a1.48,1.48,0,0,1,1.13,1.49,1.55,1.55,0,0,1-1.67,1.62A1.59,1.59,0,0,1,3.4,23.76,1.48,1.48,0,0,1,4,22.56a2.16,2.16,0,0,1,1.29-.34Z"/></svg>