<svg xmlns="http://www.w3.org/2000/svg" viewBox="0 0 288.8 69.62"><defs><style>.a{fill:#ff1817;}</style></defs><path d="M165.9,63.4l.95-3.12h-7.41l.9-2.91h9l1-3.17H157l-4.7,15.41h13.38l1-3.16h-9.05l.94-3.05Z"/><path d="M147,54.2h-8.13l-4.7,15.41h4.34l1.61-5.29h3l2.25,5.29H150l-2.74-5.69c2.6-.49,4.21-1.82,4.86-4l.11-.37c1-3.25-1-5.35-5.24-5.35m.85,5,0,.14c-.48,1.54-1.6,2.07-3.37,2.07H141l1.32-4.31h3.77c1.62,0,2.17.73,1.75,2.1"/><path d="M217,54.2h-8.13l-4.7,15.41h4.35l1.6-5.29h3l2.25,5.29H220l-2.74-5.69c2.6-.49,4.21-1.82,4.86-4l.11-.37c1-3.25-1-5.35-5.24-5.35m.85,5,0,.14c-.48,1.54-1.6,2.07-3.36,2.07H211l1.32-4.31h3.77c1.62,0,2.17.73,1.75,2.1"/><path d="M251.44,63.4l.95-3.12H245l.91-2.91h9l1-3.17H242.49l-4.7,15.41h13.38l1-3.16h-9L244,63.4Z"/><path d="M181.17,54.2h-7.58l-4.7,15.41h4.35l1.47-4.84h4.47c4.26,0,6.37-1.43,7.32-4.54l.17-.55c.94-3.08-.6-5.48-5.5-5.48m1.05,5.25-.11.34c-.44,1.46-1.54,2.07-3.38,2.07H175.6l1.45-4.76h3.37c1.83,0,2.32.65,1.8,2.35"/><path d="M239.1,57.37l1-3.16H225.11l-1,3.16h5.41l-3.74,12.25h4.36l3.74-12.25Z"/><path d="M267.16,54.2H259l-4.7,15.41h4.34l1.61-5.29h3l2.31,5.29h4.6l-2.73-5.69c2.59-.49,4.19-1.82,4.85-4l.11-.37c1-3.25-1-5.35-5.24-5.35m.85,5,0,.14c-.48,1.54-1.6,2.07-3.37,2.07h-3.43l1.32-4.31h3.77c1.62,0,2.17.73,1.75,2.1"/><path d="M197.65,53.87c-5.29,0-8.1,1.93-9.45,6.34l-.41,1.37c-1.65,5.4,1.44,8,6.24,8,5.3,0,8.11-1.92,9.46-6.33l.4-1.37c1.65-5.4-1.43-8-6.24-8m2.24,7.05L199.24,63c-.68,2.23-1.91,3.34-4.41,3.34-2.75,0-3.73-1.46-3-3.78l.64-2.1c.68-2.23,1.92-3.34,4.41-3.34,2.76,0,3.74,1.47,3,3.79"/><path d="M151.16,5.21,152,2.64h-9.49l-3.61,11.87h9.48l.78-2.56H143l.65-2.09h4.82l.76-2.53h-4.8l.66-2.12Z"/><path d="M126.79,5.21l.78-2.57H116.85l-.78,2.57h3.83l-2.84,9.3h3.41l2.84-9.3Z"/><path d="M136.62,2.65l-1.39,4.53h-3.92l1.39-4.53h-3.43l-3.62,11.86h3.42l1.47-4.8h3.93L133,14.51h3.43L140,2.65Z"/><path class="a" d="M35.15,24.63c1.31.41,2.55.75,3.75,1.21,3.16,1.21,4.66,3.6,4.92,6.92a19.28,19.28,0,0,1-1,6.54c-.6,2.27-1.22,4.52-1.8,6.79a1.85,1.85,0,0,0,.46,2,2,2,0,0,0,2.06.14,1.84,1.84,0,0,0,1.37-2.37,11.24,11.24,0,0,1-.23-2,3,3,0,0,1,3.15-2.56,2.48,2.48,0,0,1,1.79,2,4.43,4.43,0,0,1-1.48,4.39,9.39,9.39,0,0,1-5.62,2.17,12.62,12.62,0,0,1-7.63-1.63,5.4,5.4,0,0,1-2.66-5.07,28.54,28.54,0,0,1,1.68-7.45c.55-1.77,1-3.58,1.46-5.39a8,8,0,0,0,.16-1.89,2.73,2.73,0,0,0-2.06-2.91A9.09,9.09,0,0,0,30.94,25c-2.75-.07-5.51-.05-8.26-.06-.65,0-.91.26-1.11,1q-2,7.29-4,14.57l-1.83,6.67c-.23.85-.08,1,.81,1h3.92c.28,0,.67-.08.68.37a.81.81,0,0,1-.63.82,1.81,1.81,0,0,1-.47,0H.78c-.34,0-.75.09-.78-.45s.31-.75.83-.76H4.32c.91,0,1.09-.15,1.33-1l12-43.3C17.9,3.09,17.79,3,17,3L12.92,3c-.37,0-.71,0-.72-.48a.66.66,0,0,1,.68-.73c.12,0,.24,0,.37,0q12.3,0,24.6,0a23,23,0,0,1,7.1.94c.34.11.67.22,1,.36a7.43,7.43,0,0,1,4.89,6.3c.48,3.89-.28,7.45-3,10.41a13.74,13.74,0,0,1-7,4c-1.67.4-3.4.54-5.11.8Zm-7.26-.92c1.42,0,2.85,0,4.28,0a6.85,6.85,0,0,0,5.32-2.38,16,16,0,0,0,3.37-6.68A27.32,27.32,0,0,0,42,6.57,3.13,3.13,0,0,0,40.1,3.48a5.29,5.29,0,0,0-1.84-.41C35.13,3,32,3,28.85,3c-.67,0-.9.2-1.1.9q-2.67,9.48-5.33,19c-.18.64,0,.84.65.84Z"/><path class="a" d="M200.9,24.25,202,20.56q2.42-8.31,4.85-16.63c.23-.8.08-1-.74-1s-1.73,0-2.6,0c-.4,0-.66-.11-.68-.53a.6.6,0,0,1,.65-.67c.53,0,1.06,0,1.59,0,2.31-.09,4.62-.15,6.92-.32A8.65,8.65,0,0,0,215.72.3c.16-.09.35-.15.68-.3-.07.38-.09.62-.16.85Q211,18.57,205.79,36.26c-.9,3.06-1.82,6.11-2.72,9.17a4.34,4.34,0,0,0-.18,1.19,1.07,1.07,0,0,0,1.41,1.17,4.57,4.57,0,0,0,1.62-.73,13.2,13.2,0,0,0,3.68-4.38c.14-.26.28-.49.64-.41a.52.52,0,0,1,.38.77c-1.69,3-3.75,5.65-7.19,6.8a6.78,6.78,0,0,1-3.91.27A4.91,4.91,0,0,1,196,46.47a30,30,0,0,1-.6-3.08l-.25.41a13.3,13.3,0,0,1-5.66,5.6,7.53,7.53,0,0,1-10.58-3.94,15.35,15.35,0,0,1-.63-9.85,23.94,23.94,0,0,1,7.36-12.52,14,14,0,0,1,9.64-3.83c3.06,0,4.83,1.52,5.37,4.53,0,.16.07.31.1.46Zm-.94.87a14.77,14.77,0,0,0-.44-2.14,3.65,3.65,0,0,0-6.26-1.25,17.19,17.19,0,0,0-2.09,3.39A96.22,96.22,0,0,0,186.61,38c-.79,2.68-1.33,5.43-1.85,8.18A2.24,2.24,0,0,0,187.47,49a6.61,6.61,0,0,0,2.22-.78,12.44,12.44,0,0,0,5-5.7,71.67,71.67,0,0,0,4.15-11.29A22.84,22.84,0,0,0,200,25.12Z"/><path class="a" d="M154.05,28.07c.68-1.07,1.34-2.2,2.08-3.26A12.52,12.52,0,0,1,161.79,20a11.55,11.55,0,0,1,6.6-.6,5.1,5.1,0,0,1,4.22,5.76,25.81,25.81,0,0,1-1.25,5.17c-1.51,4.56-3.14,9.08-4.72,13.62-.2.6-.36,1.22-.51,1.83a3,3,0,0,0-.07.89c.05.78.48,1.21,1.24,1.08A4.29,4.29,0,0,0,169,47a10.3,10.3,0,0,0,3.5-4.55c.13-.34.3-.59.69-.46a.55.55,0,0,1,.3.83c-1.46,3.09-3.43,5.69-6.79,6.88a7.27,7.27,0,0,1-4.72.18,5.45,5.45,0,0,1-3.5-6.72c.65-2.41,1.51-4.76,2.3-7.13,1.39-4.19,2.81-8.38,4.21-12.57a6.36,6.36,0,0,0,.3-1.49c.07-.75-.23-1.07-1-1.18a2.77,2.77,0,0,0-2,.42A27.16,27.16,0,0,0,159,23.75a21.28,21.28,0,0,0-5.19,7.07,42.68,42.68,0,0,0-1.53,4.89c-1.22,4.21-2.42,8.42-3.63,12.63a1.38,1.38,0,0,1-1.57,1.18h-6.5c-.68,0-.83-.22-.63-1q3.24-11.58,6.46-23.15l.62-2.24a1.41,1.41,0,0,0-.16-1.49c-.43-.44-1-.3-1.5-.16a4.86,4.86,0,0,0-3,2.13c-.66,1.08-1.18,2.24-1.74,3.37-.17.32-.23.8-.73.65s-.45-.58-.35-1c1.65-6.71,7.72-8.56,12.51-6.86a3.63,3.63,0,0,1,2.58,4.39C154.48,25.51,154.26,26.79,154.05,28.07Z"/><path class="a" d="M257.22,1.94c2.14-.23,4.28-.4,6.4-.72a11.72,11.72,0,0,0,2.27-.83,5.2,5.2,0,0,1,.68-.17,2.65,2.65,0,0,1,0,.69Q264.3,8.66,262,16.43,258,30.19,254,44c-.2.68-.41,1.35-.58,2a1.5,1.5,0,0,0,.33,1.58,1.45,1.45,0,0,0,1.6.1,5.89,5.89,0,0,0,2.33-1.77,10.1,10.1,0,0,0,2.15-3.55c0-.15.36-.36.47-.32a1.48,1.48,0,0,1,.51.49c0,.06,0,.21-.06.3a13.31,13.31,0,0,1-5,6.29,7.48,7.48,0,0,1-6.75.7A5.16,5.16,0,0,1,245.72,44c.42-2.16,1-4.28,1.64-6.39q4.92-16.83,9.89-33.64c.19-.67,0-.93-.67-.94-1,0-2,0-3,0-.41,0-.66-.12-.66-.54a.58.58,0,0,1,.65-.66h3.6Z"/><path class="a" d="M279.44,1.94c2.11-.22,4.24-.4,6.34-.71A11.92,11.92,0,0,0,288.1.4c.22-.08.46-.13.69-.19a3,3,0,0,1,0,.74q-3,10.29-6,20.59l-6.54,22.4c-.2.69-.43,1.38-.6,2.08a1.51,1.51,0,0,0,.34,1.53,1.41,1.41,0,0,0,1.55.14A6.07,6.07,0,0,0,280,45.86a10,10,0,0,0,2.11-3.51c.05-.16.36-.37.46-.33a1.42,1.42,0,0,1,.53.48c0,.06,0,.21-.06.3a13.42,13.42,0,0,1-4.93,6.27,7.53,7.53,0,0,1-6.74.76A5.18,5.18,0,0,1,267.94,44c.42-2.16,1-4.28,1.65-6.39q4.92-16.83,9.88-33.64c.2-.69,0-.94-.71-1-.95,0-1.9,0-2.85,0-.41,0-.71-.05-.73-.53s.23-.67.75-.67c1.16,0,2.33,0,3.49,0Z"/><path class="a" d="M77.38,26.36c.1-.62.14-1.26.3-1.86.53-1.93,1.09-3.85,1.66-5.78.06-.19.29-.34.44-.5a2,2,0,0,1,.38.55c.3,1,.57,1.18,1.58,1.34a23.31,23.31,0,0,0,10.9-1,2,2,0,0,1,.87-.11,5.07,5.07,0,0,1-.34.75A80.79,80.79,0,0,0,87.89,29,36.63,36.63,0,0,0,84.51,39.1a12.3,12.3,0,0,0,0,5.3,8.89,8.89,0,0,0,1,2.2c.88,1.41,2.26,1.46,3.71,1.17a12.16,12.16,0,0,0,5.66-3,32.81,32.81,0,0,0,9.23-13.21,9,9,0,0,0,.47-2.05,1.75,1.75,0,0,0-1.32-2.11,13.36,13.36,0,0,1-2.54-1.26,3.89,3.89,0,0,1-1.54-4.35,3.78,3.78,0,0,1,3.08-3.1,4.18,4.18,0,0,1,5.12,4,18.43,18.43,0,0,1-1.12,7.58A33.56,33.56,0,0,1,94.78,46.44a18.07,18.07,0,0,1-8.21,3.68,10.68,10.68,0,0,1-4.67-.19,5.84,5.84,0,0,1-4-3.94,14.51,14.51,0,0,1-.58-6A31.16,31.16,0,0,1,83.56,24.1a5.34,5.34,0,0,0,.45-1A5.23,5.23,0,0,0,79.68,25,14.7,14.7,0,0,1,78.52,26a4.92,4.92,0,0,1-.94.49Z"/><path class="a" d="M124.35,36.07c-1.29-.16-2.51-.3-3.73-.48-.32-.05-.5,0-.58.33a33.36,33.36,0,0,0-1.3,8.65,5.72,5.72,0,0,0,.15,1.31,3.85,3.85,0,0,0,3.7,3.14,10.64,10.64,0,0,0,7.55-2.77A12.45,12.45,0,0,0,132.83,43a.91.91,0,0,1,.53-.43c.47-.06.65.37.38.84a12.82,12.82,0,0,1-6.23,5.65,13.66,13.66,0,0,1-10.11.47A9.74,9.74,0,0,1,110.93,42a15.14,15.14,0,0,1,1.58-10.39A23.53,23.53,0,0,1,123,20.7a11.19,11.19,0,0,1,9.3-.79c2.29.84,4.14,2.25,4.73,4.73a7.84,7.84,0,0,1-1.77,7.17,11.8,11.8,0,0,1-6.94,3.72C127,35.8,125.63,35.9,124.35,36.07Zm-1-.81a4.71,4.71,0,0,0,4.52-2.86,57.36,57.36,0,0,0,2.32-6.22,12.76,12.76,0,0,0,.52-3.64,2.31,2.31,0,0,0-3.71-2,4.82,4.82,0,0,0-1.39,1.27,15.43,15.43,0,0,0-1.52,2.53A73.19,73.19,0,0,0,120.54,34c-.12.39,0,.59.37.67C121.71,34.9,122.51,35.08,123.31,35.26Z"/><path class="a" d="M228.08,36.07c-1.29-.16-2.51-.3-3.73-.48-.35-.05-.52,0-.61.37a34.57,34.57,0,0,0-1.28,8.39,6.92,6.92,0,0,0,.16,1.57A4,4,0,0,0,226.87,49,11.49,11.49,0,0,0,236,43.87a9.23,9.23,0,0,0,.59-.94c.18-.34.41-.47.77-.27s.28.47.11.76a13.81,13.81,0,0,1-17.27,5.77A9.91,9.91,0,0,1,214.64,42a15.3,15.3,0,0,1,1.58-10.34A23.6,23.6,0,0,1,226.67,20.7a11.22,11.22,0,0,1,9.35-.78c2.27.85,4.1,2.25,4.68,4.71A7.81,7.81,0,0,1,239,31.8,11.84,11.84,0,0,1,232,35.53C230.7,35.8,229.36,35.9,228.08,36.07ZM227,35.26a4.72,4.72,0,0,0,4.52-2.86,59.53,59.53,0,0,0,2.32-6.22,12.76,12.76,0,0,0,.52-3.64,2.31,2.31,0,0,0-3.71-2,5,5,0,0,0-1.39,1.27,15.43,15.43,0,0,0-1.52,2.53A72.69,72.69,0,0,0,224.26,34a.46.46,0,0,0,.37.67C225.43,34.9,226.23,35.08,227,35.26Z"/><path class="a" d="M61.88,20.13c1.89-.11,3.8-.17,5.69-.37A11.3,11.3,0,0,0,69.81,19a4.93,4.93,0,0,1,.58-.13,3.49,3.49,0,0,1,0,.65q-2.59,8.54-5.21,17.07c-.88,2.88-1.78,5.75-2.63,8.64a5.13,5.13,0,0,0-.17,1.7.88.88,0,0,0,1.06.86,3.84,3.84,0,0,0,1.53-.5,10,10,0,0,0,3.73-4.55c.15-.34.3-.55.65-.39s.52.37.34.75A12.82,12.82,0,0,1,64,49.48a7.43,7.43,0,0,1-6.3.23,5.13,5.13,0,0,1-3.1-5.58,54.24,54.24,0,0,1,1.55-6c1.62-5.34,3.3-10.67,4.95-16,.22-.7.05-.94-.69-.93-1,0-1.91,0-2.86.07-.38,0-.67-.06-.7-.51a.6.6,0,0,1,.65-.71c.86,0,1.73,0,2.59,0h1.8Z"/><path class="a" d="M70.27,13.25A4.67,4.67,0,1,1,75,8.59,4.66,4.66,0,0,1,70.27,13.25Z"/></svg>