<svg xmlns="http://www.w3.org/2000/svg" viewBox="0 0 738.82 189.77"><defs><style>.a{fill:#231f20;}</style></defs><path d="M301.12,5.73a11.17,11.17,0,0,0-6.65-2.23h-3.06V44.88h-7V3.5h-3.5a23.26,23.26,0,0,0-3.11.63,13.08,13.08,0,0,0-6,3.89V0h31.76V8A16,16,0,0,0,301.12,5.73Z"/><path d="M341.69,45V22.25H323.91V45h-7.24V.15h7.24V18.7h17.78V.15h7.23V45Z"/><path d="M386.08,44.93H363.45V.05h21.37l4,6.51a18.85,18.85,0,0,0-2.18-1.51,11.05,11.05,0,0,0-5.3-1.46H370.68V18.65h12.54l1-.14a3.92,3.92,0,0,0,1.79-1v6c-.32-.26-.58-.45-.77-.58a3.82,3.82,0,0,0-2-.58H370.68V41.44h3.6a58.17,58.17,0,0,0,10.44-.95,43.11,43.11,0,0,0,9.09-2.6Z"/><path d="M144.91,81.13c-1.09.34-2.92-1.07-3.32-2.34a1.5,1.5,0,0,1,.14-1.44c.25-.47,10-13.28,12.22-15.58L155.1,61c2.17-.69,5.19,2,5.93,4.3a2.16,2.16,0,0,1-.46,2.33c-1.9,2.19-13.77,11.9-15.3,13.38Z"/><path d="M11.86,104.26v83.55H0V79.37H15.5L76.42,149.1V79.37H88.16V187.81Z"/><path d="M432,104.26v83.55H420.16V79.37h15.5l60.92,69.73V79.37h11.74V187.81Z"/><path class="a" d="M173.91,80.85v72.54a24.45,24.45,0,0,1-8,18.48,26.9,26.9,0,0,1-19.22,7.65c-7.45,0-13.28-2.34-17.8-7.15s-6.77-11-6.77-18.44V80.85H106.77l-.35,72.51c0,10,4,18.6,11.87,25.69a41.15,41.15,0,0,0,28.43,10.63c11.1,0,20.7-3.53,28.53-10.49s11.88-15.69,11.88-25.79V80.85Z"/><path d="M398,187.83h-54.7V79.36H394.9l9.74,15.73a43.49,43.49,0,0,0-5.28-3.64,26.55,26.55,0,0,0-12.8-3.52H360.74v36.39H391l2.47-.35a9.25,9.25,0,0,0,4.34-2.35v14.44c-.78-.63-1.41-1.1-1.88-1.41a9.22,9.22,0,0,0-4.81-1.41h-30.4v46.14h8.68a141,141,0,0,0,25.24-2.29,104,104,0,0,0,21.95-6.28Z"/><path d="M640.48,133.54q0,23.36-18.19,39.79T578,189.77q-25.83,0-44.14-16.44t-18.31-39.79q0-23.37,18.25-39.74T578,77.42q25.83,0,44.14,16.44T640.48,133.54Zm-19.13,0q0-19.6-12.68-33.58T578,86q-18,0-30.64,14t-12.68,33.58q0,19.71,12.68,33.69t30.64,14q18,0,30.64-14T621.35,133.54Z"/><path d="M737.53,183.31a7.51,7.51,0,0,1-2,2.29,12.08,12.08,0,0,1-2.7,1.52,11,11,0,0,1-1.53.47,15.9,15.9,0,0,1-5.28.83h-2a13.59,13.59,0,0,1-3.23-.36,23.89,23.89,0,0,1-3.22-1.05,13.37,13.37,0,0,1-3.11-1.71,22.25,22.25,0,0,1-2.65-2.29l-2.34-2.82L708,177.72q-.94-1.65-1.53-2.76c-.39-.75-.82-1.7-1.29-2.88a67.88,67.88,0,0,1-4.34-16.34c-.31-2.27-.71-5.36-1.18-9.28a24,24,0,0,0-14.2-16.81,42.94,42.94,0,0,0-10.56-2.7q4.92-1.29,11.15-7.29,2-2,5.28-5.76a47.7,47.7,0,0,0,3.11-7.87,23.08,23.08,0,0,0,1-6.23q0-7-5.52-10.46a19.37,19.37,0,0,0-5.52-1.88H670.62v99.9H654.3V78.77h33.58q9.39,0,14.55,6.46Q707,91,707,99.79a30,30,0,0,1-2.17,11.44,21.81,21.81,0,0,1-6.28,8.75q-1.41,1.29-3.76,3c-.47.39-1.13.9-2,1.53a35.54,35.54,0,0,1,14.91,6.8q8.09,6.22,10.21,12.33,1.17,2.35,1.93,10.15t1.94,19.32a10.48,10.48,0,0,0,1.65,3.87q2.34,3.53,3.75,3.64a10.1,10.1,0,0,0,3.41.58,11.47,11.47,0,0,0,2-.23,1.92,1.92,0,0,0,.59-.12l5.63-1.64A28.86,28.86,0,0,1,737.53,183.31Z"/><path d="M227.47,187.12c3.5-7.92,6.92-15.75,10.41-23.55,3.85-8.58,8-17.06,11.5-25.73a10.33,10.33,0,0,0-.15-7.5c-3.11-6.9-6.86-13.56-11-21.52-4.43,8.94-8.25,16.59-12,24.26-7.87,16-16,32-23.4,48.18-2.6,5.67-6,7.9-13.59,5.78,17.61-35.87,35.16-71.61,53.46-108.91L261,114.18l18.34-36c18.29,37.1,35.92,72.86,54.12,109.75-6.23,0-11.48.42-16.57-.22-1.78-.22-3.71-2.79-4.68-4.67-11.68-22.72-23.2-45.51-34.77-68.28-.77-1.49-1.7-2.92-3-5.09-5.3,8.35-9.56,15.09-4,24.91,9.54,16.94,17.17,34.77,26.14,53.33-5.85,0-10.85.38-15.7-.21-1.63-.2-3.33-2.67-4.25-4.43-5.41-10.26-10.59-20.62-15.87-30.95-.87-1.71-1.81-3.4-3.35-6.27-2,3.75-3.53,6.53-5,9.37-4.61,9.11-9.47,18.13-13.67,27.4C236.54,187.81,233.37,189.15,227.47,187.12Z"/></svg>