<svg xmlns="http://www.w3.org/2000/svg" viewBox="0 0 307.87 91.64"><defs><style>.a{fill:#c6002b;}.b{fill:#939697;}.c{fill:#fff;fill-rule:evenodd;}</style></defs><path class="a" d="M31.69,0A31.69,31.69,0,0,0,0,31.69C0,42.8,7,50.81,14.38,58.22L43.12,85.38a2.36,2.36,0,0,0,4-1.72s2.51-5.93,8.63-5.94,13.53,5.94,13.53,5.94a2.36,2.36,0,0,0,4,1.72L102,58.22c7.35-7.41,14.39-15.42,14.39-26.53A31.69,31.69,0,0,0,84.67,0h0A32.09,32.09,0,0,0,58.18,14.32,32.09,32.09,0,0,0,31.69,0Z"/><path class="b" d="M287.88,45.37c-12,0-20.1,9.49-20.1,20.34v.1c0,10.84,8,20.22,20,20.22s20.1-9.49,20.1-20.32v-.12C307.87,54.75,299.85,45.37,287.88,45.37ZM181.6,45.6a2.89,2.89,0,0,0-2.81,2L162.84,82.44a2.48,2.48,0,0,0-.28,1.18,2,2,0,0,0,2,2,2.2,2.2,0,0,0,2.13-1.52L170.82,75h21.56l4.1,9a2.42,2.42,0,0,0,2.18,1.63,2.14,2.14,0,0,0,2.14-2.14,3.19,3.19,0,0,0-.27-1.12l-16-34.81a2.81,2.81,0,0,0-2.74-2Zm74.17.17A2.24,2.24,0,0,0,253.58,48V83.39a2.21,2.21,0,1,0,4.42,0V48A2.24,2.24,0,0,0,255.77,45.77Zm-128.92.28a2.24,2.24,0,0,0-2.19,2.25V83.39a2.22,2.22,0,1,0,4.44,0V70.08h11.28l11.06,14.38a2.61,2.61,0,0,0,2.09,1.18,2.32,2.32,0,0,0,2.24-2.19,2.45,2.45,0,0,0-.72-1.63l-9.77-12.58c6.11-1.18,10.49-4.94,10.49-11.4v-.11a10.82,10.82,0,0,0-3-7.75c-2.46-2.47-6.33-3.93-11.17-3.93Zm84.61,0a2.23,2.23,0,0,0-2.18,2.25V83.11a2.23,2.23,0,0,0,2.18,2.25h11.46c12.36,0,20.89-8.6,20.89-19.65v-.12c0-11.06-8.53-19.54-20.89-19.54Zm76.31,3.43c9,0,15.49,7.29,15.49,16.23v.1c0,8.93-6.4,16.12-15.38,16.12s-15.5-7.3-15.5-16.22v-.12C272.38,56.67,278.78,49.48,287.77,49.48Zm-158.67.67h12.13c6.35,0,10.05,2.92,10.05,7.75V58c0,5.05-4.21,8.09-10.1,8.09H129.1Zm84.61,0h9.21c9.93,0,16.28,6.85,16.28,15.56v.1c0,8.71-6.35,15.45-16.28,15.45h-9.21Zm-32.11.67,9,20.11H172.56Z"/><path d="M133.14,36.79a8.27,8.27,0,0,1-6.41-2.49,9.75,9.75,0,0,1-2.3-6.87V10.77h9V24.56a4.64,4.64,0,0,0,1,3.2,3.32,3.32,0,0,0,2.6,1.08,3.5,3.5,0,0,0,2.62-1.08,4.42,4.42,0,0,0,1-3.2V10.77h9V36.23h-9V32.75a13,13,0,0,1-3,2.82A7.85,7.85,0,0,1,133.14,36.79Z"/><path d="M154.46,10.77h9V15.9a10.36,10.36,0,0,1,3-4.14,7.16,7.16,0,0,1,5.08-1.41v9.41h-.75a6.92,6.92,0,0,0-5.41,2.07q-1.89,2.07-1.89,6.49v7.91h-9Z"/><path d="M183.11,36.79a8.29,8.29,0,0,1-6.41-2.49,9.75,9.75,0,0,1-2.29-6.87V10.77h9V24.56a4.64,4.64,0,0,0,1,3.2,3.34,3.34,0,0,0,2.6,1.08,3.51,3.51,0,0,0,2.63-1.08,4.46,4.46,0,0,0,1-3.2V10.77h9V36.23h-9V32.75a12.58,12.58,0,0,1-3,2.82A7.85,7.85,0,0,1,183.11,36.79Z"/><path d="M204.43,1.88h9V19.29l6.92-8.52h10.11L221.61,21l9.08,15.25h-9.84l-5.13-8.66-2.3,2.68v6h-9Z"/><path d="M233.32,3.29h9.13V15.62h11.72V3.29h9.13V36.23h-9.13V23.71H242.45V36.23h-9.13Z"/><path d="M275.91,36.79a10.85,10.85,0,0,1-3.39-.51,8,8,0,0,1-2.7-1.51A6.9,6.9,0,0,1,268,32.32a8.14,8.14,0,0,1-.65-3.39v-.09a7.82,7.82,0,0,1,.73-3.48,6.78,6.78,0,0,1,2-2.5,9.2,9.2,0,0,1,3.13-1.5,14.86,14.86,0,0,1,4.09-.52,17.87,17.87,0,0,1,3.41.31,18.65,18.65,0,0,1,2.71.68v-.42a3.84,3.84,0,0,0-1.25-3.06,5.74,5.74,0,0,0-3.83-1.09,16.49,16.49,0,0,0-3.67.38,23.67,23.67,0,0,0-3.34,1l-1.84-6.31a28.27,28.27,0,0,1,4.59-1.44,26.53,26.53,0,0,1,5.72-.54,18.48,18.48,0,0,1,5.81.8,9.93,9.93,0,0,1,3.88,2.31,8.05,8.05,0,0,1,2.09,3.41,15.35,15.35,0,0,1,.64,4.68V36.23h-8.85V33.59a9.5,9.5,0,0,1-7.48,3.2Zm3.2-5.6a4.5,4.5,0,0,0,3.2-1.13,3.93,3.93,0,0,0,1.22-3V25.83a7.72,7.72,0,0,0-1.57-.47,9.17,9.17,0,0,0-1.91-.19,4.64,4.64,0,0,0-3,.87A2.8,2.8,0,0,0,276,28.32v.1a2.48,2.48,0,0,0,.89,2A3.45,3.45,0,0,0,279.11,31.19Z"/><path d="M296.8,1.88h9.37V8.46H296.8Zm.19,8.89h9V36.23h-9Z"/><path class="c" d="M51.67,87l0,0a22.4,22.4,0,0,1-2.41-.23L49,86.63c.46-.58,1.47-1.26,1.76-1.71.49-.73,1.69-3.6,1.38-4,.26-.39.15-1.55-.46-.61.14.37-.19,1.07-.32,1.45A7.77,7.77,0,0,1,50.76,83l0,0c-1.21,1.83-3.07,3.36-4.61,3.63a12.4,12.4,0,0,1-1.32.2c-.53,0-.87-.07-1.38-.09a6.4,6.4,0,0,1-2.94-.91l-.07.09-1.63-.91C35.38,83.22,35,79.46,34.37,77a5.54,5.54,0,0,0-.55-2.09A8,8,0,0,1,33,72.85a10.2,10.2,0,0,1-.4-2.11c-.08-.84.14-1.52.12-2.26.16-.25.28-.39.14-.58l.66-1c.57-.86.6-.72,1.35-1.28.28-.2,1.48-.82,1.57-1l.24-.36a7,7,0,0,0,.49-2.51,10.4,10.4,0,0,0-.22-1.17,3,3,0,0,1,.21-1.31l.48-.59.22-.07a2.78,2.78,0,0,1,1.28-.77c.27-.07,1.19-.25,1.44-.08l.22.14c1-.68,5.2,1.92,6.51,1.88l1.77,1c.61.18,1.11-.72,1.37-.76s.54.2.57.23l1,.76.08.22c.34.22,1.8,1.5,1.7,1.65-.27.42-1.72.09-2.21,0a20.59,20.59,0,0,1-2.33-.49,1.42,1.42,0,0,1-.77.09,2.55,2.55,0,0,0-1.13,0c-.33.05-.65.12-1,.19a5.71,5.71,0,0,0-1.85.72c-.69,1,1,.17,1.52.08a7,7,0,0,0,1.79-.38,11,11,0,0,0,1.5,0c.51,0,1.06.06,1.54.13a4.43,4.43,0,0,1,.78.11,4.08,4.08,0,0,0,.78.12A13.3,13.3,0,0,1,55,64l.11.07a10.05,10.05,0,0,1,.81,1.07c.46.31,1,.29,1.51.62l.22.15A11.14,11.14,0,0,1,59.79,68c1.12,1.52,1.64,2.79,2.65,4.28.34.49.58,1.73.82,2,.41-1.13-1.23-4.05-1.8-4.94-.19-.29-.25-.4-.41-.67a11.64,11.64,0,0,0-1-1.27c-.14-.19-2.19-3-1.44-2.53,0,0,.72.24.92.33a8.44,8.44,0,0,1,1.05.67c.63.42,1.41.78,2.07,1.22.42.13,4.74,1.94,6,.9a11.13,11.13,0,0,0-1.53-.11A15.29,15.29,0,0,1,63.67,67a4.48,4.48,0,0,1-1.07-.44L61.71,66c-.15-.1-.13-.13-.24-.24.31-.44.92-.12,1.33-.06l1.26.39c.06-.16-1.13-.69-1.33-.79s-1.7-.64-1.91-.73c-.42.07-.82-.48-1.29-.47a11.37,11.37,0,0,0-2.48-.77c-.75,0-2-1.2-2.71-1.54A28.93,28.93,0,0,1,51.84,60c-.31-.29-1-.73-1.17-1s-.63-.8-.84-1c.63-.89,4.71.75,5,.57A18.47,18.47,0,0,0,57,59.3c1,.36,1.92.69,2.79,1.08H60a6.94,6.94,0,0,0,1.43.69c.23.1,1.34.54,1.46.62.84.55,1.81.75,2.76,1.37.53.34,1.72,1.09,2.08.85a19.49,19.49,0,0,0,2.31.84c.32.11,2.1.94,2.38,1.12l.79.5L75,67.73l-.11.16c-.16.25-1.42-.23-1.62-.09-.74-.49-1.49-.38-2-.75L71,66.9c-.42.28-1.38-.92-1.77-.45l1.85,1.19.22,0,2,.82c1,0,3.14,1.17,3.91,0,.07-.11.06-.3.17-.5-.27-.2-.29-.41-.4-.48l-.55-.37a9.24,9.24,0,0,0-1.32-.42,9,9,0,0,1-1.46-.81l-.17-.11-.07.1c-.67-.44-1.59-.93-2.27-1.28A7,7,0,0,0,70,64.11c-.21-.08-1.07-.37-1.14-.42l-.16-.11-.07.11-.22-.15s-.92-.14-1.08-.18c-.52-.12-.77-.44-1.22-.6a17.53,17.53,0,0,1-2.44-1.38h-.23c-1.5-1-6.9-3.48-9.1-3.52a34.21,34.21,0,0,0-4.18-1,10,10,0,0,0-2,.07c-1,0-1.06-.58-2-1.18-.11-.25-.9-1.17-1.15-1.56a7.7,7.7,0,0,1-.71-1.69,5.17,5.17,0,0,1,.39-3.7c.16-.23.81-1.5,1.05-1.34a1.58,1.58,0,0,1,1-.73c.22,0,.06,0,.31-.1a12.24,12.24,0,0,1,3.59-.94,13.46,13.46,0,0,1,1.91-.05c.12,0,2.13.19,1.81.68l-.11.16c-.22.34-.52.43-.58.52l-.31.47.35.31c.3-.37,2.44-.55,3-.61s.91,0,1.26,0a8.9,8.9,0,0,1,1.27,0,12.53,12.53,0,0,0,1.32.2c.16-.06.29-.22.54-.28a1.8,1.8,0,0,1,.61,0,3.75,3.75,0,0,1,1.38.5c.8.47,1.74,1.41,2.65,2l.08.21.63.5,1.44,1,.88.48c.14-.1.85.07,1.09,0a2.71,2.71,0,0,1,1.13,0,4.67,4.67,0,0,1,1.18.21c.23.08,1,.41,1.19.27.41.27.48.17.79.37l1.61,1.07c.35.23.47.54,1,.89a8.89,8.89,0,0,1,1.17.87c.34.3.66.65.94.9.52.45.31.65.73.94a12.36,12.36,0,0,0,.47,1.36A9.54,9.54,0,0,0,80.8,60a10.78,10.78,0,0,1,.93,2.81c0,.29.07.38.1.68s0,.58,0,.73a8.18,8.18,0,0,1-.12,1.51c-.13.94-.1,2.55-.61,3.32a3.52,3.52,0,0,0-.25,1.35l-.36,1.27c-.08.23-.15.46-.22.69l-.24.37L77.88,77l.11.08-.21.31a40.92,40.92,0,0,0-2.23,4.44c-.35.77-.69,1.53-1.07,2.23s-.63,1.7-1,2.22a23.21,23.21,0,0,1-2.44,3.08l-.17.27a9,9,0,0,0-1.41.83,9.4,9.4,0,0,1-4.67,1.14,12.85,12.85,0,0,1-1.67-.09,2.37,2.37,0,0,0-.84-.17,9.46,9.46,0,0,1-.91-.26,17.2,17.2,0,0,1-3.62-1.43c0-.18-.46-.73-.53-1a1.58,1.58,0,0,0-.76-.94c-1-.64-1.5-1.21-2.34-1.77l-.78-.52a1.14,1.14,0,0,0-.31-.13l-.14.21c-.1.15,0,.35.07.5a1.51,1.51,0,0,1,.6,1.3v-.08L51.67,87ZM73.35,19.68c-.19.26-2.74,7.15-2.79,7.47l-.51.81c.31,1.08-.4,3-1,4.34-.27.66-1.47,4.27-1.63,4.48l-.27.36c-.41.55-1.92-1.12-2.26-.67l-.12.16c.16.19.33.36.2.58l-.77-.38-.2.26c.18.15.07.12.24.25.72.54,1.09.67,1.22,1.48a5,5,0,0,1,.1.89,8.69,8.69,0,0,0-.11.93c-.23.3-.54,1.24-.88,1.73A7.5,7.5,0,0,1,63.4,44,7,7,0,0,1,62,45.26a3.93,3.93,0,0,1-.74.37c-.24.06-.64-.06-.8,0l-.5-.37a4.23,4.23,0,0,1-.86-1.86,4.82,4.82,0,0,1-.13-1,10.77,10.77,0,0,1,1.22-5,4.08,4.08,0,0,1,1.12-.34c.33,0,.88.12,1.13-.2a1.19,1.19,0,0,0-.1-.16c-.49-.37-1.24-.06-1.41-.18-.63-.48-.36-1.9-.28-2.59a10.36,10.36,0,0,1,.75-2.86l1.21-2.83c.14-.33.29-.65.43-1,.63-.26,1.88.17,2.58.34a6.63,6.63,0,0,1,1.31.39c.38.18,1,.53,1.33.16s-.12-.65-.37-.84l-.31-.23c.26-.62-1-1.27-1.59-1.67-.2.13-.84-.11-1.08-.21-.43-.18-.78-.15-1.09-.39-.1-.07-.06-.5-.1-.63a9.59,9.59,0,0,0,1.32-3c.26-.34,1.12-3.54,1.37-4.17a21,21,0,0,1,1.88-4.31,3.07,3.07,0,0,1,4-.81l.45.34a4.27,4.27,0,0,1,1.12,1.63c.41,1.12.2.76.22,1.86a18.81,18.81,0,0,1-.24,1.91,13.13,13.13,0,0,0-.48,2Zm16,8.08c0,.63-2.3,4-3,4.88l-.5,0-.13-.1c-.11-.07-.13,0-.25-.05L84.6,32c-.48.64.46,1,.07,1.9a2.69,2.69,0,0,1,.47,1.65,5.58,5.58,0,0,1-.88,1.84c-1,1.31-1.59,2.52-2.61,3.84a10.13,10.13,0,0,1-1.94,2.53.62.62,0,0,1-.75,0l-.23-.17-.1.14c-.17.22.34,1.19.23,1.72a6.63,6.63,0,0,1-.79,1.86l-1,1.41c-.5.52-1,1-1.51,1.57a2.67,2.67,0,0,1-1.18.29,2.8,2.8,0,0,1-1.28-.42l-.32-.24c-1.41-1.06-.75-4.6.37-6.09l-.08-.06c.17-.27.35-.54.52-.82l.11-.13c.59-.79.94-1.15,1.82-.63a8.66,8.66,0,0,1,.78.65,14.24,14.24,0,0,0,1.34,1.36c.07,0,.15.07.2,0,.24-.32-.23-1.12-.45-1.4a10.36,10.36,0,0,0-1.9-2,.59.59,0,0,1-.45-.05c-.56-.42.29-.57.6-.34l1.24.92.93.93c.1.09.15.06.31.16l.14-.19c-.2-.26-.23-1-.76-1.35-.79-.59-2.13-1-1.44-1.87.08-.11.46-1.78.66-2.18a14.66,14.66,0,0,1,1-2.27v-.2a9.78,9.78,0,0,1,1.4-1.91c1-.85,1.55-.48,1.78-.62l.59.35a33,33,0,0,1,2.59,2.3l.26-.23a3.09,3.09,0,0,0-1.21-1.41c-.27-.2-1.75-1-1.63-1.15s1.7.61,2.07.84l.1-.14c.17-.22-.6-.81-.78-.94A2,2,0,0,0,82,31a1.93,1.93,0,0,1-.94-.27,7.86,7.86,0,0,1,.2-1.58c.19-.49.26-1,.53-1.63a18.46,18.46,0,0,1,1.89-3.41l.14-.18a13.38,13.38,0,0,1,1.74-1.84c.57-.5,1.74-.43,1.91-.57.31.22.88.09,1.23.35l1.1.82a4.23,4.23,0,0,1,.58,1.14,4.43,4.43,0,0,1,0,1.26,8.74,8.74,0,0,1-1.1,2.65Zm-46-16.5.29.15a5.65,5.65,0,0,1,2.11,2.46,23.16,23.16,0,0,1,.67,2.84,9.42,9.42,0,0,0,.3,1.44c.06.16.14,1.2.18,1.46a10.52,10.52,0,0,1,0,3.07,5.81,5.81,0,0,1,.28,2.51c-.14-.07-1.51-.42-1.71-.45l-.82-.06c-.31,0-.61.12-.75.09l-.08.15c.85.5,1.38.24,2,.57-.34.39-1.06.25-1.24.6l-.07.15.29.15c.66.33,2,.06,2.59.33a29.42,29.42,0,0,1,1,3.88,16.18,16.18,0,0,1,.55,4L48,34.56l-.15.31c.18.14.14.2.35.31l.18.08c.91.46,1.27,0,.79,1,.91.54,1.12,3.24,1.24,4.07a4.49,4.49,0,0,1,0,2.54l-.1.21a2.18,2.18,0,0,1-2.7.76l-.42-.19-.93-.61c0-.22-.23-.26-.4-.52a5.3,5.3,0,0,1-.33-.57c-.12-.23-.59-1-.52-1.2-.34-.2-.68-1.07-.84-1.38,0,0-.23-.62-.26-.73a1.32,1.32,0,0,1,.09-.82l.1-.21c.12-.23.31-.2.48-.52.39.09.59-.41.93-.44.14-.21.27-.42.4-.63.29-.14,1.31-.29,1.42-.51s0-.17-.1-.24l-.35-.17c-.66-.33-1.31.08-1.9,0-.75-.12-1.6.36-1.85.24s-.8-1.27-1-1.57a7.24,7.24,0,0,1-.49-1.74,11.43,11.43,0,0,1-.25-3.62c.06-.13,1.25-.51,1.58-1.13-.72-.29-1.35.54-1.65.39-.11-.05-.19-.2-.16-.27.36-.71,1.61-.66,2-1.06-.06-.07,0-.08-.15-.13a4.24,4.24,0,0,0-1.72.1l-.18-.09a2.39,2.39,0,0,1-.77-.19c0-.11-.16-.43-.19-.67s-.13-.44,0-.76a13.68,13.68,0,0,1,.07-1.49c0-.18,0-.56,0-.69-.07-.29,0-.48,0-.76-.11-.72.11-2.24-.21-2.88-.23-.44-.62-.35-.84-1.24a13.33,13.33,0,0,1-.22-1.41,14,14,0,0,1-.12-1.43c0-.38.15-1.28.12-1.54l.27-.88,0-.05a2.69,2.69,0,0,1,1.41-1.33,2.75,2.75,0,0,1,1.91-.09l.17.09.06-.1.63.32ZM27.75,42.77A9.31,9.31,0,0,1,28.19,45a3.54,3.54,0,0,0-.1.54,3.37,3.37,0,0,0,0,.55c.13,1.61.42.3.94.91.25.29,0,1,0,1.35a2.78,2.78,0,0,0,.35,1.44c.3-.26.06-.21.23-.36l.09-.07a.26.26,0,0,1,.3,0c.55.64-.41,2.12-.06,2.38l2,1.76,0,.05.13.06c.59.87,1.17,1.74,1.76,2.6.11.85,0,2.61-.86,3.31a1.85,1.85,0,0,1-.72.93c-.35.3-.68.34-1,.65-.41-.12-.32.21-.64,0a4.58,4.58,0,0,1-.63-.34l-.41-.61a7.72,7.72,0,0,0-1.08-2.83c-.28-.47-.65-1.05-.91-1.46s-.74-1.35-.83-1.45-.27-.22-.2-.33c-.39-1-.23-.85,0-1.81.1-.37.4-.62.19-.91a.83.83,0,0,0-.26.14l0,0-1.54,1.69c-.12.14-.18.1-.34.21l-.17-.1a4.62,4.62,0,0,0-.74-1.3l-2.7-2.93c-.49-.57-.93-.91-1.48-1.56s-.87-1.74-1.37-2.31l0-.22a8.17,8.17,0,0,1-1-3.28,3.7,3.7,0,0,1,1.19-3.1,4,4,0,0,1,4.1-.75,6.08,6.08,0,0,1,2,.9,8.82,8.82,0,0,1,2,1.53l.57.65.95,1.77Zm71.62-.15-.63.84c-.64.86-1.42.48-2.15-.07-.32-.24-.82-.88-1.08-.53,0,.31-.06.19.27.58a4.84,4.84,0,0,0,.83.8c.11.08.7.14.52.39s-.61.66-.92.43-.28-.77-.43-.89-.22-.1-.33,0,.08.39.18.59c.45.9-.68,2.2-1.09,3l-.43.58a6.89,6.89,0,0,1-2.42,2c-.76.27-1.88,1-2.75.3-.47-.35-.67-.86-.87-1-1-.74-.47.55-.1.82s.62.94.38,1.27A44,44,0,0,1,85,54.88c-.15.09-.7.5-.84.61a4,4,0,0,1-.89.58,1.11,1.11,0,0,1-.91.19,2.34,2.34,0,0,1-1-.39l-.19-.14A3.12,3.12,0,0,1,80.5,54a4.53,4.53,0,0,1,.8-1.93,20.61,20.61,0,0,1,1.44-1.93,9.76,9.76,0,0,1,.77-.8c.64-.55,1.22-1,1.87-1.53l.1.07a1.92,1.92,0,0,1,1.12-.63c.55-.23.52-.78.79-1.14a15.9,15.9,0,0,1,1.5-1.57,16.09,16.09,0,0,1,1.57-1.18c.51-.37,1.06-.64,1.6-1l.79-.44c.36-.2.44-.47.77-.77.53-.48,1-1.3,1.47-1.79s1-1.17,1.48-1.68a2.64,2.64,0,0,1,3.51-.37c1.64,1.24.49,3.67-.71,5.27ZM52.91,58.2l0,0c-.13.18-.09-.05-.33.25-.27-.12-.52.09-1-.11a7.37,7.37,0,0,1-1.16-.78c-.82-.53-1.47-.41-2.26-1l-1.32-1a.65.65,0,0,1-.32-.53,2.68,2.68,0,0,1,.13-.59l.13-.17c.12-.16.14,0,.26-.16l.1-.13c.22.1.32,0,.43.11a3.25,3.25,0,0,1,.57.71l.38.28c.53.4,1.19.35,1.56.67l.64.55.07.28c.32.24.3.36.5.51s1,.45,1.13.36l.52.39a.22.22,0,0,1,0,.32Zm5.41-2.78-.1.12-.46-.26-.19-.15c-.8-.59-.48-1.39-.92-1.73l-.25.44-.12.19-.59.67c-.39.12-1.48.84-1.84.58l-.14-.11c-.11-.08-.12-.14,0-.24l.1-.13c.61-.82,2.35-.62,2.53-1.8.56-.75.37-1.46.77-2,0,.07,0,.95,0,1.14a6.91,6.91,0,0,0,.2,1.12,4.37,4.37,0,0,0,1,2.17Zm7.06,2.16-.91.92-.57.27c-.15-.1-.2-.08-.36-.2s-.06-.51.08-.71l.44-.58c.13-.17.57-.27.87-.66a5.62,5.62,0,0,1,.82-1c.38.33.06,1.54-.37,2ZM72,59.84l-.53.72-.49.53c-.36,0-.18.14-.69,0-.24-.27-.29-.4,0-.73l.24-.31c.16-.21.64-.51.82-.72s.27-.64.53-1c-.18-.29.33-.49.42.4A2.48,2.48,0,0,1,72,59.84Z"/></svg>