<?xml version="1.0" encoding="UTF-8"?>
<svg id="Layer_2" data-name="Layer 2" xmlns="http://www.w3.org/2000/svg" viewBox="0 0 2119.87 488.93">
  <defs>
    <style>
      .cls-1 {
        fill: #eae6df;
      }

      .cls-1, .cls-2, .cls-3, .cls-4, .cls-5 {
        stroke-width: 0px;
      }

      .cls-2 {
        fill: #f7f4ed;
      }

      .cls-3 {
        fill: #7da694;
      }

      .cls-6 {
        opacity: .78;
      }

      .cls-4 {
        fill: #9b9997;
      }

      .cls-5 {
        fill: #cabe7e;
      }
    </style>
  </defs>
  <g id="Layer_1-2" data-name="Layer 1">
    <g>
      <path class="cls-3" d="M103.03,123.62c2.57-4.69,6.45-8.31,10.17-12.15,14.43-14.9,30.82-27.15,49.54-36.2,1.07,18.96.26,45.1.25,64.57v115.75s.02,104.86.02,104.86v33.68c0,6.06.21,13.5-.16,19.39-16.27-8.29-49.45-29.17-59.21-47.03-1.17-2.14-.61-31.52-.6-37.26V123.62Z"/>
      <path class="cls-3" d="M327.25,76.15c18.22,8.86,34.78,20.79,48.94,35.28,3.34,3.37,7.51,7.59,9.8,11.7.67,19.9.07,43.01.1,63.25.03,18.29.6,41.12-.28,59.02l.16,23.36.03,1.46.02,4.2-.04,1.79c.21,10.51.93,86.59-.65,90.7-1.49,3.88-5.46,7.52-8.36,10.42-14.47,14.47-31.29,26.38-49.74,35.22v-112.94c0-18.62.08-108.98.08-126.98l-.06-96.48Z"/>
      <path class="cls-3" d="M398.73,146.5l.09-6.39c27.53,43.43,39.45,92.85,27.99,143.7-5.37,23.43-14.89,45.7-28.13,65.76-1.28-29.85-.85-201.38.04-203.07Z"/>
      <path class="cls-3" d="M90.61,350.41c-4.75-7.61-9.24-15.12-13.19-23.18-30.75-62.68-24.15-129.21,12.79-187.25.59,4.38.41,11.41.41,16.01l-.03,24.59s.02,114.57.03,120.24l-.02,49.6Z"/>
      <path class="cls-4" d="M58.3,326.33c1.4-.1,2.02.7,2.77,1.79,6.07,8.81,12.35,17.47,18.56,26.19,10.26,14.35,20.66,28.58,31.23,42.7-7.4,9.06-20.06,21.96-28.32,30.94-1.67-1.56-3.51-3.16-5.23-4.69-28.02-26.68-41.88-47.38-58.11-82.31,12.4-4.27,27.03-9.63,39.1-14.62Z"/>
      <path class="cls-4" d="M428.75,326.62c11,3.34,28.83,11.07,40.29,15.35-15.1,32.84-30.26,55.18-56.33,80.24l-7.1,6.3c-8.52-10.19-19.35-21.06-28.4-31.07,10.9-14.19,21.58-28.54,32.06-43.05,6.37-8.73,13.85-18.62,19.48-27.76Z"/>
      <path class="cls-4" d="M235.04.22c21.03-.91,40.11,1.06,60.64,5.11-2.86,10.02-6.15,30.36-8.18,41.17h-33.53c-17.66-.08-35.33-.06-52.99.1-1.72-12.9-5.14-28.53-7.69-41.49,15.1-2.92,26.51-3.98,41.75-4.89Z"/>
      <path class="cls-4" d="M200.92,442.6l86.2.02c2.03,12.12,5.17,29.2,8.15,40.89-3.67.73-7.35,1.41-11.05,2.03-28.6,5.33-62.73,4.12-91.15-2.01.53-2.24,1.02-4.81,1.41-7.09,1.91-11.13,4.98-22.66,6.43-33.85Z"/>
      <path class="cls-4" d="M23.48,138.32c13.35,6.36,27.22,12.2,40.42,18.61-3.01,8.58-19.15,72.36-20.3,73.66l-1.93.03-41.39.03c1.35-33.17,9.29-62.35,23.21-92.32Z"/>
      <path class="cls-4" d="M367.56,404.96c1.21.38,26.63,28.41,28.89,31.09-22.23,17.41-47.24,30.92-73.98,39.97-5.15,1.79-10.87,3.4-16.14,4.97-2.26-13.42-5.23-27.6-7.78-41.04,23.22-11.22,46.23-22.89,69.01-34.99Z"/>
      <path class="cls-4" d="M119.97,404.73c7.19,2.92,21.55,11.1,28.77,14.89,13.63,7.02,27.37,13.82,41.22,20.39-2.91,10.05-6.12,30.08-8.06,40.92l-15.42-4.71c-24.18-8.48-55.11-23.96-74.87-40.58,8.79-10.04,19.23-21.02,28.36-30.91Z"/>
      <path class="cls-4" d="M465.72,140.21c1.35.79,4.38,8.91,5.18,10.82,10.86,25.73,15.78,51.57,17.77,79.29-12.95.19-26.14.07-39.1.07-1.8.07-2.77.26-4.42-.35-2.91-7.87-6.77-25.21-9.03-33.83-3.32-12.64-7.42-26.29-10.43-38.82,12.76-5.4,27.31-12.35,40.05-17.16Z"/>
      <path class="cls-4" d="M87.38,56.61c2.13,2.02,7.11,8.06,9.17,10.42,6.28,7.32,12.65,14.56,19.13,21.7-5.21,6.99-11.69,14.74-17.19,21.63-9.67,12.17-19.43,24.25-29.3,36.26l-7.38-3.51c-10.87-5.2-21.8-10.3-32.77-15.29,12.65-25.24,36.74-53.33,58.35-71.21Z"/>
      <path class="cls-4" d="M306.88,8.09c32.66,8.59,60.09,22.35,87.01,42.53-6.45,7.14-12.78,14.37-19.01,21.7-2.94,3.53-5.95,7.01-9.02,10.44-20.92-11.29-45.42-22.57-66.87-33.14,2.04-13.22,5.44-28.04,7.88-41.52Z"/>
      <path class="cls-4" d="M445.44,242.36c14.55-.05,29.1-.02,43.65.09.26,30.71-4.48,56.62-14.51,85.55-.69,1.56-.56,2.05-1.74,2.75-3.46-.9-9.78-3.58-13.32-4.97-8.83-3.48-17.49-7.08-26.38-10.45,4.87-23.61,8.01-49.15,12.3-72.97Z"/>
      <path class="cls-4" d="M403.03,58.26c2.6,1.53,8.6,7.24,10.92,9.45,19.44,18.45,33.63,38.24,46.62,61.48-9.64,3.74-21.43,9.42-30.89,13.83-3.16,1.49-6.34,2.93-9.55,4.32-14.92-18.4-29.88-38.43-44.74-57.15,8.53-10.11,18.63-22.48,27.63-31.93Z"/>
      <path class="cls-4" d="M180.27,8.46c1.48-.2.9-.41,1.91.25,2.88,13.04,5.28,28.04,7.82,41.3-6,2.37-14.99,7.01-21.12,9.96-14.73,7.1-29.41,14.28-44.05,21.55l-7.81-9.28c-6.71-7.44-13.32-15.35-19.98-22.91,5.03-4.41,11.48-8.53,17.17-12.11,21.36-13.41,41.98-21.88,66.06-28.76Z"/>
      <path class="cls-4" d="M0,242.35l43.57.07c.39,3.34.95,6.8,1.51,10.12,3.48,20.68,6.47,41.67,10.6,62.22-3.24,1.34-6.93,2.64-10.24,3.89-10.05,3.6-20.32,7.59-30.34,11.33C4.28,299.62-.05,274.37,0,242.35Z"/>
      <path class="cls-3" d="M314.71,120.54l.09-29.53c.02-5.3.2-10.71-.17-15.99-.35-5.05-4.02-6.93-8.46-8.01-14.44-3.51-29.06-6.26-43.59-9.33-3.5-.74-7.53-1.73-11.03-2.13l.08,104.06v30.86c0,4.93-.17,11.86.18,16.87,14.58,2.7,26.35,13.39,30.61,27.36.39,1.03.75,2.07,1.06,3.13-.08-.03-.16,0-.24.05.58,2.7.89,5.49.89,8.37,0,7.31-1.99,14.15-5.45,20.03,0,.34.02.66.04.95-4.2,6.31-8.64,10.34-14.88,13.57-2.02,1.13-4.16,2.09-6.38,2.86-2.05.84-4.39,1.81-5.8,2.59l-.04,146.86c18.99-2.86,39.63-7.65,58.37-12.12,2.68-.64,4.76-5.21,4.54-7.69.37-12.41-.02-24.87-.03-37.29l.19-78.94c.03-3.49-.43-18.33.17-20.7v-.87s.06-4.09.06-4.09c-.3-9.9-.21-150.87-.21-150.87Z"/>
      <path class="cls-3" d="M239.41,285.48c-7.37-1.86-12.27-3.33-18.42-8.01-2.62-2.07-4.8-4.31-6.63-6.61-5.89-6.91-9.46-15.87-9.46-25.66,0-20.16,15.08-36.79,34.57-39.25.1-4.7-.08-10.24-.1-14.71v-29.45s.08-106.19.08-106.19c-6.81.39-58.67,10.11-62.09,14.01-1.33,1.52-1.68,4.52-1.85,6.46-.83,9.37-.11,19.38-.1,28.81,0,0,.16,233.08.08,264.19,0,14.11-.67,34.19.09,47.82.38.59,2.03,3.16,2.57,3.35,16.06,5.56,33.85,7.67,50.49,11.3,3.51.77,7.57,1.36,10.95,1.65l-.04-100.67c0-14.92.38-32.25-.14-47.03Z"/>
      <circle class="cls-5" cx="245.06" cy="245.49" r="28.88"/>
    </g>
    <g>
      <g>
        <path class="cls-2" d="M678.26,88.8c9.57,0,19.21.21,28.93.62,9.71.41,19.49-.06,29.34-1.44,1.37,0,2.46.41,3.28,1.23s1.64,1.23,2.46,1.23c.82-.82,1.23-1.16,1.23-1.03s.68-.06,2.05-.62c8.21,0,17.3-.21,27.28-.62,9.98-.41,18.94-1.03,26.87-1.85-5.74,4.92-11.76,8.82-18.05,11.69-6.3,2.87-12.79,5.06-19.49,6.56-6.71,1.51-13.54,2.6-20.51,3.28-6.98.69-14.16,1.3-21.54,1.85-17.23,14.77-31.39,31.05-42.46,48.82-11.08,17.78-20.17,36.93-27.28,57.44.27,4.92.62,9.64,1.03,14.15.41,4.51,1.29,8.82,2.67,12.92,1.37,4.1,3.42,7.94,6.15,11.49,2.73,3.56,6.56,6.71,11.49,9.44,3.83,3.01,7.93,5.27,12.31,6.77,4.37,1.51,8.48,3.49,12.31,5.95,3.83,1.37,8.07,1.99,12.72,1.85,4.65-.13,8.62.62,11.9,2.26.27-1.09,1.16-1.78,2.67-2.05,1.5-.27,3.28-.54,5.33-.82,2.05-.27,4.17-.54,6.36-.82,2.19-.27,3.96-.96,5.33-2.05,3.55-1.09,6.63-2.12,9.23-3.08,2.6-.96,5.13-2.19,7.59-3.69,2.46-1.5,5.13-3.21,8-5.13,2.87-1.91,6.36-4.51,10.46-7.8l4.1.82c-9.85,11.22-17.23,18.19-22.16,20.92l-18.05,11.08c-7.12,4.65-14.5,7.73-22.16,9.23-7.66,1.5-14.5,1.98-20.51,1.44-4.92.82-10.26.54-16-.82-5.74-1.37-10.53-2.74-14.36-4.1-.55-1.64-1.44-2.6-2.67-2.87-1.23-.27-2.53-.41-3.9-.41s-2.67-.06-3.9-.21c-1.23-.13-2.12-.88-2.67-2.26-9.58-3.83-17.71-9.64-24.41-17.44-6.71-7.8-11.69-16.21-14.98-25.23-.55-12.31,1.03-23.93,4.72-34.87,3.69-10.94,8.55-21.4,14.57-31.39,6.01-9.98,12.72-19.55,20.1-28.72,7.38-9.16,14.49-18.12,21.33-26.87,5.47-3.01,8.21-7.39,8.21-13.13-11.49-.54-23.39-.41-35.7.41-12.31.82-24.21,1.51-35.7,2.05v-3.28l29.54-31.59c1.37,3.01,3.55,5.2,6.56,6.56,3.01,1.37,6.36,2.33,10.05,2.87,3.69.55,7.38.82,11.08.82s6.77.14,9.23.41Z"/>
        <path class="cls-2" d="M875.9,43.67c-.28,2.46-1.78,5.13-4.51,8-2.74,2.87-5.2,5.68-7.38,8.41-5.74,11.22-9.44,20.66-11.08,28.31-1.64,7.66-2.4,15.18-2.26,22.57.13,7.38.41,15.32.82,23.8.41,8.48-.21,19.28-1.85,32.41l6.15,5.33c8.21-3.83,15.45-9.16,21.75-16,6.29-6.83,12.72-13.4,19.28-19.69,6.56-6.29,13.6-11.42,21.13-15.39,7.52-3.96,16.62-5.13,27.28-3.49,14.77,18.87,24.82,38.57,30.16,59.08,5.33,20.51,6.22,40.21,2.67,59.08l-19.28,32c2.46,3.01,5.13,4.79,8,5.33,2.87.55,5.74.62,8.62.21,2.87-.41,5.67-1.09,8.41-2.05,2.73-.96,5.19-1.71,7.38-2.26-3.28,6.84-7.53,11.97-12.72,15.39-5.2,3.42-10.94,5.88-17.23,7.38-6.3,1.51-12.92,2.33-19.9,2.46-6.98.14-13.75.35-20.31.62,1.64-5.74,4.37-10.73,8.21-14.98,3.83-4.24,7.52-8.62,11.08-13.13,3.55-4.51,6.29-9.57,8.21-15.18,1.91-5.6,1.78-12.65-.41-21.13,1.64-7.39,1.71-14.7.2-21.95-1.51-7.24-3.97-14.49-7.38-21.75-3.42-7.24-7.53-14.49-12.31-21.75-4.79-7.24-9.64-14.42-14.57-21.54l-19.28,10.67c-7.12,7.39-13.54,14.84-19.28,22.36-5.74,7.53-10.81,15.8-15.18,24.82-4.38,9.03-7.8,19.22-10.26,30.57-2.46,11.35-3.97,24.55-4.51,39.59-3.01,3.83-5.47,6.91-7.38,9.23-1.92,2.33-3.76,4.38-5.54,6.15-1.78,1.78-3.9,3.42-6.36,4.92-2.46,1.51-5.47,3.08-9.03,4.72-1.64,0-2.74.41-3.28,1.23-.55.82-1.03,1.64-1.44,2.46-.41.82-1.03,1.23-1.85,1.23s-2.19-.82-4.1-2.46c3.28-4.92,5.6-10.05,6.97-15.39,1.37-5.33,2.32-10.87,2.87-16.62.54-5.74,1.09-11.55,1.64-17.44.54-5.88,1.64-11.96,3.28-18.26.27-5.74.21-11.96-.2-18.67-.41-6.7-.82-13.47-1.23-20.31-.41-6.83-.55-13.54-.41-20.1.13-6.56.88-12.72,2.26-18.46-1.37-10.94-1.92-19.83-1.64-26.67.27-6.83.96-12.99,2.05-18.46,1.09-5.47,2.39-11.01,3.9-16.62,1.5-5.6,2.94-12.78,4.31-21.54-4.38-1.64-8.14-2.19-11.28-1.64-3.15.55-5.95,1.44-8.41,2.67-2.46,1.23-4.72,2.46-6.77,3.69-2.05,1.23-4.31,1.71-6.77,1.44,4.38-6.01,9.37-11.01,14.98-14.98,5.6-3.96,11.69-7.18,18.26-9.64,6.56-2.46,13.54-4.44,20.92-5.95,7.38-1.5,15.18-2.94,23.39-4.31l1.23,1.64Z"/>
        <path class="cls-2" d="M1141.76,133.93c2.46,4.1,3.49,7.73,3.08,10.87-.41,3.15-1.51,5.95-3.28,8.41-1.78,2.46-3.9,4.72-6.36,6.77s-4.65,4.04-6.56,5.95h-6.56c-2.19-6.56-4.86-10.94-8-13.13-3.15-2.19-6.5-3.62-10.05-4.31-3.56-.68-7.25-1.29-11.08-1.85-3.83-.54-7.53-2.32-11.08-5.33-8.48-.54-16.14,2.12-22.98,8-6.84,5.88-12.45,12.65-16.82,20.31.27,2.74.06,4.92-.62,6.56-.69,1.64-1.23,3.15-1.64,4.51-.41,1.37-.35,2.74.2,4.1.54,1.37,2.32,3.15,5.33,5.33,6.29-1.64,12.85-2.39,19.69-2.26,6.83.14,13.81.62,20.92,1.44,7.11.82,14.29,1.58,21.54,2.26,7.24.69,14.42.76,21.54.21-4.1,6.02-8.96,10.4-14.57,13.13-5.61,2.74-11.69,4.45-18.26,5.13-6.56.69-13.48.62-20.72-.21-7.25-.82-14.43-1.78-21.54-2.87-.28,2.74-1.3,4.1-3.08,4.1h-5.95c.27,3.83.75,7.94,1.44,12.31.68,4.38,1.57,8.82,2.67,13.33,1.09,4.51,2.6,8.76,4.51,12.72,1.91,3.97,4.24,7.32,6.97,10.05,6.29,2.74,12.72,5.2,19.28,7.39,6.56,2.19,12.99,3.83,19.28,4.92,6.29,1.1,12.37,1.37,18.26.82,5.88-.54,11.28-2.32,16.21-5.33,3.83-1.91,7.52-4.03,11.08-6.36,3.55-2.32,7.38-4.44,11.49-6.36-1.1,6.3-5.06,12.45-11.9,18.46-6.84,6.02-15.25,11.01-25.23,14.98-9.99,3.97-20.93,6.3-32.82,6.97-11.9.68-23.46-1.29-34.67-5.95-3.28.55-6.56-.27-9.85-2.46-3.28-2.19-6.43-4.92-9.44-8.21-3.01-3.28-5.95-6.7-8.82-10.26-2.87-3.55-5.68-6.42-8.41-8.62-4.38-15.04-6.77-29.6-7.18-43.7-.41-14.08,1.98-26.87,7.18-38.36,7.93-14.77,18.19-26.8,30.77-36.11,12.58-9.3,26.8-17.09,42.67-23.39,9.03,1.64,17.91,3.42,26.67,5.33,8.75,1.92,17.64,5.47,26.67,10.67Z"/>
        <path class="cls-2" d="M1382.18,88.8c8.21,0,17.09.89,26.67,2.67,9.57,1.78,17.91,4.72,25.03,8.82l13.13,14.77c-3.28,5.47-7.18,9.85-11.69,13.13-4.51,3.28-8.82,6.84-12.92,10.67-3.56-4.1-7.87-8.47-12.92-13.13-5.06-4.65-10.53-8.75-16.41-12.31-5.88-3.55-12.1-6.08-18.67-7.59-6.56-1.5-13.27-1.16-20.1,1.03-5.74,2.19-9.51,5.47-11.28,9.85-1.78,4.38-3.49,9.03-5.13,13.95,1.91,10.4,6.01,18.05,12.31,22.98,6.29,4.92,13.47,8.76,21.54,11.49,8.06,2.74,16.48,5.06,25.23,6.97,8.75,1.92,16.68,5.06,23.8,9.44,4.92,3.01,10.12,6.09,15.59,9.23,5.47,3.15,10.53,6.71,15.18,10.67,4.65,3.97,8.41,8.55,11.28,13.74,2.87,5.2,4.17,11.22,3.9,18.05-1.64,7.39-4.79,14.09-9.44,20.1-4.65,6.02-9.71,11.9-15.18,17.64-7.12,4.65-14.64,9.1-22.57,13.33-7.94,4.24-16.28,7.53-25.03,9.85-8.76,2.32-18.12,3.28-28.1,2.87-9.99-.41-20.59-2.8-31.8-7.18-4.65-1.64-9.51-3.21-14.57-4.72-5.06-1.5-9.51-4.31-13.33-8.41-2.19-1.91-3.35-3.83-3.49-5.74-.14-1.91.27-3.76,1.23-5.54.96-1.78,2.12-3.55,3.49-5.33,1.37-1.78,2.32-3.62,2.87-5.54,3.83-3.28,6.9-6.56,9.23-9.85,2.32-3.28,5.54-5.74,9.64-7.38-.82,4.38-.62,7.94.62,10.67,1.23,2.74,2.87,5.13,4.92,7.18s4.31,4.04,6.77,5.95c2.46,1.92,4.37,4.1,5.74,6.56,4.92,3.01,9.85,4.72,14.77,5.13,4.92.41,10.12.89,15.59,1.44,3.01,2.46,6.22,3.83,9.64,4.1,3.42.28,6.83.07,10.26-.62,3.42-.68,6.97-1.57,10.67-2.67,3.69-1.09,7.18-1.91,10.46-2.46,3.83-1.64,7.59-3.69,11.28-6.15,3.69-2.46,6.77-5.6,9.23-9.44-1.92-9.57-5.95-17.91-12.1-25.03-6.15-7.11-13.33-13.19-21.54-18.26-8.21-5.06-17.03-9.23-26.46-12.51-9.44-3.28-18.4-6.01-26.87-8.21-1.37-2.19-2.87-3.76-4.51-4.72-1.64-.96-3.28-1.64-4.92-2.05s-3.49-.68-5.54-.82c-2.05-.13-4.17-.62-6.36-1.44-6.02-4.37-11.9-9.57-17.64-15.59-5.74-6.01-8.89-13.13-9.44-21.33,2.19-3.83,4.24-8.41,6.15-13.74,1.91-5.33,4.51-10.05,7.8-14.16,4.37-2.46,8.89-5.6,13.54-9.44,4.65-3.83,9.37-7.39,14.15-10.67,4.78-3.28,9.71-5.81,14.77-7.59,5.06-1.78,10.32-1.85,15.8-.2l5.74-2.46Z"/>
        <path class="cls-2" d="M1552.04,43.67c-.28,2.46-1.78,5.13-4.51,8-2.74,2.87-5.2,5.68-7.38,8.41-5.74,11.22-9.44,20.66-11.08,28.31-1.64,7.66-2.4,15.18-2.26,22.57.13,7.38.41,15.32.82,23.8.41,8.48-.21,19.28-1.85,32.41l6.15,5.33c8.21-3.83,15.45-9.16,21.75-16,6.29-6.83,12.72-13.4,19.28-19.69,6.56-6.29,13.6-11.42,21.13-15.39,7.52-3.96,16.62-5.13,27.28-3.49,14.77,18.87,24.82,38.57,30.16,59.08,5.33,20.51,6.22,40.21,2.67,59.08l-19.28,32c2.46,3.01,5.13,4.79,8,5.33,2.87.55,5.74.62,8.62.21,2.87-.41,5.67-1.09,8.41-2.05,2.73-.96,5.19-1.71,7.38-2.26-3.28,6.84-7.53,11.97-12.72,15.39-5.2,3.42-10.94,5.88-17.23,7.38-6.3,1.51-12.92,2.33-19.9,2.46-6.98.14-13.75.35-20.31.62,1.64-5.74,4.37-10.73,8.21-14.98,3.83-4.24,7.52-8.62,11.08-13.13,3.55-4.51,6.29-9.57,8.21-15.18,1.91-5.6,1.78-12.65-.41-21.13,1.64-7.39,1.71-14.7.2-21.95-1.51-7.24-3.97-14.49-7.38-21.75-3.42-7.24-7.53-14.49-12.31-21.75-4.79-7.24-9.64-14.42-14.57-21.54l-19.28,10.67c-7.12,7.39-13.54,14.84-19.28,22.36-5.74,7.53-10.81,15.8-15.18,24.82-4.38,9.03-7.8,19.22-10.26,30.57-2.46,11.35-3.97,24.55-4.51,39.59-3.01,3.83-5.47,6.91-7.38,9.23-1.92,2.33-3.76,4.38-5.54,6.15-1.78,1.78-3.9,3.42-6.36,4.92-2.46,1.51-5.47,3.08-9.03,4.72-1.64,0-2.74.41-3.28,1.23-.55.82-1.03,1.64-1.44,2.46-.41.82-1.03,1.23-1.85,1.23s-2.19-.82-4.1-2.46c3.28-4.92,5.6-10.05,6.97-15.39,1.37-5.33,2.32-10.87,2.87-16.62.54-5.74,1.09-11.55,1.64-17.44.54-5.88,1.64-11.96,3.28-18.26.27-5.74.21-11.96-.2-18.67-.41-6.7-.82-13.47-1.23-20.31-.41-6.83-.55-13.54-.41-20.1.13-6.56.88-12.72,2.26-18.46-1.37-10.94-1.92-19.83-1.64-26.67.27-6.83.96-12.99,2.05-18.46,1.09-5.47,2.39-11.01,3.9-16.62,1.5-5.6,2.94-12.78,4.31-21.54-4.38-1.64-8.14-2.19-11.28-1.64-3.15.55-5.95,1.44-8.41,2.67-2.46,1.23-4.72,2.46-6.77,3.69-2.05,1.23-4.31,1.71-6.77,1.44,4.38-6.01,9.37-11.01,14.98-14.98,5.6-3.96,11.69-7.18,18.26-9.64,6.56-2.46,13.54-4.44,20.92-5.95,7.38-1.5,15.18-2.94,23.39-4.31l1.23,1.64Z"/>
        <path class="cls-2" d="M1717.38,129.83c5.19,0,10.19-.62,14.98-1.85,4.78-1.23,9.78-1.03,14.98.62.27,1.1.2,2.12-.21,3.08-.41.96-.82,1.78-1.23,2.46-.41.69-.48,1.3-.21,1.85.27.55,1.23.96,2.87,1.23.54,3.01.62,5.88.2,8.62-.41,2.74-.89,5.47-1.44,8.21-.55,2.74-1.03,5.4-1.44,8-.41,2.6-.35,5.27.2,8-1.92,4.92-2.53,9.71-1.85,14.36.68,4.65.34,9.58-1.03,14.77-2.74,9.58-3.9,20.1-3.49,31.59.41,11.49.75,22.02,1.03,31.59.82,3.28,2.26,6.09,4.31,8.41,2.05,2.33,4.17,4.58,6.36,6.77,3.83-.27,7.45-.06,10.87.62,3.42.69,7.04,1.3,10.87,1.85-1.37,3.01-3.76,5.13-7.18,6.36-3.42,1.23-6.64,2.81-9.64,4.72-6.3,2.19-12.38,3.56-18.26,4.1-5.89.54-12.38.13-19.49-1.23,0-2.46-.62-4.03-1.85-4.72-1.23-.68-2.67-1.23-4.31-1.64-1.64-.41-3.08-1.03-4.31-1.85-1.23-.82-1.85-2.46-1.85-4.92-1.1-12.03-.62-24.07,1.44-36.11,2.05-12.03,3.62-24.62,4.72-37.75,2.73-6.56,3.83-14.01,3.28-22.36-.55-8.34-.96-16.07-1.23-23.18-2.19-3.01-4.31-6.22-6.36-9.64-2.05-3.42-5.13-4.99-9.23-4.72-1.64-.27-3.22-.06-4.72.62-1.51.69-3.01,1.44-4.51,2.26-1.51.82-2.94,1.3-4.31,1.44-1.37.14-2.6-.47-3.69-1.85,5.19-4.65,11.01-8.14,17.44-10.46,6.42-2.32,12.51-5.4,18.26-9.23ZM1758.41,68.29c-2.19,2.19-4.92,4.51-8.21,6.97-3.28,2.46-5.61,5.61-6.97,9.44-3.83,1.37-7.32,1.71-10.46,1.03-3.15-.68-6.09-1.85-8.82-3.49-2.74-1.64-5.47-3.55-8.21-5.74-2.74-2.19-5.61-4.1-8.62-5.74-.82-1.64-.96-3.08-.41-4.31.54-1.23,1.3-2.32,2.26-3.28.95-.96,2.05-1.91,3.28-2.87,1.23-.96,2.26-2.12,3.08-3.49,1.91-.54,3.62-1.57,5.13-3.08,1.5-1.5,3.08-2.87,4.72-4.1s3.42-2.05,5.33-2.46c1.91-.41,4.1.2,6.56,1.85,4.65.82,8.62,3.28,11.9,7.38,3.28,4.1,6.42,8.07,9.44,11.9Z"/>
        <path class="cls-2" d="M1939.75,121.21c4.1,3.56,6.7,7.25,7.8,11.08,1.09,3.83,1.57,7.59,1.44,11.28-.14,3.69-.55,7.32-1.23,10.87-.69,3.56-.62,6.97.2,10.26-4.92,13.13-12.04,23.8-21.33,32-9.3,8.21-20.92,14.36-34.87,18.46,4.37,6.84,9.16,14.23,14.36,22.16,5.19,7.94,10.8,15.25,16.82,21.95,6.01,6.71,12.37,12.1,19.08,16.21,6.7,4.1,13.6,5.74,20.72,4.92-4.1,2.19-7.94,4.58-11.49,7.18-3.56,2.6-7.18,4.86-10.87,6.77s-7.73,2.94-12.1,3.08c-4.38.13-9.44-1.17-15.18-3.9-6.02-3.28-11.63-8.41-16.82-15.39-5.2-6.97-10.46-13.95-15.8-20.92s-10.87-13.19-16.62-18.67c-5.74-5.47-12.17-8.34-19.28-8.62-2.46,4.1-3.83,9.17-4.1,15.18-.28,6.02-.48,12.04-.62,18.05-.14,6.02-.82,11.69-2.05,17.03-1.23,5.33-3.9,9.37-8,12.1-4.1,2.19-8.82,4.1-14.15,5.74s-10.46,1.37-15.39-.82c4.65-6.56,7.86-14.49,9.64-23.8,1.78-9.3,2.87-19.14,3.28-29.54.41-10.39.47-20.99.21-31.8-.28-10.8,0-21.13.82-30.98,1.09-6.01,1.37-11.42.82-16.21-.55-4.78-.14-10.19,1.23-16.21-1.1-3.01-3.15-5.54-6.15-7.59-3.01-2.05-6.36-3.49-10.05-4.31s-7.25-1.09-10.67-.82c-3.42.28-6.08,1.23-8,2.87.82-3.28,3.15-6.22,6.97-8.82,3.83-2.6,8.68-4.78,14.57-6.56,5.88-1.78,12.44-3.21,19.69-4.31,7.24-1.09,14.83-1.64,22.77-1.64,1.91,4.65,2.6,8.48,2.05,11.49-.55,3.01-.82,6.43-.82,10.26,6.29-2.73,12.51-5.81,18.67-9.23,6.15-3.42,12.44-6.49,18.87-9.23,6.42-2.73,13.13-4.85,20.1-6.36,6.97-1.5,14.42-1.85,22.36-1.03l13.13,7.8ZM1884.36,136.8c-6.3,2.19-11.28,4.17-14.97,5.95-3.69,1.78-6.84,3.69-9.44,5.74-2.6,2.05-4.99,4.45-7.18,7.18-2.19,2.74-4.92,6.02-8.21,9.85l-1.23,48c4.1-1.09,8.68-2.05,13.75-2.87,5.06-.82,10.12-1.78,15.18-2.87,5.06-1.09,9.91-2.6,14.57-4.51,4.65-1.91,8.75-4.65,12.31-8.21,2.46-4.1,5.19-7.45,8.21-10.05,3.01-2.6,5.47-5.4,7.38-8.41,1.91-3.01,3.01-6.7,3.28-11.08.27-4.37-1.1-10.53-4.1-18.46-2.19-3.01-4.51-5.13-6.97-6.36-2.46-1.23-4.92-1.98-7.38-2.26-2.46-.27-4.99-.41-7.59-.41s-5.13-.41-7.59-1.23Z"/>
        <path class="cls-2" d="M2105.51,133.93c2.46,4.1,3.49,7.73,3.08,10.87-.41,3.15-1.51,5.95-3.28,8.41-1.78,2.46-3.9,4.72-6.36,6.77s-4.65,4.04-6.56,5.95h-6.56c-2.19-6.56-4.86-10.94-8-13.13-3.15-2.19-6.5-3.62-10.05-4.31-3.56-.68-7.25-1.29-11.08-1.85-3.83-.54-7.53-2.32-11.08-5.33-8.48-.54-16.14,2.12-22.98,8-6.84,5.88-12.45,12.65-16.82,20.31.27,2.74.06,4.92-.62,6.56-.69,1.64-1.23,3.15-1.64,4.51-.41,1.37-.35,2.74.2,4.1.54,1.37,2.32,3.15,5.33,5.33,6.29-1.64,12.85-2.39,19.69-2.26,6.83.14,13.81.62,20.92,1.44,7.11.82,14.29,1.58,21.54,2.26,7.24.69,14.42.76,21.54.21-4.1,6.02-8.96,10.4-14.57,13.13-5.61,2.74-11.69,4.45-18.26,5.13-6.56.69-13.48.62-20.72-.21-7.25-.82-14.43-1.78-21.54-2.87-.28,2.74-1.3,4.1-3.08,4.1h-5.95c.27,3.83.75,7.94,1.44,12.31.68,4.38,1.57,8.82,2.67,13.33,1.09,4.51,2.6,8.76,4.51,12.72,1.91,3.97,4.24,7.32,6.97,10.05,6.29,2.74,12.72,5.2,19.28,7.39,6.56,2.19,12.99,3.83,19.28,4.92,6.29,1.1,12.37,1.37,18.26.82,5.88-.54,11.28-2.32,16.21-5.33,3.83-1.91,7.52-4.03,11.08-6.36,3.55-2.32,7.38-4.44,11.49-6.36-1.1,6.3-5.06,12.45-11.9,18.46-6.84,6.02-15.25,11.01-25.23,14.98-9.99,3.97-20.93,6.3-32.82,6.97-11.9.68-23.46-1.29-34.67-5.95-3.28.55-6.56-.27-9.85-2.46-3.28-2.19-6.43-4.92-9.44-8.21-3.01-3.28-5.95-6.7-8.82-10.26-2.87-3.55-5.68-6.42-8.41-8.62-4.38-15.04-6.77-29.6-7.18-43.7-.41-14.08,1.98-26.87,7.18-38.36,7.93-14.77,18.19-26.8,30.77-36.11,12.58-9.3,26.8-17.09,42.67-23.39,9.03,1.64,17.91,3.42,26.67,5.33,8.75,1.92,17.64,5.47,26.67,10.67Z"/>
      </g>
      <g class="cls-6">
        <path class="cls-1" d="M714.15,403.97c-.29.47-.59.82-.91,1.05s-.71.34-1.19.34c-.5,0-1.06-.21-1.68-.63-.62-.42-1.39-.89-2.3-1.4s-1.99-.99-3.23-1.42c-1.24-.44-2.72-.65-4.43-.65-1.58,0-2.98.2-4.18.59-1.2.4-2.21.95-3.03,1.66s-1.43,1.55-1.84,2.51c-.41.96-.61,2.01-.61,3.15,0,1.45.38,2.66,1.15,3.62.77.96,1.77,1.79,3.03,2.47,1.25.69,2.68,1.29,4.29,1.8,1.61.51,3.25,1.06,4.93,1.64,1.68.58,3.32,1.24,4.93,1.98,1.61.74,3.04,1.68,4.29,2.81s2.26,2.52,3.03,4.16c.76,1.64,1.15,3.63,1.15,5.98,0,2.53-.44,4.91-1.31,7.12s-2.13,4.15-3.78,5.8-3.68,2.95-6.09,3.9c-2.41.95-5.16,1.42-8.25,1.42-1.82,0-3.6-.18-5.32-.53-1.73-.36-3.38-.86-4.95-1.5-1.57-.65-3.04-1.43-4.41-2.36-1.37-.92-2.6-1.95-3.68-3.09l2.69-4.43c.24-.37.54-.66.91-.87.37-.21.78-.32,1.23-.32.61,0,1.28.28,2.02.85s1.63,1.19,2.67,1.86c1.04.67,2.3,1.29,3.78,1.86,1.48.57,3.25.85,5.3.85,3.35,0,5.94-.82,7.78-2.45,1.83-1.64,2.75-3.89,2.75-6.77,0-1.61-.38-2.92-1.15-3.94-.77-1.02-1.78-1.87-3.03-2.55-1.25-.69-2.68-1.27-4.29-1.74s-3.25-.98-4.91-1.52c-1.66-.54-3.3-1.17-4.91-1.9-1.61-.73-3.04-1.67-4.29-2.85-1.25-1.17-2.26-2.63-3.03-4.35-.77-1.73-1.15-3.88-1.15-6.47,0-2.06.4-4.05,1.21-5.98.81-1.93,1.98-3.63,3.52-5.13,1.54-1.49,3.45-2.68,5.72-3.58s4.85-1.34,7.76-1.34c3.27,0,6.27.51,9,1.54,2.73,1.03,5.09,2.49,7.06,4.39l-2.26,4.43Z"/>
        <path class="cls-1" d="M799.95,443.74c2.19,0,4.15-.37,5.88-1.11s3.19-1.77,4.39-3.09c1.2-1.32,2.12-2.91,2.75-4.77.63-1.86.95-3.92.95-6.19v-34.35h9.22v34.35c0,3.35-.53,6.45-1.6,9.3-1.07,2.85-2.61,5.31-4.61,7.38-2.01,2.07-4.44,3.69-7.3,4.87s-6.09,1.76-9.68,1.76-6.81-.59-9.68-1.76c-2.86-1.17-5.3-2.8-7.3-4.87-2.01-2.07-3.54-4.53-4.61-7.38-1.07-2.85-1.6-5.95-1.6-9.3v-34.35h9.26v34.31c0,2.27.32,4.33.95,6.19.63,1.86,1.54,3.46,2.73,4.79,1.19,1.33,2.64,2.37,4.37,3.11s3.69,1.11,5.88,1.11Z"/>
        <path class="cls-1" d="M903.68,394.23c3.72,0,6.95.43,9.68,1.31,2.73.87,4.99,2.09,6.77,3.66s3.11,3.46,3.98,5.66,1.31,4.64,1.31,7.3-.46,5.2-1.39,7.46c-.92,2.26-2.3,4.2-4.12,5.82-1.82,1.62-4.08,2.89-6.79,3.8-2.7.91-5.85,1.37-9.44,1.37h-8.47v20.62h-9.26v-56.99h17.73ZM903.68,423.28c2.06,0,3.87-.26,5.44-.79,1.57-.53,2.88-1.27,3.92-2.24,1.04-.96,1.83-2.13,2.35-3.5.53-1.37.79-2.9.79-4.59s-.26-3.15-.77-4.47-1.29-2.44-2.32-3.36c-1.03-.92-2.33-1.63-3.9-2.12s-3.41-.73-5.52-.73h-8.47v21.81h8.47Z"/>
        <path class="cls-1" d="M1001.95,394.23c3.72,0,6.95.43,9.68,1.31,2.73.87,4.99,2.09,6.77,3.66s3.11,3.46,3.98,5.66,1.31,4.64,1.31,7.3-.46,5.2-1.39,7.46c-.92,2.26-2.3,4.2-4.12,5.82-1.82,1.62-4.08,2.89-6.79,3.8-2.7.91-5.85,1.37-9.44,1.37h-8.47v20.62h-9.26v-56.99h17.73ZM1001.95,423.28c2.06,0,3.87-.26,5.44-.79,1.57-.53,2.88-1.27,3.92-2.24,1.04-.96,1.83-2.13,2.35-3.5.53-1.37.79-2.9.79-4.59s-.26-3.15-.77-4.47-1.29-2.44-2.32-3.36c-1.03-.92-2.33-1.63-3.9-2.12s-3.41-.73-5.52-.73h-8.47v21.81h8.47Z"/>
        <path class="cls-1" d="M1115.41,443.47v7.76h-32.93v-56.99h9.26v49.23h23.67Z"/>
        <path class="cls-1" d="M1188.83,428.9v22.32h-9.22v-22.32l-20.82-34.67h8.11c.82,0,1.46.2,1.94.59s.87.9,1.19,1.5l11.68,20.42c.53,1.03,1.01,2.01,1.44,2.93s.82,1.83,1.17,2.73c.29-.92.65-1.84,1.07-2.75s.9-1.88,1.42-2.91l11.6-20.42c.26-.53.65-1.01,1.15-1.44.5-.44,1.15-.65,1.94-.65h8.15l-20.82,34.67Z"/>
        <path class="cls-1" d="M1372.15,438.52c.5,0,.94.2,1.31.59l3.68,4c-2.32,2.8-5.17,4.95-8.55,6.47s-7.41,2.28-12.11,2.28c-4.17,0-7.93-.72-11.3-2.16s-6.23-3.44-8.61-6.02c-2.37-2.57-4.2-5.64-5.48-9.2-1.28-3.56-1.92-7.48-1.92-11.75s.68-8.2,2.04-11.77c1.36-3.58,3.27-6.65,5.74-9.22,2.47-2.57,5.42-4.57,8.87-6s7.24-2.14,11.38-2.14,7.75.67,10.9,2c3.15,1.33,5.89,3.11,8.21,5.32l-3.05,4.31c-.21.29-.46.54-.75.75-.29.21-.69.32-1.19.32-.53,0-1.13-.24-1.8-.73s-1.53-1.03-2.57-1.62c-1.04-.59-2.35-1.13-3.92-1.62-1.57-.49-3.53-.73-5.88-.73-2.72,0-5.21.47-7.48,1.42-2.27.95-4.22,2.33-5.86,4.16-1.64,1.82-2.91,4.04-3.82,6.65-.91,2.61-1.37,5.58-1.37,8.91s.47,6.34,1.42,8.96c.95,2.63,2.26,4.84,3.92,6.65,1.66,1.81,3.61,3.19,5.86,4.14,2.24.95,4.66,1.42,7.24,1.42,1.58,0,3-.09,4.25-.26,1.25-.17,2.41-.45,3.46-.83s2.05-.86,2.99-1.44,1.87-1.29,2.79-2.14c.53-.47,1.06-.71,1.58-.71Z"/>
        <path class="cls-1" d="M1487.51,422.73c0,4.22-.69,8.11-2.06,11.68-1.37,3.56-3.3,6.63-5.8,9.2-2.49,2.57-5.49,4.58-8.98,6.04-3.5,1.45-7.38,2.18-11.66,2.18s-8.12-.73-11.62-2.18c-3.5-1.45-6.5-3.46-9-6.04-2.51-2.57-4.45-5.64-5.82-9.2s-2.06-7.45-2.06-11.68.69-8.11,2.06-11.68,3.31-6.64,5.82-9.22c2.51-2.59,5.51-4.6,9-6.06,3.5-1.45,7.37-2.18,11.62-2.18s8.16.73,11.66,2.18c3.49,1.45,6.49,3.47,8.98,6.06,2.49,2.59,4.43,5.66,5.8,9.22,1.37,3.56,2.06,7.45,2.06,11.68ZM1478.05,422.73c0-3.27-.44-6.21-1.33-8.83-.88-2.61-2.15-4.83-3.8-6.65s-3.65-3.22-6-4.2c-2.35-.98-4.99-1.46-7.92-1.46s-5.53.49-7.88,1.46c-2.35.98-4.35,2.37-6.02,4.2-1.66,1.82-2.94,4.04-3.84,6.65-.9,2.61-1.34,5.56-1.34,8.83s.45,6.25,1.34,8.86c.9,2.61,2.18,4.82,3.84,6.63,1.66,1.81,3.67,3.19,6.02,4.16,2.35.96,4.97,1.45,7.88,1.45s5.57-.48,7.92-1.45c2.35-.96,4.35-2.35,6-4.16,1.65-1.81,2.92-4.02,3.8-6.63.88-2.61,1.33-5.57,1.33-8.86Z"/>
        <path class="cls-1" d="M1608.22,394.23v56.99h-8.15v-39.06c0-.63.02-1.33.06-2.08s.1-1.51.18-2.28l-18.32,33.84c-.71,1.4-1.81,2.1-3.29,2.1h-1.31c-1.5,0-2.6-.7-3.28-2.1l-18.6-33.92c.08.77.14,1.53.18,2.3.04.76.06,1.48.06,2.14v39.06h-8.15v-56.99h6.93c.82,0,1.45.07,1.9.22.45.15.86.59,1.23,1.33l18.28,33.13c.4.77.77,1.55,1.13,2.35.36.81.68,1.63.97,2.47.32-.84.65-1.68,1.01-2.51s.73-1.63,1.13-2.39l18.01-33.05c.37-.74.78-1.18,1.23-1.33.45-.14,1.08-.22,1.9-.22h6.93Z"/>
        <path class="cls-1" d="M1689.43,394.23c3.72,0,6.95.43,9.68,1.31,2.73.87,4.99,2.09,6.77,3.66s3.11,3.46,3.98,5.66,1.31,4.64,1.31,7.3-.46,5.2-1.39,7.46c-.92,2.26-2.3,4.2-4.12,5.82-1.82,1.62-4.08,2.89-6.79,3.8-2.7.91-5.85,1.37-9.44,1.37h-8.47v20.62h-9.26v-56.99h17.73ZM1689.43,423.28c2.06,0,3.87-.26,5.44-.79,1.57-.53,2.88-1.27,3.92-2.24,1.04-.96,1.83-2.13,2.35-3.5.53-1.37.79-2.9.79-4.59s-.26-3.15-.77-4.47-1.29-2.44-2.32-3.36c-1.03-.92-2.33-1.63-3.9-2.12s-3.41-.73-5.52-.73h-8.47v21.81h8.47Z"/>
        <path class="cls-1" d="M1813.7,451.22h-7.16c-.82,0-1.48-.2-1.98-.61-.5-.41-.88-.92-1.15-1.52l-4.75-12.59h-24.54l-4.75,12.59c-.21.53-.58,1.02-1.11,1.46-.53.45-1.19.67-1.98.67h-7.16l22.6-56.99h9.38l22.6,56.99ZM1796.17,429.85l-7.84-20.82c-.63-1.61-1.28-3.65-1.94-6.13-.29,1.24-.61,2.38-.95,3.42-.34,1.04-.66,1.96-.95,2.75l-7.84,20.78h19.51Z"/>
        <path class="cls-1" d="M1917.47,394.23v56.99h-4.71c-.71,0-1.32-.12-1.82-.38s-.98-.67-1.42-1.25l-31.31-40.21c.08.76.14,1.52.18,2.27.04.75.06,1.45.06,2.08v37.48h-8.15v-56.99h4.83c.4,0,.73.02,1.01.06s.53.11.77.22c.24.11.46.26.67.47.21.21.44.47.67.79l31.35,40.25c-.08-.82-.14-1.62-.18-2.41-.04-.79-.06-1.53-.06-2.22v-37.16h8.11Z"/>
        <path class="cls-1" d="M2004.02,428.9v22.32h-9.22v-22.32l-20.82-34.67h8.11c.82,0,1.46.2,1.94.59s.87.9,1.19,1.5l11.68,20.42c.53,1.03,1.01,2.01,1.44,2.93s.82,1.83,1.17,2.73c.29-.92.65-1.84,1.07-2.75s.9-1.88,1.42-2.91l11.6-20.42c.26-.53.65-1.01,1.15-1.44.5-.44,1.15-.65,1.94-.65h8.15l-20.82,34.67Z"/>
      </g>
    </g>
  </g>
</svg>