<?xml version="1.0" encoding="UTF-8"?>
<svg id="Layer_2" data-name="Layer 2" xmlns="http://www.w3.org/2000/svg" viewBox="0 0 2045.1 488.93">
  <defs>
    <style>
      .cls-1 {
        fill: #fff;
      }

      .cls-1, .cls-2, .cls-3, .cls-4, .cls-5 {
        stroke-width: 0px;
      }

      .cls-2 {
        fill: #7da694;
      }

      .cls-3 {
        fill: #9b9997;
      }

      .cls-4 {
        fill: #cabe7e;
      }

      .cls-5 {
        fill: #d8d8d8;
      }
    </style>
  </defs>
  <g id="Layer_1-2" data-name="Layer 1">
    <g>
      <g>
        <path class="cls-2" d="M103.03,123.62c2.57-4.69,6.45-8.31,10.17-12.15,14.43-14.9,30.82-27.15,49.54-36.2,1.07,18.96.26,45.1.25,64.57v115.75s.02,104.86.02,104.86v33.68c0,6.06.21,13.5-.16,19.39-16.27-8.29-49.45-29.17-59.21-47.03-1.17-2.14-.61-31.52-.6-37.26V123.62Z"/>
        <path class="cls-2" d="M327.25,76.15c18.22,8.86,34.78,20.79,48.94,35.28,3.34,3.37,7.51,7.59,9.8,11.7.67,19.9.07,43.01.1,63.25.03,18.29.6,41.12-.28,59.02l.16,23.36.03,1.46.02,4.2-.04,1.79c.21,10.51.93,86.59-.65,90.7-1.49,3.88-5.46,7.52-8.36,10.42-14.47,14.47-31.29,26.38-49.74,35.22v-112.94c0-18.62.08-108.98.08-126.98l-.06-96.48Z"/>
        <path class="cls-2" d="M398.73,146.5l.09-6.39c27.53,43.43,39.45,92.85,27.99,143.7-5.37,23.43-14.89,45.7-28.13,65.76-1.28-29.85-.85-201.38.04-203.07Z"/>
        <path class="cls-2" d="M90.61,350.41c-4.75-7.61-9.24-15.12-13.19-23.18-30.75-62.68-24.15-129.21,12.79-187.25.59,4.38.41,11.41.41,16.01l-.03,24.59s.02,114.57.03,120.24l-.02,49.6Z"/>
        <path class="cls-3" d="M58.3,326.33c1.4-.1,2.02.7,2.77,1.79,6.07,8.81,12.35,17.47,18.56,26.19,10.26,14.35,20.66,28.58,31.23,42.7-7.4,9.06-20.06,21.96-28.32,30.94-1.67-1.56-3.51-3.16-5.23-4.69-28.02-26.68-41.88-47.38-58.11-82.31,12.4-4.27,27.03-9.63,39.1-14.62Z"/>
        <path class="cls-3" d="M428.75,326.62c11,3.34,28.83,11.07,40.29,15.35-15.1,32.84-30.26,55.18-56.33,80.24l-7.1,6.3c-8.52-10.19-19.35-21.06-28.4-31.07,10.9-14.19,21.58-28.54,32.06-43.05,6.37-8.73,13.85-18.62,19.48-27.76Z"/>
        <path class="cls-3" d="M235.04.22c21.03-.91,40.11,1.06,60.64,5.11-2.86,10.02-6.15,30.36-8.18,41.17h-33.53c-17.66-.08-35.33-.06-52.99.1-1.72-12.9-5.14-28.53-7.69-41.49,15.1-2.92,26.51-3.98,41.75-4.89Z"/>
        <path class="cls-3" d="M200.92,442.6l86.2.02c2.03,12.12,5.17,29.2,8.15,40.89-3.67.73-7.35,1.41-11.05,2.03-28.6,5.33-62.73,4.12-91.15-2.01.53-2.24,1.02-4.81,1.41-7.09,1.91-11.13,4.98-22.66,6.43-33.85Z"/>
        <path class="cls-3" d="M23.48,138.32c13.35,6.36,27.22,12.2,40.42,18.61-3.01,8.58-19.15,72.36-20.3,73.66l-1.93.03-41.39.03c1.35-33.17,9.29-62.35,23.21-92.32Z"/>
        <path class="cls-3" d="M367.56,404.96c1.21.38,26.63,28.41,28.89,31.09-22.23,17.41-47.24,30.92-73.98,39.97-5.15,1.79-10.87,3.4-16.14,4.97-2.26-13.42-5.23-27.6-7.78-41.04,23.22-11.22,46.23-22.89,69.01-34.99Z"/>
        <path class="cls-3" d="M119.97,404.73c7.19,2.92,21.55,11.1,28.77,14.89,13.63,7.02,27.37,13.82,41.22,20.39-2.91,10.05-6.12,30.08-8.06,40.92l-15.42-4.71c-24.18-8.48-55.11-23.96-74.87-40.58,8.79-10.04,19.23-21.02,28.36-30.91Z"/>
        <path class="cls-3" d="M465.72,140.21c1.35.79,4.38,8.91,5.18,10.82,10.86,25.73,15.78,51.57,17.77,79.29-12.95.19-26.14.07-39.1.07-1.8.07-2.77.26-4.42-.35-2.91-7.87-6.77-25.21-9.03-33.83-3.32-12.64-7.42-26.29-10.43-38.82,12.76-5.4,27.31-12.35,40.05-17.16Z"/>
        <path class="cls-3" d="M87.38,56.61c2.13,2.02,7.11,8.06,9.17,10.42,6.28,7.32,12.65,14.56,19.13,21.7-5.21,6.99-11.69,14.74-17.19,21.63-9.67,12.17-19.43,24.25-29.3,36.26l-7.38-3.51c-10.87-5.2-21.8-10.3-32.77-15.29,12.65-25.24,36.74-53.33,58.35-71.21Z"/>
        <path class="cls-3" d="M306.88,8.09c32.66,8.59,60.09,22.35,87.01,42.53-6.45,7.14-12.78,14.37-19.01,21.7-2.94,3.53-5.95,7.01-9.02,10.44-20.92-11.29-45.42-22.57-66.87-33.14,2.04-13.22,5.44-28.04,7.88-41.52Z"/>
        <path class="cls-3" d="M445.44,242.36c14.55-.05,29.1-.02,43.65.09.26,30.71-4.48,56.62-14.51,85.55-.69,1.56-.56,2.05-1.74,2.75-3.46-.9-9.78-3.58-13.32-4.97-8.83-3.48-17.49-7.08-26.38-10.45,4.87-23.61,8.01-49.15,12.3-72.97Z"/>
        <path class="cls-3" d="M403.03,58.26c2.6,1.53,8.6,7.24,10.92,9.45,19.44,18.45,33.63,38.24,46.62,61.48-9.64,3.74-21.43,9.42-30.89,13.83-3.16,1.49-6.34,2.93-9.55,4.32-14.92-18.4-29.88-38.43-44.74-57.15,8.53-10.11,18.63-22.48,27.63-31.93Z"/>
        <path class="cls-3" d="M180.27,8.46c1.48-.2.9-.41,1.91.25,2.88,13.04,5.28,28.04,7.82,41.3-6,2.37-14.99,7.01-21.12,9.96-14.73,7.1-29.41,14.28-44.05,21.55l-7.81-9.28c-6.71-7.44-13.32-15.35-19.98-22.91,5.03-4.41,11.48-8.53,17.17-12.11,21.36-13.41,41.98-21.88,66.06-28.76Z"/>
        <path class="cls-3" d="M0,242.35l43.57.07c.39,3.34.95,6.8,1.51,10.12,3.48,20.68,6.47,41.67,10.6,62.22-3.24,1.34-6.93,2.64-10.24,3.89-10.05,3.6-20.32,7.59-30.34,11.33C4.28,299.62-.05,274.37,0,242.35Z"/>
        <path class="cls-2" d="M314.71,120.54l.09-29.53c.02-5.3.2-10.71-.17-15.99-.35-5.05-4.02-6.93-8.46-8.01-14.44-3.51-29.06-6.26-43.59-9.33-3.5-.74-7.53-1.73-11.03-2.13l.08,104.06v30.86c0,4.93-.17,11.86.18,16.87,14.58,2.7,26.35,13.39,30.61,27.36.39,1.03.75,2.07,1.06,3.13-.08-.03-.16,0-.24.05.58,2.7.89,5.49.89,8.37,0,7.31-1.99,14.15-5.45,20.03,0,.34.02.66.04.95-4.2,6.31-8.64,10.34-14.88,13.57-2.02,1.13-4.16,2.09-6.38,2.86-2.05.84-4.39,1.81-5.8,2.59l-.04,146.86c18.99-2.86,39.63-7.65,58.37-12.12,2.68-.64,4.76-5.21,4.54-7.69.37-12.41-.02-24.87-.03-37.29l.19-78.94c.03-3.49-.43-18.33.17-20.7v-.87s.06-4.09.06-4.09c-.3-9.9-.21-150.87-.21-150.87Z"/>
        <path class="cls-2" d="M239.41,285.48c-7.37-1.86-12.27-3.33-18.42-8.01-2.62-2.07-4.8-4.31-6.63-6.61-5.89-6.91-9.46-15.87-9.46-25.66,0-20.16,15.08-36.79,34.57-39.25.1-4.7-.08-10.24-.1-14.71v-29.45s.08-106.19.08-106.19c-6.81.39-58.67,10.11-62.09,14.01-1.33,1.52-1.68,4.52-1.85,6.46-.83,9.37-.11,19.38-.1,28.81,0,0,.16,233.08.08,264.19,0,14.11-.67,34.19.09,47.82.38.59,2.03,3.16,2.57,3.35,16.06,5.56,33.85,7.67,50.49,11.3,3.51.77,7.57,1.36,10.95,1.65l-.04-100.67c0-14.92.38-32.25-.14-47.03Z"/>
        <circle class="cls-4" cx="245.06" cy="245.49" r="28.88"/>
      </g>
      <g>
        <g>
          <path class="cls-1" d="M642.76,78.04c-15.03,0-26.36,3.88-33.99,11.63-7.63,7.76-13.15,20.97-16.54,39.63,0,.49-.67.73-2,.73s-2-.24-2-.73c.48-3.15.97-7.57,1.45-13.27.48-5.69,1.03-11.82,1.64-18.36.6-6.54,1.09-12.91,1.45-19.09.36-6.18.55-11.21.55-15.09,0-1.21.66-1.82,2-1.82s2,.61,2,1.82c0,2.43,1.21,4.18,3.64,5.27,2.42,1.09,5.15,1.82,8.18,2.18,3.03.36,5.64.55,7.82.55,20.84.73,45.2,1.09,73.08,1.09,17.21,0,30.84-.18,40.9-.55,10.06-.36,19.81-.55,29.27-.55,8.24,0,14.6-.55,19.09-1.64,4.48-1.09,7.33-3.57,8.54-7.45.24-.97.97-1.45,2.18-1.45s1.82.49,1.82,1.45c-.24,3.64-.61,8.61-1.09,14.91-.49,6.31-.85,12.85-1.09,19.63-.24,6.79-.49,13.09-.73,18.91-.24,5.82-.36,10.3-.36,13.45,0,.49-.73.73-2.18.73s-2.18-.24-2.18-.73c-.73-18.91-4.61-32.18-11.63-39.81-7.03-7.64-18.67-11.45-34.9-11.45-10.18,0-17.81.49-22.91,1.45-5.09.97-8.42,3.09-10,6.36-1.58,3.27-2.36,8.54-2.36,15.82v167.61c0,7.03.85,12.36,2.54,16,1.69,3.64,5.03,6.06,10,7.27,4.97,1.22,12.54,1.82,22.72,1.82.73,0,1.09.73,1.09,2.18s-.36,2.18-1.09,2.18c-6.31,0-13.45-.12-21.45-.36-8-.24-16.72-.36-26.18-.36s-17.45.12-25.45.36c-8,.24-15.27.36-21.81.36-.49,0-.73-.73-.73-2.18s.24-2.18.73-2.18c9.94,0,17.51-.6,22.72-1.82,5.21-1.21,8.66-3.64,10.36-7.27,1.69-3.64,2.54-8.96,2.54-16V100.94c0-7.27-.85-12.54-2.54-15.82-1.7-3.27-5.09-5.27-10.18-6s-12.73-1.09-22.91-1.09Z"/>
          <path class="cls-1" d="M830.5,298.73c-.73,0-1.09-.73-1.09-2.18s.36-2.18,1.09-2.18c9.45,0,15.63-1.64,18.54-4.91s4.36-10,4.36-20.18V81.31c0-8.48-.85-14.72-2.54-18.72-1.7-4-4.73-6-9.09-6-3.64,0-9.21,1.7-16.72,5.09-.97.49-1.76.06-2.36-1.27-.61-1.33-.43-2.24.55-2.73l46.17-22.54h1.09c.73,0,1.45.31,2.18.91.73.61,1.09,1.27,1.09,2v231.23c0,10.18,1.45,16.91,4.36,20.18,2.91,3.27,9.09,4.91,18.54,4.91.73,0,1.09.73,1.09,2.18s-.36,2.18-1.09,2.18c-4.36,0-9.33-.12-14.91-.36-5.58-.24-11.63-.36-18.18-.36s-12.36.12-18.18.36c-5.82.24-10.79.36-14.91.36ZM928.31,298.73c-.73,0-1.09-.73-1.09-2.18s.36-2.18,1.09-2.18c9.45,0,15.63-1.64,18.54-4.91,2.91-3.27,4.36-10,4.36-20.18v-57.81c0-28.36-11.15-42.54-33.45-42.54-8.97,0-18.06,2.85-27.27,8.54-9.21,5.7-17.09,13.4-23.63,23.09l-1.45-4.36c10.66-14.54,21.27-25.09,31.81-31.63,10.54-6.54,21.39-9.82,32.54-9.82,13.33,0,23.63,3.7,30.9,11.09,7.27,7.4,10.91,18.36,10.91,32.9v70.53c0,10.18,1.45,16.91,4.36,20.18s9.09,4.91,18.54,4.91c.73,0,1.09.73,1.09,2.18s-.36,2.18-1.09,2.18c-4.36,0-9.33-.12-14.91-.36-5.58-.24-11.63-.36-18.18-.36s-12.36.12-18.18.36c-5.82.24-10.79.36-14.91.36Z"/>
          <path class="cls-1" d="M1094.82,303.09c-14.54,0-26.79-3.33-36.72-10-9.94-6.66-17.4-15.33-22.36-26-4.97-10.66-7.45-21.93-7.45-33.81,0-14.78,3.39-28.05,10.18-39.81,6.78-11.75,16.05-21.09,27.81-28,11.75-6.91,24.66-10.36,38.72-10.36s24.3,3.64,31.45,10.91c7.15,7.27,10.72,17.45,10.72,30.54,0,3.15-.31,5.52-.91,7.09-.61,1.58-1.76,2.36-3.45,2.36h-20.36c.97-14.78-1.22-25.75-6.54-32.9-5.33-7.15-12.97-10.73-22.91-10.73-12.85,0-22.85,5.09-29.99,15.27-7.15,10.18-10.73,24.12-10.73,41.81,0,13.82,2.18,26.06,6.54,36.72,4.36,10.67,10.78,19.03,19.27,25.09,8.48,6.06,18.78,9.09,30.9,9.09,8.24,0,15.03-1.21,20.36-3.64,5.33-2.42,10.66-5.21,16-8.36.48-.48,1.15-.18,2,.91.85,1.09,1.03,2,.55,2.73-8.49,7.52-17.15,12.91-26,16.18-8.85,3.27-17.88,4.91-27.09,4.91ZM1045.74,206.38l-.36-4.73,82.53-1.45v5.82l-82.17.36Z"/>
          <path class="cls-1" d="M1326.78,114.03c0,9.94,2.48,18.49,7.45,25.63,4.96,7.15,11.33,13.4,19.09,18.72,7.75,5.33,16,10.67,24.72,16,8.96,5.09,17.63,10.54,26,16.36s15.27,12.72,20.72,20.72c5.45,8,8.18,17.82,8.18,29.45s-2.91,22.12-8.73,31.45c-5.82,9.33-14.24,16.79-25.27,22.36-11.03,5.57-24.67,8.36-40.9,8.36-5.82,0-11.58-.43-17.27-1.27-5.7-.85-11.4-2.24-17.09-4.18-5.7-1.94-11.33-4.36-16.91-7.27-1.22-.73-2-1.64-2.36-2.73-.36-1.09-.67-2.48-.91-4.18l-4.73-49.45c-.24-1.21.3-1.87,1.64-2,1.33-.12,2.12.31,2.36,1.27,1.69,7.27,4.12,14.67,7.27,22.18,3.15,7.52,7.27,14.42,12.36,20.72,5.09,6.3,11.27,11.4,18.54,15.27,7.27,3.88,15.75,5.82,25.45,5.82,7.03,0,13.87-1.33,20.54-4,6.66-2.66,12.12-7.03,16.36-13.09,4.24-6.06,6.36-14.3,6.36-24.72,0-11.87-2.61-21.75-7.82-29.63-5.22-7.87-11.82-14.72-19.82-20.54-8-5.82-16.49-11.27-25.45-16.36-8.49-5.33-16.67-10.78-24.54-16.36-7.88-5.57-14.3-12.18-19.27-19.82-4.97-7.63-7.45-17.14-7.45-28.54,0-12.84,3.27-23.45,9.82-31.81,6.54-8.36,15.03-14.6,25.45-18.72,10.42-4.12,21.21-6.18,32.36-6.18,6.78,0,13.82.67,21.09,2,7.27,1.34,14.42,3.58,21.45,6.73,1.94.73,3.33,1.64,4.18,2.73.85,1.09,1.27,2.24,1.27,3.45l2.54,41.45c0,.97-.61,1.52-1.82,1.64-1.22.13-2.06-.3-2.54-1.27-.49-4.85-1.82-10.24-4-16.18-2.18-5.94-5.33-11.57-9.45-16.91-4.12-5.33-9.33-9.69-15.63-13.09-6.31-3.39-13.94-5.09-22.91-5.09-9.45,0-17.15,2-23.09,6-5.94,4-10.3,9.09-13.09,15.27-2.79,6.18-4.18,12.79-4.18,19.82Z"/>
          <path class="cls-1" d="M1474.75,298.73c-.73,0-1.09-.73-1.09-2.18s.36-2.18,1.09-2.18c9.45,0,15.63-1.64,18.54-4.91s4.36-10,4.36-20.18V81.31c0-8.48-.85-14.72-2.54-18.72-1.7-4-4.73-6-9.09-6-3.64,0-9.21,1.7-16.72,5.09-.97.49-1.76.06-2.36-1.27-.61-1.33-.43-2.24.55-2.73l46.17-22.54h1.09c.73,0,1.45.31,2.18.91.73.61,1.09,1.27,1.09,2v231.23c0,10.18,1.45,16.91,4.36,20.18,2.91,3.27,9.09,4.91,18.54,4.91.73,0,1.09.73,1.09,2.18s-.36,2.18-1.09,2.18c-4.36,0-9.33-.12-14.91-.36-5.58-.24-11.63-.36-18.18-.36s-12.36.12-18.18.36c-5.82.24-10.79.36-14.91.36ZM1572.55,298.73c-.73,0-1.09-.73-1.09-2.18s.36-2.18,1.09-2.18c9.45,0,15.63-1.64,18.54-4.91,2.91-3.27,4.36-10,4.36-20.18v-57.81c0-28.36-11.15-42.54-33.45-42.54-8.97,0-18.06,2.85-27.27,8.54-9.21,5.7-17.09,13.4-23.63,23.09l-1.45-4.36c10.66-14.54,21.27-25.09,31.81-31.63,10.54-6.54,21.39-9.82,32.54-9.82,13.33,0,23.63,3.7,30.9,11.09,7.27,7.4,10.91,18.36,10.91,32.9v70.53c0,10.18,1.45,16.91,4.36,20.18,2.91,3.27,9.09,4.91,18.54,4.91.73,0,1.09.73,1.09,2.18s-.36,2.18-1.09,2.18c-4.36,0-9.33-.12-14.91-.36-5.58-.24-11.63-.36-18.18-.36s-12.36.12-18.18.36c-5.82.24-10.79.36-14.91.36Z"/>
          <path class="cls-1" d="M1678.71,298.73c-.49,0-.73-.73-.73-2.18s.24-2.18.73-2.18c9.45,0,15.69-1.64,18.72-4.91,3.03-3.27,4.54-10,4.54-20.18v-67.99c0-8.48-.85-14.73-2.54-18.72-1.7-4-4.85-6-9.45-6-1.94,0-4.24.43-6.91,1.27-2.67.85-5.82,2.12-9.45,3.82-.97.24-1.76-.3-2.36-1.64-.61-1.33-.55-2.24.18-2.73l47.26-21.82c.73-.24,1.21-.36,1.45-.36.48,0,1.09.31,1.82.91.73.61,1.09,1.27,1.09,2,0,1.94-.12,6.67-.36,14.18-.24,7.52-.36,17.09-.36,28.72v68.35c0,10.18,1.39,16.91,4.18,20.18,2.78,3.27,9.03,4.91,18.72,4.91.73,0,1.09.73,1.09,2.18s-.36,2.18-1.09,2.18c-4.36,0-9.4-.12-15.09-.36-5.7-.24-11.7-.36-18-.36s-12.31.12-18,.36c-5.7.24-10.85.36-15.45.36ZM1709.25,112.58c-4.85,0-8.73-1.33-11.63-4-2.91-2.66-4.36-6.42-4.36-11.27s1.45-8.6,4.36-11.27c2.91-2.66,6.78-4,11.63-4s8.6,1.33,11.27,4c2.66,2.67,4,6.42,4,11.27,0,10.18-5.09,15.27-15.27,15.27Z"/>
          <path class="cls-1" d="M1787.78,298.73c-.73,0-1.09-.73-1.09-2.18s.36-2.18,1.09-2.18c9.45,0,15.57-1.64,18.36-4.91,2.78-3.27,4.18-10,4.18-20.18v-71.99c0-8-.91-13.87-2.73-17.63-1.82-3.76-5.15-5.64-10-5.64-2.43,0-5.27.49-8.54,1.45-3.27.97-6.97,2.31-11.09,4-.97.24-1.76-.24-2.36-1.45-.61-1.21-.43-2.06.55-2.54l42.17-20c.73-.24,1.45-.36,2.18-.36,1.69,0,3.87,2.54,6.54,7.63,2.66,5.09,4,12.49,4,22.18v84.35c0,6.79.85,12.06,2.54,15.82,1.69,3.76,5.09,6.24,10.18,7.45,5.09,1.22,12.6,1.82,22.54,1.82.97,0,1.45.73,1.45,2.18s-.49,2.18-1.45,2.18c-5.82,0-12.67-.12-20.54-.36-7.88-.24-16.18-.36-24.91-.36-6.31,0-12.36.12-18.18.36-5.82.24-10.79.36-14.91.36ZM1823.41,200.2l-1.45-4c8.96-10.91,16.36-19.33,22.18-25.27,5.82-5.94,10.84-10.06,15.09-12.36,4.24-2.3,8.3-3.45,12.18-3.45,5.09,0,10.12,1.45,15.09,4.36,4.97,2.91,7.45,6.42,7.45,10.54,0,3.15-1.03,5.82-3.09,8-2.06,2.18-5.03,3.27-8.91,3.27-3.15,0-5.82-.97-8-2.91-2.18-1.94-4.49-3.76-6.91-5.45-2.43-1.69-5.58-2.54-9.45-2.54-2.18,0-4.49.61-6.91,1.82-2.43,1.22-5.7,3.94-9.82,8.18-4.12,4.24-9.94,10.85-17.45,19.81Z"/>
          <path class="cls-1" d="M1991.75,303.09c-14.54,0-26.79-3.33-36.72-10-9.94-6.66-17.4-15.33-22.36-26-4.97-10.66-7.45-21.93-7.45-33.81,0-14.78,3.39-28.05,10.18-39.81,6.78-11.75,16.05-21.09,27.81-28,11.75-6.91,24.66-10.36,38.72-10.36s24.3,3.64,31.45,10.91c7.15,7.27,10.72,17.45,10.72,30.54,0,3.15-.31,5.52-.91,7.09-.61,1.58-1.76,2.36-3.45,2.36h-20.36c.97-14.78-1.22-25.75-6.54-32.9-5.33-7.15-12.97-10.73-22.91-10.73-12.85,0-22.85,5.09-29.99,15.27-7.15,10.18-10.73,24.12-10.73,41.81,0,13.82,2.18,26.06,6.54,36.72,4.36,10.67,10.78,19.03,19.27,25.09,8.48,6.06,18.78,9.09,30.9,9.09,8.24,0,15.03-1.21,20.36-3.64,5.33-2.42,10.66-5.21,16-8.36.48-.48,1.15-.18,2,.91.85,1.09,1.03,2,.55,2.73-8.49,7.52-17.15,12.91-26,16.18-8.85,3.27-17.88,4.91-27.09,4.91ZM1942.67,206.38l-.36-4.73,82.53-1.45v5.82l-82.17.36Z"/>
        </g>
        <g>
          <path class="cls-5" d="M693.52,400.19c-.24.4-.49.69-.77.89-.28.2-.61.3-1.01.3-.45,0-.97-.22-1.58-.67-.61-.45-1.36-.94-2.27-1.48-.91-.54-2-1.03-3.28-1.48-1.28-.45-2.83-.67-4.64-.67-1.71,0-3.22.23-4.52.69-1.3.46-2.4,1.09-3.28,1.88-.88.79-1.55,1.72-2,2.79-.45,1.07-.67,2.22-.67,3.46,0,1.58.39,2.89,1.17,3.93s1.8,1.93,3.08,2.67c1.28.74,2.73,1.38,4.35,1.92,1.62.54,3.28,1.1,4.98,1.68,1.7.58,3.36,1.23,4.98,1.96,1.62.73,3.07,1.64,4.35,2.75s2.31,2.46,3.08,4.07c.78,1.61,1.17,3.58,1.17,5.93,0,2.48-.42,4.8-1.26,6.97-.84,2.17-2.07,4.06-3.69,5.67-1.62,1.61-3.61,2.87-5.97,3.79-2.36.92-5.04,1.38-8.04,1.38-3.69,0-7.03-.66-10.04-2-3-1.33-5.57-3.13-7.71-5.39l2.21-3.64c.21-.29.47-.53.77-.73s.64-.3,1.01-.3c.34,0,.73.14,1.17.42.44.28.93.63,1.48,1.05.55.42,1.19.88,1.9,1.38s1.52.96,2.43,1.38,1.94.77,3.1,1.05c1.16.28,2.46.41,3.91.41,1.82,0,3.44-.25,4.86-.75,1.42-.5,2.63-1.21,3.62-2.11.99-.91,1.74-2,2.27-3.26s.79-2.67.79-4.23c0-1.71-.39-3.11-1.17-4.21-.78-1.09-1.8-2.01-3.06-2.75-1.26-.74-2.71-1.36-4.35-1.88-1.63-.51-3.29-1.04-4.98-1.58-1.69-.54-3.35-1.17-4.98-1.88-1.63-.71-3.08-1.63-4.35-2.77-1.26-1.13-2.29-2.55-3.06-4.25-.78-1.7-1.17-3.8-1.17-6.3,0-2,.39-3.94,1.17-5.81.78-1.87,1.91-3.53,3.4-4.98,1.49-1.45,3.32-2.61,5.49-3.48,2.17-.87,4.67-1.3,7.49-1.3,3.16,0,6.04.5,8.63,1.5,2.6,1,4.88,2.45,6.86,4.35l-1.86,3.64Z"/>
          <path class="cls-5" d="M777.41,441.88c2.34,0,4.44-.4,6.28-1.19,1.84-.79,3.4-1.9,4.68-3.32,1.28-1.42,2.25-3.12,2.92-5.1.67-1.97,1.01-4.15,1.01-6.52v-34.42h7.63v34.42c0,3.27-.52,6.3-1.56,9.09-1.04,2.79-2.53,5.21-4.47,7.25-1.94,2.04-4.3,3.64-7.09,4.8-2.79,1.16-5.93,1.74-9.4,1.74s-6.61-.58-9.4-1.74c-2.79-1.16-5.16-2.76-7.11-4.8-1.95-2.04-3.45-4.46-4.49-7.25-1.04-2.79-1.56-5.82-1.56-9.09v-34.42h7.63v34.38c0,2.37.34,4.54,1.01,6.52.67,1.98,1.65,3.68,2.92,5.1,1.28,1.42,2.84,2.54,4.7,3.34,1.86.8,3.96,1.21,6.3,1.21Z"/>
          <path class="cls-5" d="M878.53,391.34c3.58,0,6.7.41,9.35,1.24,2.65.83,4.84,2.01,6.58,3.54,1.74,1.53,3.04,3.37,3.89,5.53s1.28,4.57,1.28,7.23-.46,5.05-1.38,7.23-2.27,4.07-4.05,5.65c-1.78,1.58-3.98,2.81-6.6,3.69-2.62.88-5.64,1.32-9.07,1.32h-9.09v21.18h-7.63v-56.63h16.72ZM878.53,420.7c2.19,0,4.12-.29,5.79-.87,1.67-.58,3.08-1.39,4.23-2.43s2.01-2.29,2.59-3.73c.58-1.45.87-3.04.87-4.78,0-3.61-1.11-6.43-3.34-8.46-2.23-2.03-5.61-3.04-10.14-3.04h-9.09v23.31h9.09Z"/>
          <path class="cls-5" d="M974.12,391.34c3.58,0,6.7.41,9.35,1.24,2.65.83,4.84,2.01,6.58,3.54,1.74,1.53,3.04,3.37,3.89,5.53s1.28,4.57,1.28,7.23-.46,5.05-1.38,7.23-2.27,4.07-4.05,5.65c-1.78,1.58-3.98,2.81-6.6,3.69-2.62.88-5.64,1.32-9.07,1.32h-9.09v21.18h-7.63v-56.63h16.72ZM974.12,420.7c2.19,0,4.12-.29,5.79-.87,1.67-.58,3.08-1.39,4.23-2.43s2.01-2.29,2.59-3.73c.58-1.45.87-3.04.87-4.78,0-3.61-1.11-6.43-3.34-8.46-2.23-2.03-5.61-3.04-10.14-3.04h-9.09v23.31h9.09Z"/>
          <path class="cls-5" d="M1085.12,441.53v6.44h-32.13v-56.63h7.63v50.18h24.5Z"/>
          <path class="cls-5" d="M1155.49,425.4v22.56h-7.67v-22.56l-20.75-34.06h6.72c.68,0,1.22.16,1.62.49.4.33.74.76,1.03,1.28l12.96,22.01c.47.92.91,1.79,1.3,2.59.39.8.74,1.61,1.03,2.43.29-.82.62-1.63.99-2.43s.78-1.67,1.22-2.59l12.92-22.01c.24-.45.57-.86.99-1.22.42-.37.96-.55,1.62-.55h6.76l-20.75,34.06Z"/>
          <path class="cls-5" d="M1336.67,436.27c.42,0,.79.17,1.11.51l3.04,3.28c-2.32,2.69-5.13,4.78-8.44,6.28-3.31,1.5-7.3,2.25-11.99,2.25-4.06,0-7.74-.7-11.06-2.11-3.32-1.41-6.15-3.38-8.5-5.93-2.35-2.54-4.16-5.59-5.45-9.15-1.29-3.56-1.94-7.47-1.94-11.74s.67-8.18,2.02-11.74c1.34-3.56,3.23-6.61,5.67-9.17,2.44-2.55,5.36-4.54,8.75-5.95,3.4-1.41,7.15-2.11,11.26-2.11s7.59.65,10.67,1.94c3.08,1.29,5.8,3.04,8.14,5.26l-2.53,3.52c-.16.26-.36.48-.61.65-.25.17-.59.26-1.01.26-.47,0-1.05-.26-1.74-.77-.69-.51-1.58-1.09-2.69-1.72-1.11-.63-2.49-1.21-4.15-1.72-1.66-.51-3.7-.77-6.12-.77-2.92,0-5.6.51-8.02,1.52-2.42,1.01-4.51,2.48-6.26,4.41-1.75,1.92-3.11,4.27-4.09,7.03s-1.46,5.89-1.46,9.37.51,6.68,1.52,9.44c1.01,2.77,2.4,5.1,4.15,7.01,1.75,1.91,3.82,3.37,6.2,4.37,2.38,1,4.96,1.5,7.73,1.5,1.69,0,3.21-.1,4.56-.3s2.61-.51,3.75-.93,2.21-.95,3.2-1.6c.99-.65,1.97-1.42,2.94-2.31.45-.39.9-.59,1.34-.59Z"/>
          <path class="cls-5" d="M1449.06,419.67c0,4.24-.67,8.13-2.02,11.68s-3.24,6.59-5.69,9.15c-2.45,2.56-5.39,4.54-8.83,5.95-3.44,1.41-7.24,2.11-11.4,2.11s-7.96-.7-11.38-2.11c-3.42-1.41-6.36-3.39-8.81-5.95-2.45-2.55-4.35-5.6-5.69-9.15-1.34-3.54-2.02-7.43-2.02-11.68s.67-8.13,2.02-11.68c1.34-3.54,3.24-6.6,5.69-9.17,2.45-2.57,5.39-4.56,8.81-5.99,3.42-1.42,7.22-2.13,11.38-2.13s7.96.71,11.4,2.13c3.44,1.42,6.38,3.42,8.83,5.99,2.45,2.57,4.35,5.62,5.69,9.17,1.34,3.54,2.02,7.44,2.02,11.68ZM1441.19,419.67c0-3.48-.47-6.6-1.42-9.37-.95-2.77-2.29-5.1-4.03-7.01-1.74-1.91-3.85-3.38-6.32-4.41-2.48-1.03-5.24-1.54-8.3-1.54s-5.78.51-8.26,1.54c-2.48,1.03-4.59,2.5-6.34,4.41-1.75,1.91-3.1,4.25-4.05,7.01-.95,2.77-1.42,5.89-1.42,9.37s.47,6.59,1.42,9.35,2.3,5.08,4.05,6.99c1.75,1.91,3.87,3.37,6.34,4.39,2.48,1.01,5.23,1.52,8.26,1.52s5.82-.51,8.3-1.52c2.48-1.01,4.58-2.48,6.32-4.39,1.74-1.91,3.08-4.24,4.03-6.99.95-2.75,1.42-5.87,1.42-9.35Z"/>
          <path class="cls-5" d="M1567.05,391.34v56.63h-6.72v-41.61c0-.55.02-1.15.06-1.78s.09-1.28.14-1.94l-19.44,35.41c-.61,1.19-1.53,1.78-2.77,1.78h-1.11c-1.24,0-2.16-.59-2.77-1.78l-19.84-35.56c.16,1.4.24,2.69.24,3.87v41.61h-6.72v-56.63h5.65c.68,0,1.21.07,1.58.2.37.13.72.5,1.07,1.11l19.56,34.85c.32.63.63,1.29.93,1.98.3.69.59,1.38.85,2.09.26-.71.54-1.42.83-2.11.29-.7.61-1.36.95-2l19.2-34.81c.32-.61.66-.97,1.05-1.11.38-.13.91-.2,1.6-.2h5.65Z"/>
          <path class="cls-5" d="M1646.36,391.34c3.58,0,6.7.41,9.35,1.24,2.65.83,4.84,2.01,6.58,3.54,1.74,1.53,3.04,3.37,3.89,5.53s1.28,4.57,1.28,7.23-.46,5.05-1.38,7.23c-.92,2.19-2.27,4.07-4.05,5.65-1.78,1.58-3.98,2.81-6.6,3.69-2.62.88-5.64,1.32-9.07,1.32h-9.09v21.18h-7.63v-56.63h16.72ZM1646.36,420.7c2.19,0,4.12-.29,5.79-.87,1.67-.58,3.08-1.39,4.23-2.43s2.01-2.29,2.59-3.73c.58-1.45.87-3.04.87-4.78,0-3.61-1.11-6.43-3.34-8.46-2.23-2.03-5.61-3.04-10.14-3.04h-9.09v23.31h9.09Z"/>
          <path class="cls-5" d="M1767.32,447.97h-5.93c-.68,0-1.24-.17-1.66-.51s-.74-.78-.95-1.3l-5.3-13.67h-25.41l-5.29,13.67c-.16.47-.46.9-.91,1.26s-1,.55-1.66.55h-5.93l22.64-56.63h7.74l22.64,56.63ZM1751.35,426.94l-8.89-23.04c-.26-.68-.54-1.48-.83-2.39-.29-.91-.57-1.88-.83-2.9-.55,2.13-1.12,3.91-1.7,5.33l-8.89,23h21.14Z"/>
          <path class="cls-5" d="M1868.79,391.34v56.63h-3.83c-.61,0-1.11-.1-1.52-.32-.41-.21-.81-.57-1.21-1.07l-32.76-42.68c.05.66.09,1.3.12,1.94.03.63.04,1.22.04,1.78v40.35h-6.72v-56.63h3.95c.34,0,.63.02.87.06.24.04.45.1.63.2.18.09.37.22.55.4.18.17.38.39.59.65l32.76,42.64c-.05-.68-.1-1.35-.14-2s-.06-1.26-.06-1.84v-40.11h6.72Z"/>
          <path class="cls-5" d="M1952.64,425.4v22.56h-7.67v-22.56l-20.75-34.06h6.72c.68,0,1.22.16,1.62.49.4.33.74.76,1.03,1.28l12.96,22.01c.47.92.91,1.79,1.3,2.59.39.8.74,1.61,1.03,2.43.29-.82.62-1.63.99-2.43s.78-1.67,1.22-2.59l12.92-22.01c.24-.45.57-.86.99-1.22.42-.37.96-.55,1.62-.55h6.76l-20.75,34.06Z"/>
        </g>
      </g>
    </g>
  </g>
</svg>