<?xml version="1.0" encoding="UTF-8"?>
<svg id="Layer_2" data-name="Layer 2" xmlns="http://www.w3.org/2000/svg" viewBox="0 0 205.5 31.67">
  <defs>
    <style>
      .cls-1 {
        stroke-width: 0px;
      }
    </style>
  </defs>
  <g id="OBJECTS">
    <g>
      <g>
        <path class="cls-1" d="M90.63,21.06c3.64-.09,7.25-1.29,10-3.73.57-.5,1.07-1.19.87-1.99-.18-.71-.83-1.2-1.46-1.5-1.72-.8-3.82-.51-5.58,0-1.97.56-3.84,1.46-5.74,2.22s-3.75,1.46-5.65,2.13c-3.89,1.37-7.84,2.57-11.85,3.54-8.02,1.94-16.27,2.97-24.53,2.69-7.8-.26-15.69-1.62-22.91-4.65S10.61,11.81,5.08,6.39c-.66-.65-1.32-1.31-1.97-1.96-.42-.42-1.18.13-.85.65,1.19,1.85,3.36,2.78,5.44,3.23,2.61.57,5.26.45,7.87-.02,3.09-.55,6.09-1.52,9.19-2.05s6.16-.5,9.2-.05c5.91.88,11.53,3.33,16.68,6.29s9.66,6.41,15.31,7.64c3.06.67,6.4.78,9.51.48,1.55-.15,3.09-.4,4.6-.78.72-.18,1.44-.39,2.15-.65s1.36-.63,2.05-.93c.2-.09.03-.38-.17-.29-1.24.56-2.66.93-3.98,1.27-1.39.36-2.8.61-4.22.74-2.78.27-5.65.21-8.37-.44s-5.45-1.58-8-2.92-4.81-2.85-7.21-4.29c-4.88-2.92-10.12-5.39-15.69-6.64-2.78-.62-5.64-.97-8.49-.87-3.06.1-6.04.77-9.01,1.5s-6.11,1.42-9.27,1.18c-2.35-.18-5.3-.82-6.66-2.95l-.85.65c5.25,5.3,10.75,10.43,17.42,13.9s13.88,5.24,21.21,6.03c7.81.84,15.69.43,23.43-.89s15.59-3.64,23.05-6.54c1.83-.71,3.63-1.52,5.47-2.21s3.91-1.25,5.82-.75c.46.12,1.85.56,1.39,1.25-.43.65-1.3,1.16-1.94,1.57-1.52.97-3.23,1.68-4.95,2.21-.88.27-1.78.51-2.68.68-.34.07-.26.61.08.61h0Z"/>
        <path class="cls-1" d="M81.57,18.75c-2,1.4-3.98,2.79-6.11,3.99-2.25,1.26-4.61,2.35-7.01,3.3-4.91,1.94-10.1,3.23-15.32,3.95-10.27,1.42-21.6.55-30.35-5.47-2.31-1.59-4.3-3.58-6.1-5.72s-3.09-4.33-4.8-6.36c-.19-.22-.53.06-.39.3,1.17,2.12,2.72,4.06,4.22,5.94s3.23,3.78,5.12,5.38c4.02,3.41,8.78,5.48,13.92,6.58s10.94,1.25,16.39.69,10.8-1.83,15.9-3.79c2.73-1.05,5.36-2.29,7.89-3.75,2.4-1.38,4.79-2.93,6.83-4.81.11-.11-.04-.31-.17-.22h0Z"/>
        <path class="cls-1" d="M45.56,9.15c1.4,1.28,2.87,2.45,4.21,3.79s2.52,2.67,3.73,4.05,2.26,2.71,3.58,3.88,2.77,2.01,4.4,2.55c1.71.57,3.94.95,5.61.07.16-.09.08-.33-.09-.33-1.15-.05-2.31.07-3.45-.11-1.05-.17-2.11-.47-3.08-.92-2.01-.91-3.67-2.42-5.18-4s-2.92-3.29-4.44-4.88-3.16-3.25-5.07-4.38c-.18-.1-.38.15-.22.29h0Z"/>
        <path class="cls-1" d="M30.94,5.48c1.81.63,3.27,1.69,4.49,3.17s2.14,3.2,3.1,4.85c1.23,2.1,2.46,4.19,3.69,6.29.91,1.55,1.95,3.05,3.52,3.99,1.95,1.17,4.39,1.69,6.64,1.66.15,0,.17-.21.03-.25-2.06-.62-4.32-.69-6.23-1.77-1.78-1.01-2.85-2.69-3.87-4.39-1.23-2.05-2.43-4.12-3.65-6.18-.91-1.54-1.78-3.13-2.91-4.53-1.22-1.5-2.84-2.69-4.72-3.19-.23-.06-.32.28-.1.35h0Z"/>
        <path class="cls-1" d="M16.97,7.32c1.72.61,3.29,1.33,4.67,2.54,1.26,1.11,2.27,2.43,3.13,3.87,1.02,1.7,1.86,3.51,3.02,5.13.9,1.25,1.96,2.38,3.2,3.3.75.55,1.55,1.02,2.41,1.38.95.4,1.81.57,2.84.55.21,0,.25-.3.05-.36-1.67-.48-3.37-1.03-4.83-2s-2.61-2.25-3.57-3.72c-1.92-2.95-3.21-6.37-6-8.66-1.38-1.14-3.06-2.09-4.84-2.34-.2-.03-.28.24-.09.31h0Z"/>
        <path class="cls-1" d="M22.48,25.58c2.43.79,4.46-.76,6.72-1.37,1.24-.33,2.53-.42,3.81-.42s2.69.2,4.01.09c.17-.01.22-.26.04-.31-1.15-.31-2.41-.35-3.59-.38s-2.46.03-3.67.27-2.28.7-3.4,1.17c-1.2.5-2.51.94-3.82.61-.22-.05-.3.26-.09.33h0Z"/>
        <path class="cls-1" d="M32.6,29.98c3.31.76,6.52-.43,9.47-1.86,1.59-.77,3.17-1.6,4.85-2.15s3.47-.81,5.24-.8c.12,0,.16-.2.03-.22-3.27-.7-6.51.8-9.38,2.22-3.18,1.57-6.53,3.1-10.18,2.62-.11-.01-.14.17-.03.2h0Z"/>
        <path class="cls-1" d="M48.87,31.3c3.41-.18,6.03-2.17,8.68-4.12,1.39-1.03,2.86-1.9,4.46-2.56s3.41-.96,5.1-1.5c.2-.06.16-.36-.05-.36-1.63-.03-3.32.52-4.82,1.11s-2.96,1.44-4.31,2.43c-2.82,2.06-5.45,4.35-9.07,4.74-.17.02-.17.28,0,.27h0Z"/>
        <path class="cls-1" d="M97.13,13.11c-4.28,1.92-9.4,1.43-13.7-.14-4.62-1.68-8.49-4.68-12.63-7.23-2.37-1.46-4.96-2.56-7.27-4.12-.55-.37-1.36.39-.94.94,1.44,1.91,2.13,4.21,3.31,6.26,1.06,1.83,2.63,3.23,4.45,4.27,4.23,2.4,9.23,3.02,14.01,2.93,1.55-.03,3.09-.15,4.63-.32.77-.09,1.54-.21,2.3-.32.35-.05.71-.08,1.06-.14s.62-.21.93-.35c.09-.04.07-.2-.03-.21-1.2-.21-2.44.04-3.66.13-1.34.1-2.68.2-4.02.26-2.6.11-5.23.04-7.8-.41-4.04-.7-8.66-2.34-10.82-6.09-1.28-2.22-1.69-4.78-3.3-6.84l-.83,1.08c1.06.69,2.22,1.14,3.38,1.63s2.39,1.07,3.54,1.7c2.27,1.25,4.43,2.68,6.65,4.02,4.15,2.5,8.66,4.56,13.57,4.74,2.53.09,5.07-.29,7.33-1.46.22-.11.03-.42-.19-.32h0Z"/>
        <path class="cls-1" d="M63.99,2.19c1.35,1.52,3.32,2.32,5.22,2.91,2.29.71,4.64,1.2,6.91,1.99,2.48.86,4.92,1.95,7.11,3.39s4.06,2.83,6.51,3.57,5.66,1.26,8.12.15c.14-.06.05-.25-.07-.26-1.23-.11-2.46-.03-3.69-.08s-2.51-.2-3.73-.49c-2.43-.58-4.49-1.86-6.63-3.1s-4.16-2.25-6.37-3.1-4.54-1.42-6.84-2.06-4.72-1.34-6.35-3.11c-.12-.13-.3.06-.19.19h0Z"/>
        <path class="cls-1" d="M101.26,16.1c-1.12.02-1.65,1.58-2.07,2.41-.64,1.27-1.25,2.58-2.15,3.69-1.86,2.29-4.7,3.52-7.31,4.73l.52.3c.16-2.21,2.28-3.82,3.98-4.94.93-.61,1.89-1.18,2.83-1.77.84-.53,1.98-1.08,2.43-2.01.05-.1-.03-.23-.15-.2-.55.17-.93.51-1.4.83-.5.35-1.02.69-1.54,1.01-1.08.67-2.18,1.3-3.22,2.04-1.69,1.2-3.45,2.83-3.61,5.03-.02.28.3.4.52.3,2.46-1.15,5.1-2.32,6.97-4.35.89-.97,1.53-2.13,2.1-3.31.29-.61.57-1.23.87-1.83s.56-1.47,1.28-1.62c.18-.04.14-.32-.04-.31h0Z"/>
        <path class="cls-1" d="M98.85,18.28c-.94,2.52-1.57,5.12-1.88,7.79-.02.17.22.31.36.21,1.37-1.04,2.86-2.15,3.61-3.75.31-.66.49-1.42.41-2.16-.05-.4-.17-.77-.35-1.13-.2-.4-.46-.64-.82-.88-.28-.19-.64.18-.46.46.35.55.69,1.12.78,1.77s-.04,1.34-.33,1.95c-.67,1.37-1.95,2.44-3.13,3.36l.41.17c.27-2.62.85-5.22,1.68-7.72.06-.18-.21-.25-.28-.08h0Z"/>
      </g>
      <g>
        <path class="cls-1" d="M114.95,20.45c-1.82-.35-3.66-.91-5.35-1.68-.78-.36-1.55-.75-2.28-1.21-.64-.41-1.51-.92-1.94-1.57-.46-.7.93-1.13,1.39-1.25.96-.26,2.01-.21,2.98-.05,1.97.33,3.79,1.17,5.63,1.93,7.36,3.03,14.97,5.5,22.78,7.06s15.65,2.23,23.53,1.68c7.43-.52,14.87-2.06,21.69-5.13s12.6-7.92,17.9-13.16c.64-.63,1.27-1.26,1.89-1.9l-.85-.65c-1.2,1.87-3.63,2.56-5.7,2.85-2.72.38-5.42.02-8.08-.57-2.96-.66-5.88-1.51-8.91-1.85s-5.81-.17-8.67.31c-5.68.96-11.03,3.24-16.03,6.05s-9.48,6.25-15.03,7.71c-1.52.4-3.02.79-4.58.95s-3.1.16-4.64.07-3.14-.32-4.67-.68c-.76-.18-1.52-.39-2.26-.63s-1.58-.45-2.31-.78c-.2-.09-.37.2-.17.29,1.26.57,2.45,1.11,3.8,1.47s2.62.6,3.95.77c2.87.36,5.74.28,8.6-.07,5.76-.69,10.64-3.93,15.49-6.88s10.48-5.68,16.29-6.95c2.95-.65,6-.89,9.01-.65s6.19,1.17,9.27,1.88,6.14,1.15,9.26.66c2.37-.37,4.97-1.29,6.33-3.4.33-.52-.42-1.08-.85-.65-5.45,5.46-11.13,10.73-18.11,14.18s-14.77,5.12-22.5,5.67c-8.2.58-16.45-.15-24.48-1.85s-15.78-4.43-23.39-7.54c-1.86-.76-3.79-1.46-5.82-1.51-1.4-.03-3.68.34-4.09,1.98-.2.8.3,1.49.87,1.99.66.58,1.38,1.1,2.14,1.54,1.57.94,3.3,1.58,5.09,1.92.92.17,1.84.24,2.77.27.34,0,.43-.54.08-.61h0Z"/>
        <path class="cls-1" d="M123.76,18.97c1.82,1.69,3.93,3.08,6.05,4.36s4.46,2.48,6.82,3.47c5.06,2.13,10.37,3.57,15.82,4.3s11.03.81,16.45-.1c5.07-.85,10.22-2.57,14.32-5.75,2.23-1.73,4.23-3.72,6.03-5.89s3.46-4.26,4.76-6.62c.13-.24-.2-.53-.39-.3-1.53,1.81-2.75,3.85-4.25,5.69s-3.22,3.69-5.11,5.24c-3.96,3.26-8.8,5.24-13.79,6.24-10.46,2.1-21.68.67-31.66-2.91-2.74-.98-5.43-2.15-7.99-3.53-2.42-1.3-4.65-2.85-6.9-4.42-.13-.09-.29.11-.17.22h0Z"/>
        <path class="cls-1" d="M159.72,8.86c-1.91,1.13-3.54,2.8-5.07,4.38s-2.92,3.29-4.44,4.88-3.17,3.08-5.18,4c-.97.44-2.03.75-3.08.92-1.14.18-2.3.06-3.45.11-.17,0-.26.25-.09.33,1.48.78,3.34.54,4.9.14,1.64-.42,3.22-1.22,4.54-2.28s2.49-2.47,3.65-3.79,2.42-2.75,3.69-4.07c1.5-1.54,3.16-2.88,4.75-4.33.16-.14-.04-.39-.22-.29h0Z"/>
        <path class="cls-1" d="M174.46,5.13c-3.49.93-5.4,3.94-7.13,6.87-1.22,2.06-2.42,4.13-3.64,6.19-1.03,1.74-2.03,3.58-3.69,4.8-2.02,1.48-4.6,1.52-6.92,2.22-.14.04-.11.25.03.25,2.03.03,4.09-.41,5.92-1.28,1.7-.81,2.89-2.17,3.86-3.75,1.23-2,2.38-4.05,3.56-6.07,1-1.71,1.94-3.48,3.12-5.08,1.3-1.76,2.9-3.07,4.98-3.79.22-.08.13-.42-.1-.35h0Z"/>
        <path class="cls-1" d="M188.45,7.01c-3.07.42-5.7,2.73-7.41,5.2-2.12,3.08-3.36,6.78-6.43,9.11-1.6,1.22-3.49,1.86-5.4,2.41-.2.06-.16.36.05.36.88.01,1.65-.08,2.47-.4.78-.3,1.53-.69,2.23-1.15,1.27-.83,2.38-1.9,3.31-3.09,2.27-2.91,3.41-6.57,6.12-9.16,1.5-1.43,3.2-2.28,5.14-2.97.2-.07.12-.34-.09-.31h0Z"/>
        <path class="cls-1" d="M182.92,25.25c-1.29.33-2.6-.09-3.79-.59-1.13-.47-2.23-.95-3.43-1.19s-2.37-.29-3.56-.27-2.52.06-3.71.38c-.18.05-.13.29.04.31,1.28.11,2.61-.08,3.89-.09s2.65.08,3.92.42c2.26.6,4.29,2.15,6.72,1.37.21-.07.12-.39-.09-.33h0Z"/>
        <path class="cls-1" d="M172.87,29.78c-3.65.48-7-1.05-10.18-2.62-2.87-1.42-6.12-2.92-9.38-2.22-.13.03-.1.22.03.22,1.77,0,3.56.25,5.24.8s3.26,1.38,4.85,2.15c2.95,1.43,6.16,2.62,9.47,1.86.11-.03.09-.21-.03-.2h0Z"/>
        <path class="cls-1" d="M156.63,31.03c-3.62-.39-6.25-2.68-9.07-4.74-1.32-.96-2.69-1.78-4.21-2.39s-3.25-1.18-4.92-1.15c-.21,0-.25.3-.05.36,1.66.53,3.37.81,5,1.46s3.14,1.55,4.56,2.6c2.65,1.95,5.26,3.94,8.68,4.12.17,0,.17-.25,0-.27h0Z"/>
        <path class="cls-1" d="M108.18,13.44c4.09,2.13,9.16,1.75,13.42.34,4.8-1.59,8.9-4.6,13.24-7.12,1.28-.74,2.6-1.43,3.97-2.01s2.66-1.05,3.86-1.83l-.83-1.08c-1.44,1.84-1.9,4.04-2.91,6.09-.95,1.93-2.41,3.37-4.26,4.45-4.1,2.4-9.11,2.93-13.78,2.83-1.46-.03-2.93-.12-4.39-.24-.73-.06-1.46-.1-2.18-.17-.36-.04-.72-.09-1.09-.12s-.65.04-.99.1c-.1.02-.12.17-.03.21,1.13.52,2.45.59,3.69.75,1.37.18,2.76.3,4.14.35,2.65.11,5.31.02,7.93-.43,4.1-.71,8.64-2.39,11.13-5.93,1.55-2.2,2.2-4.9,3.83-7.07.42-.55-.39-1.32-.94-.94-2.02,1.37-4.29,2.33-6.38,3.58s-4.17,2.7-6.27,4.03c-4.04,2.56-8.44,4.73-13.28,5.06-2.58.17-5.29-.11-7.67-1.18-.22-.1-.41.21-.19.32h0Z"/>
        <path class="cls-1" d="M141.32,2.01c-1.46,1.58-3.59,2.29-5.59,2.89-2.22.66-4.47,1.16-6.65,1.93s-4.38,1.82-6.48,2.97-4.23,2.64-6.65,3.36c-1.31.39-2.65.57-4.01.68s-2.82-.02-4.23.12c-.12.01-.21.2-.07.26,2.2.99,4.92.66,7.2.11,2.47-.6,4.55-1.82,6.61-3.27s4.52-2.68,6.99-3.61c2.29-.86,4.66-1.41,7.01-2.08,2.18-.62,4.51-1.42,6.06-3.16.11-.13-.07-.31-.19-.19h0Z"/>
        <path class="cls-1" d="M104.2,16.41c.72.15,1,1.03,1.28,1.62s.57,1.22.87,1.83c.57,1.18,1.21,2.34,2.1,3.31,1.87,2.03,4.51,3.21,6.97,4.35.22.1.54-.01.52-.3-.16-2.2-1.92-3.83-3.61-5.03-1.01-.72-2.08-1.34-3.14-1.99-.52-.32-1.04-.66-1.55-1.01s-.9-.7-1.47-.89c-.12-.04-.2.1-.15.2.44.9,1.53,1.43,2.34,1.95.97.61,1.95,1.19,2.91,1.82,1.7,1.13,3.82,2.73,3.98,4.94l.52-.3c-2.61-1.22-5.44-2.45-7.3-4.73-.89-1.09-1.49-2.36-2.11-3.61-.42-.84-.97-2.47-2.11-2.49-.18,0-.22.28-.04.31h0Z"/>
        <path class="cls-1" d="M106.37,18.36c.84,2.5,1.41,5.1,1.68,7.72l.41-.17c-1.18-.92-2.46-1.99-3.13-3.36-.29-.59-.42-1.24-.34-1.9s.43-1.26.79-1.82c.18-.28-.18-.65-.46-.46-.34.23-.6.46-.8.83s-.31.73-.36,1.12c-.11.75.08,1.53.4,2.22.75,1.61,2.24,2.71,3.61,3.75.14.11.38-.04.36-.21-.31-2.68-.95-5.27-1.88-7.79-.06-.17-.34-.1-.28.08h0Z"/>
      </g>
    </g>
  </g>
</svg>