<?xml version="1.0" encoding="UTF-8"?>
<svg id="Layer_2" data-name="Layer 2" xmlns="http://www.w3.org/2000/svg" viewBox="0 0 131.24 24.48">
  <defs>
    <style>
      .cls-1 {
        fill: #1d1d1b;
        stroke-width: 0px;
      }
    </style>
  </defs>
  <g id="OBJECTS">
    <g>
      <path class="cls-1" d="M65.61,12.65c-13.45.1-26.96-.1-40.43.29,1.61-1.88,1.82-4.54.89-6.83C24.74,2.85,21.42,1.09,18.25.02c-.31-.1-.71.18-.67.51.2,1.95-1.05,3.55-1.14,5.47-.07,1.4.28,2.86,1.01,4.06.91,1.48,2.36,2.55,3.99,3-1.84.07-3.68.15-5.52.25,0-.03,0-.05-.01-.08-2.5-7.14-10.86-4.21-15.63-1.6-.38.21-.33.73,0,.95,2.53,1.71,5.98,5.31,9.29,5.04,2.31-.19,5.49-1.2,6.22-3.63,1.4.06,2.8.09,4.21.13-2.5,1.28-4.36,3.61-5.62,6.24-.02,0-.05,0-.07.01-.18.05-.2.25-.13.38-.43.95-.78,1.93-1.05,2.91-.11.39.19.68.55.72,3.45.37,7.29-.25,9.75-2.92,1.81-1.97,2.55-4.72,1.68-7.23,13.5.22,27.04-.16,40.52-.25.86,0,.86-1.34,0-1.34ZM14.75,13.36c-.54-.05-1.08-.12-1.62-.17-1.22-1.07-2.33-2.27-3.49-3.41,2.2.04,4.12.97,5.11,3.58ZM9.04,9.79c.96,1.1,1.98,2.16,2.93,3.27-.87-.09-1.74-.18-2.61-.28-.94-.91-1.93-1.75-2.98-2.54.89-.24,1.79-.41,2.66-.45ZM6.2,10.3c.72.76,1.4,1.55,2.05,2.37-2.04-.24-4.09-.5-6.13-.76,1.22-.6,2.64-1.2,4.08-1.61ZM1.89,12.39c2.1.41,4.21.76,6.34,1.04-.95.48-1.9.96-2.82,1.49-1.2-.78-2.37-1.69-3.52-2.54ZM8.74,16.44c-.47-.06-.93-.19-1.38-.39-.35-.16-.7-.36-1.04-.56,1.09-.56,2.17-1.16,3.24-1.77.05-.03.08-.07.11-.11.71.09,1.42.16,2.14.24-1.04.84-2.07,1.7-3.06,2.59ZM10.12,16.44c.96-.81,1.92-1.64,2.85-2.48.62.06,1.24.12,1.86.17-1.22,1.17-2.95,2.11-4.7,2.31ZM22.58,3.6c.8.65,1.5,1.38,2.04,2.16-.16-.02-.34.06-.42.25-.26.62-.48,1.25-.71,1.88-.11.3-.18.67-.34.95-.01.02-.02.04-.03.05-.42-.76-.84-1.52-1.29-2.27.07-.07.12-.17.12-.27,0-1,.22-1.89.62-2.75ZM18.65,1.3c1.09.44,2.23,1.05,3.27,1.79-.41.78-.63,1.63-.7,2.51-.83-1.38-1.69-2.74-2.6-4.06,0-.08.03-.16.03-.24ZM18.49,2.3c.62,1.1,1.22,2.21,1.83,3.31-.88-.24-1.76-.47-2.64-.61.23-.92.6-1.79.81-2.71ZM17.69,8.08c-.11-.4-.18-.83-.21-1.29-.03-.47.02-.92.1-1.36,1.04.44,2.16.77,3.24,1.1.53.96,1.03,1.93,1.55,2.89-.13-.02-.28-.06-.47-.13-1.31-.44-2.61-.89-3.92-1.3-.13-.04-.23,0-.29.08ZM17.86,8.58c1.05.42,2.11.8,3.16,1.19.52.19,1.27.65,1.86.59.42.79.86,1.57,1.27,2.37-.02.03-.03.05-.05.08-.05-.06-.12-.11-.22-.12-2.69-.32-5.12-1.65-6.04-4.12ZM22.42,14.19c.42,0,.84.01,1.26.02-.61.85-1.26,1.65-1.95,2.44-1.24.08-2.47.16-3.7.32,1.2-1.22,2.65-2.19,4.38-2.78ZM17.71,17.31c.04.06.08.1.16.1,1.09.02,2.18-.02,3.27-.07-.74.82-1.51,1.61-2.3,2.37-.61-.07-1.37.13-1.92.2-.38.05-.77.11-1.15.17.55-1.01,1.19-1.94,1.94-2.76ZM14.94,23.06c-.09.07-.14.16-.16.26-.12,0-.24-.02-.37-.02.27-.89.62-1.73,1.01-2.54.85-.09,1.71-.19,2.57-.26-.99.89-1.99,1.76-3.05,2.57ZM15.98,23.32c1.02-.81,1.99-1.68,2.93-2.56.06.16.07.39.07.71,0,.46,0,.92,0,1.37-.97.29-1.98.44-3,.47ZM21.74,21.43c-.61.47-1.26.84-1.94,1.12,0-.62,0-1.24-.06-1.84-.03-.23-.06-.44-.16-.6.93-.91,1.82-1.85,2.68-2.82.12,0,.23-.01.35-.02-.16,1.03-.29,2.08-.16,3.11.01.11.06.19.13.26-.26.28-.53.55-.84.8ZM23.29,19.72c-.03-.94-.06-1.86.07-2.81.02-.17-.17-.35-.34-.34-.05,0-.1,0-.15,0,.46-.53.93-1.05,1.37-1.61.3,1.68-.06,3.35-.95,4.74ZM24.74,11.94c-.36-.72-.74-1.43-1.13-2.14.05-.09.09-.18.13-.28.47-1.04.84-2.2,1.18-3.28,1,1.72,1.2,3.69-.18,5.7Z"/>
      <path class="cls-1" d="M65.63,13.99c13.48.08,27.02.46,40.52.25-.87,2.51-.14,5.26,1.68,7.23,2.46,2.67,6.3,3.28,9.75,2.92.36-.04.66-.33.55-.72-.27-.98-.62-1.96-1.05-2.91.08-.13.05-.33-.13-.38-.02,0-.05,0-.07-.01-1.26-2.62-3.12-4.96-5.62-6.24,1.4-.04,2.8-.08,4.21-.13.73,2.43,3.91,3.44,6.22,3.63,3.31.28,6.76-3.33,9.29-5.04.33-.22.38-.74,0-.95-4.78-2.6-13.13-5.53-15.63,1.6,0,.03,0,.05-.01.08-1.84-.1-3.68-.18-5.52-.25,1.63-.46,3.08-1.52,3.99-3,.73-1.19,1.08-2.66,1.01-4.06-.09-1.92-1.35-3.52-1.14-5.47.03-.34-.37-.62-.67-.51-3.17,1.07-6.49,2.83-7.82,6.09-.93,2.29-.72,4.95.89,6.83-13.46-.39-26.98-.2-40.43-.29-.86,0-.86,1.33,0,1.34ZM121.6,9.78c-1.16,1.14-2.27,2.33-3.49,3.41-.54.06-1.08.12-1.62.17.98-2.61,2.91-3.54,5.11-3.58ZM124.85,10.24c-1.05.79-2.03,1.63-2.98,2.54-.87.1-1.74.19-2.61.28.95-1.11,1.96-2.17,2.93-3.27.87.04,1.77.21,2.66.45ZM129.11,11.91c-2.04.26-4.09.52-6.13.76.66-.81,1.34-1.61,2.05-2.37,1.44.41,2.85,1.01,4.08,1.61ZM125.83,14.92c-.92-.53-1.87-1.01-2.82-1.49,2.13-.29,4.24-.63,6.34-1.04-1.15.84-2.32,1.75-3.52,2.54ZM119.43,13.85c.71-.08,1.42-.15,2.14-.24.03.04.06.08.11.11,1.07.61,2.14,1.21,3.24,1.77-.34.2-.69.4-1.04.56-.44.21-.91.33-1.38.39-1-.89-2.02-1.75-3.06-2.59ZM116.42,14.13c.62-.05,1.24-.11,1.86-.17.93.84,1.88,1.67,2.85,2.48-1.75-.2-3.49-1.14-4.71-2.31ZM109.27,6.36c0,.1.05.2.12.27-.44.75-.87,1.51-1.29,2.27-.01-.02-.02-.03-.03-.05-.15-.28-.23-.64-.34-.95-.23-.63-.45-1.26-.71-1.88-.08-.19-.26-.26-.42-.25.54-.79,1.25-1.52,2.05-2.16.39.87.62,1.75.62,2.75ZM112.62,1.55c-.91,1.32-1.77,2.68-2.6,4.06-.07-.88-.29-1.73-.7-2.51,1.04-.74,2.17-1.36,3.27-1.79,0,.08.02.16.03.24ZM113.56,5c-.88.14-1.77.37-2.64.61.61-1.1,1.22-2.21,1.83-3.31.22.91.58,1.79.81,2.71ZM113.26,8c-1.32.4-2.62.86-3.92,1.3-.19.06-.34.11-.47.13.52-.96,1.03-1.93,1.55-2.89,1.09-.33,2.2-.66,3.24-1.1.08.44.13.89.1,1.36-.03.46-.1.88-.21,1.29-.06-.08-.16-.12-.29-.08ZM107.34,12.69c-.1.01-.17.06-.22.12-.01-.03-.03-.05-.05-.08.42-.8.85-1.58,1.27-2.37.59.06,1.34-.4,1.86-.59,1.06-.39,2.12-.78,3.16-1.19-.92,2.46-3.35,3.8-6.04,4.12ZM113.2,16.97c-1.22-.16-2.46-.24-3.7-.32-.68-.79-1.34-1.6-1.95-2.44.42,0,.84-.01,1.26-.02,1.73.59,3.17,1.56,4.38,2.78ZM115.48,20.07c-.38-.06-.77-.12-1.15-.17-.55-.07-1.31-.27-1.92-.2-.8-.76-1.57-1.55-2.3-2.37,1.09.05,2.19.1,3.27.07.07,0,.12-.05.16-.1.75.82,1.4,1.75,1.94,2.76ZM113.25,20.5c.86.07,1.71.17,2.57.26.39.81.73,1.66,1.01,2.54-.12,0-.24.02-.37.02-.02-.1-.07-.19-.16-.26-1.05-.81-2.06-1.67-3.05-2.57ZM112.26,22.85c0-.46,0-.92,0-1.37,0-.33,0-.56.07-.71.94.88,1.9,1.75,2.93,2.56-1.02-.04-2.04-.18-3-.47ZM108.65,20.63c.06-.07.11-.15.13-.26.12-1.03,0-2.08-.16-3.11.12,0,.23.01.35.02.87.97,1.76,1.92,2.68,2.82-.09.17-.13.37-.16.6-.06.6-.07,1.23-.06,1.84-.68-.28-1.33-.65-1.94-1.12-.31-.24-.59-.51-.84-.8ZM107,14.97c.44.55.91,1.07,1.37,1.61-.05,0-.1,0-.15,0-.16-.01-.36.16-.34.34.12.95.1,1.87.07,2.81-.9-1.4-1.25-3.07-.95-4.74ZM106.31,6.24c.34,1.09.7,2.25,1.17,3.28.04.09.09.19.13.28-.38.71-.76,1.42-1.13,2.14-1.38-2.02-1.18-3.99-.18-5.7Z"/>
    </g>
  </g>
</svg>